<svg width="1038" height="1038" viewBox="0 0 1038 1038" fill="none" xmlns="http://www.w3.org/2000/svg">
<g opacity="0.6" filter="url(#filter0_f_2104_4207)">
<circle cx="519" cy="519" r="275" fill="url(#paint0_linear_2104_4207)"/>
</g>
<g clip-path="url(#clip0_2104_4207)">
<path d="M878.204 509.129H188.109C178.859 509.129 171.334 501.604 171.334 492.353V256.775C171.334 247.525 178.859 240 188.109 240H878.204C887.454 240 894.979 247.525 894.979 256.775V492.353C894.979 501.604 887.454 509.129 878.204 509.129ZM188.109 242C179.962 242 173.334 248.628 173.334 256.775V492.353C173.334 500.5 179.962 507.129 188.109 507.129H878.204C886.351 507.129 892.979 500.5 892.979 492.353V256.775C892.979 248.628 886.351 242 878.204 242H188.109Z" fill="#E6E6E6"/>
<path d="M944.034 790.557H93V792.24H944.034V790.557Z" fill="#CECECE"/>
<path d="M944.034 704.557H93V706.24H944.034V704.557Z" fill="#CECECE"/>
<path d="M480.841 517.792C481.452 525.472 485.91 531.382 490.797 530.993C495.685 530.603 499.15 524.062 498.538 516.379C498.335 513.307 497.4 510.328 495.81 507.691L492.81 475.184L477.585 476.917L482.159 508.779C481.006 511.635 480.554 514.726 480.841 517.792Z" fill="#FFB6B6"/>
<path d="M462.653 366.133C462.653 366.133 476.885 358.599 484.102 369.858C491.318 381.116 496.299 502.879 496.299 502.879L476.297 505.014L472.505 419.212L462.653 366.133Z" fill="#CECECE"/>
<path d="M433.115 698.205L444.702 698.203L450.214 653.509L433.112 653.51L433.115 698.205Z" fill="#FFB6B6"/>
<path d="M472.814 697.942C473.175 698.549 473.365 700.511 473.365 701.217C473.365 703.389 471.604 705.15 469.432 705.15H433.548C432.066 705.15 430.865 703.949 430.865 702.467V700.973C430.865 700.973 429.089 696.483 432.744 690.948C432.744 690.948 437.287 695.282 444.074 688.494L446.076 684.868L460.564 695.465L468.595 696.453C470.352 696.669 471.91 696.42 472.814 697.942Z" fill="#2F2E41"/>
<path d="M500.169 696.286L511.395 693.417L505.674 648.749L489.104 652.983L500.169 696.286Z" fill="#FFB6B6"/>
<path d="M538.569 686.206C539.068 686.705 539.738 688.558 539.913 689.243C540.451 691.347 539.181 693.489 537.076 694.027L502.308 702.908C500.872 703.275 499.411 702.408 499.044 700.973L498.675 699.525C498.675 699.525 495.843 695.614 498.015 689.347C498.015 689.347 503.488 692.422 508.385 684.165L509.427 680.157L526.087 686.837L534.113 685.807C535.869 685.582 537.316 684.955 538.569 686.206Z" fill="#2F2E41"/>
<path d="M423.528 356.525L422.979 352.538L429.508 336.59L447.45 334.597L451.324 357.428L423.528 356.525Z" fill="#FFB6B6"/>
<path opacity="0.1" d="M423.528 356.525L422.979 352.538L429.508 336.59L447.45 334.597L451.324 357.428L423.528 356.525Z" fill="black"/>
<path d="M402.596 469.158L394.622 491.086L400.603 503.047L430.505 676.481H450.385L446.453 522.982L492.303 676.481H511.979L496.157 572.82L484.329 477.132L477.156 472.7L442.466 453.21L402.596 469.158Z" fill="#2F2E41"/>
<path d="M453.43 484.109L441.469 486.103L425.521 448.226H461.404L453.43 484.109Z" fill="#CECECE"/>
<path d="M477.352 474.142L453.43 484.109L445.456 466.168L441.469 486.103L399.605 472.627L405.586 448.226L399.605 368.486L420.717 354.412L423.527 352.538L449.443 354.532L451.715 355.768L467.384 364.499L471.371 430.285L477.352 474.142Z" fill="#2F2E41"/>
<path d="M451.716 355.768L440.472 403.372L420.717 354.412L423.528 352.538L449.443 354.532L451.716 355.768Z" fill="#CECECE"/>
<path d="M432.499 352.538L428.512 359.405L432.499 361.694L430.505 403.496L438.479 414.337L446.453 398.315L440.473 361.694L442.466 352.538H432.499Z" fill="#2F2E41"/>
<path d="M438.479 348.551C448.939 348.551 457.417 340.072 457.417 329.613C457.417 319.154 448.939 310.675 438.479 310.675C428.02 310.675 419.541 319.154 419.541 329.613C419.541 340.072 428.02 348.551 438.479 348.551Z" fill="#FFB6B6"/>
<path d="M426.376 331.274L430.468 333.06L432.254 322.345C432.254 322.345 439.398 318.773 444.755 320.559C450.113 322.345 459.042 320.559 459.042 320.559C459.042 320.559 459.042 302.701 446.541 302.701C434.04 302.701 421.539 304.487 421.539 309.844C421.539 315.202 416.182 320.559 416.182 320.559C416.182 320.559 409.038 331.274 416.182 338.418C423.325 345.561 426.897 345.561 426.897 345.561L426.376 331.274Z" fill="#2F2E41"/>
<path d="M389.629 517.232C389.422 524.934 393.227 531.283 398.128 531.415C403.029 531.546 407.17 525.41 407.376 517.706C407.501 514.629 406.887 511.568 405.586 508.777L406.054 476.135L390.731 476.242L391.897 508.41C390.447 511.127 389.67 514.153 389.629 517.232Z" fill="#FFB6B6"/>
<path d="M408.586 364.462C408.586 364.462 395.628 360.475 389.648 372.436C383.667 384.397 391.641 506 391.641 506H411.757L406.418 420.28L408.586 364.462Z" fill="#CECECE"/>
<path d="M905.657 591.008L857.335 576.216C856.267 575.889 855.145 575.769 854.031 575.864L609.129 596.707C605.638 597.004 604.76 601.714 607.911 603.248L615.755 607.07H615.546V790.022H622.938V610.57L647.524 622.547C649.405 623.464 651.504 623.838 653.586 623.627L656.202 623.363V790.022H663.594V622.617L853.014 603.483V790.022H860.406V602.737L891.822 599.563V790.022H899.214V598.817L904.945 598.238C908.969 597.831 909.524 592.192 905.657 591.008Z" fill="#E6E6E6"/>
<path d="M680.226 595.982C684.846 595.982 753.221 587.666 753.221 587.666L763.385 601.526L692.238 615.386L680.226 595.982Z" fill="#242424"/>
<path d="M755.27 782.917L743.391 782.895L737.818 737.064L755.351 737.096L755.27 782.917Z" fill="#A0616A"/>
<path d="M714.57 782.578C714.199 783.2 714 785.21 713.999 785.935C713.995 788.161 715.797 789.97 718.024 789.973L754.813 790.036C756.332 790.039 757.566 788.81 757.568 787.291L757.571 785.759C757.571 785.759 759.399 781.159 755.662 775.478C755.662 775.478 750.997 779.913 744.051 772.943L742.005 769.222L727.132 780.06L718.897 781.059C717.096 781.277 715.499 781.019 714.57 782.578Z" fill="#2F2E41"/>
<path d="M819.028 761.605L809.655 768.674L777.926 735.887L791.759 725.453L819.028 761.605Z" fill="#A0616A"/>
<path d="M786.757 785.615C786.836 786.327 787.878 788.029 788.31 788.601C789.635 790.357 792.133 790.707 793.89 789.382L822.915 767.487C824.113 766.583 824.352 764.878 823.448 763.68L822.536 762.471C822.536 762.471 821.232 757.756 814.899 755.51C814.899 755.51 813.869 761.786 804.238 760.438L800.407 758.726L795.153 776.137L789.261 781.837C787.972 783.084 786.559 783.832 786.757 785.615Z" fill="#2F2E41"/>
<path d="M794.2 524.74C794.2 535.695 785.32 544.575 774.365 544.575C763.41 544.575 754.529 535.695 754.529 524.74C754.529 513.785 763.41 504.904 774.365 504.904C785.32 504.904 794.2 513.785 794.2 524.74Z" fill="#A0616A"/>
<path d="M792.331 639.107C792.331 639.107 719.3 634.973 715.166 643.241C711.032 651.508 737.514 765.074 737.514 765.074L761.14 760.122L749.615 680.446C749.615 680.446 810.558 696.586 818.826 677.294C827.094 658.003 824.713 650.819 824.713 650.819L792.331 639.107Z" fill="#2F2E41"/>
<path d="M811.043 625.229C811.043 625.229 739.519 640.562 737.72 649.628C735.92 658.695 791.501 761.21 791.501 761.21L812.976 750.184L780.783 676.395C780.783 676.395 843.825 675.838 846.695 655.047C849.565 634.256 845.37 627.958 845.37 627.958L811.043 625.229Z" fill="#2F2E41"/>
<path d="M819.201 547.472H784.839L761.327 586.055C761.327 586.055 755.815 610.989 761.327 613.68C766.838 616.37 766.839 645.308 766.839 645.308L824.713 650.819C824.713 650.819 832.981 564.008 830.225 555.74C827.469 547.472 819.201 547.472 819.201 547.472Z" fill="#6C63FF"/>
<path d="M764.772 572.965L761.327 613.679L722.579 597.235L713.332 592.584C711.521 590.222 709.17 588.328 706.477 587.061C699.779 583.797 692.669 584.605 690.593 588.866C688.516 593.127 692.26 599.226 698.955 602.488C701.614 603.829 704.555 604.513 707.532 604.484L734.59 619.852L734.622 619.792L734.742 620.006L777.174 637.729L786.937 584.28L764.772 572.965Z" fill="#A0616A"/>
<path d="M760.638 527.492C760.638 527.492 739.969 530.248 748.236 512.334C748.236 512.334 746.976 502.624 753.118 501.967C759.26 501.311 767.528 490.287 767.528 490.287C767.528 490.287 786.483 480.641 796.297 490.287C806.111 499.933 835.048 556.429 835.048 556.429L815.756 577.098C815.756 577.098 804.159 546.61 790.666 550.141C777.173 553.673 764.772 564.203 764.772 564.203C764.772 564.203 751.079 557.351 757.236 551.378C763.394 545.405 760.638 527.492 760.638 527.492Z" fill="#2F2E41"/>
<path d="M788.197 557.807C788.197 557.807 778.551 545.405 771.661 555.051C764.772 564.697 759.26 577.098 759.26 577.098L786.819 586.744L788.197 557.807Z" fill="#6C63FF"/>
<path d="M892.835 787.279L860.816 685.509L860.821 685.508H860.895L860.766 685.342L860.763 685.338L858.482 678.09L858.483 678.089C861.958 675.095 864.323 670.817 864.794 665.892L850.158 585.393C851.165 574.823 843.062 565.583 832.445 565.204L799.421 565.121C790.034 564.788 781.902 571.57 780.535 580.866L779.805 585.8L769.687 654.628C769.317 657.105 769.465 659.544 770.047 661.826L762.766 662.778L760.558 663.074L751.826 664.21L751.798 664.219L750.708 664.358H749.525V693.926H749.599V788.433C749.599 789.042 750.098 789.541 750.708 789.541C751.327 789.541 751.826 789.042 751.826 788.433V693.926H764.781L777.707 788.322C777.791 788.876 778.262 789.283 778.816 789.283C778.862 789.283 778.918 789.283 778.964 789.273C779.574 789.19 779.999 788.627 779.916 788.017L767.035 693.926H829.193C835.364 693.926 841.083 691.967 845.74 688.614L870.385 788.148C870.513 788.652 870.965 788.987 871.462 788.987C871.553 788.987 871.645 788.976 871.738 788.953C872.333 788.801 872.693 788.195 872.542 787.6L847.659 687.102C847.99 686.827 848.321 686.532 848.633 686.229L858.527 685.647L890.712 787.947C890.862 788.422 891.3 788.727 891.773 788.727C891.884 788.727 891.997 788.71 892.108 788.675C892.694 788.49 893.02 787.865 892.835 787.279ZM856.367 679.669C856.45 679.623 856.524 679.567 856.598 679.521L856.837 680.276L856.367 679.669Z" fill="#CECECE"/>
<path d="M264.565 614.775L286.114 601.071L294.875 606.355L264.565 641.183V614.775Z" fill="#FFB6B6"/>
<path d="M235.097 561.733C235.097 561.733 220.785 565.1 227.52 584.465C234.256 603.83 256.146 644.243 262.882 641.717C269.617 639.191 270.459 613.933 270.459 613.933C270.459 613.933 269.617 614.775 266.249 611.407C262.882 608.039 262.882 609.577 262.882 605.861C262.882 602.146 260.127 599.391 260.127 599.391L256.988 592.884C256.988 592.884 256.988 562.574 244.359 560.891C231.73 559.207 235.097 561.733 235.097 561.733Z" fill="#CECECE"/>
<path d="M301.969 605.45C307.558 599.86 309.291 592.53 305.838 589.078C302.386 585.626 295.056 587.358 289.467 592.948C283.877 598.537 282.144 605.867 285.597 609.32C289.049 612.772 296.379 611.04 301.969 605.45Z" fill="#FFB6B6"/>
<path d="M179.349 673.29L194.053 697.628L279.742 692.557L256.925 663.149L179.349 673.29Z" fill="#CECECE"/>
<path d="M204.952 787.12C204.453 787.12 204.018 786.751 203.949 786.243L178.343 599.236C178.267 598.681 178.656 598.17 179.211 598.094C179.765 598.014 180.277 598.406 180.353 598.961L205.958 785.968C206.034 786.523 205.646 787.035 205.091 787.11C205.044 787.117 204.998 787.12 204.952 787.12Z" fill="#CECECE"/>
<path d="M179.348 787.357C178.788 787.357 178.334 786.903 178.334 786.343V599.135C178.334 598.575 178.788 598.121 179.348 598.121C179.908 598.121 180.362 598.575 180.362 599.135V786.343C180.362 786.903 179.908 787.357 179.348 787.357Z" fill="#CECECE"/>
<path d="M307.881 786.613C307.45 786.613 307.05 786.336 306.914 785.903L246.323 593.319C246.155 592.784 246.452 592.215 246.986 592.047C247.52 591.879 248.09 592.176 248.258 592.71L308.849 785.294C309.017 785.829 308.72 786.398 308.186 786.566C308.085 786.598 307.982 786.613 307.881 786.613Z" fill="#CECECE"/>
<path d="M289.374 786.851C288.921 786.851 288.509 786.546 288.392 786.087L246.308 616.117C246.17 615.575 246.498 615.022 247.041 614.884C247.585 614.747 248.135 615.074 248.274 615.617L290.358 785.586C290.496 786.129 290.168 786.681 289.625 786.819C289.541 786.841 289.457 786.851 289.374 786.851Z" fill="#CECECE"/>
<path d="M179.349 602.117L249.573 601.037L262.503 674.811H180.363L179.349 602.117Z" fill="#CECECE"/>
<path d="M287.266 710.596L269.568 741.755L290.117 746.279L298.684 724.118L287.266 710.596Z" fill="#FFB6B6"/>
<path d="M275.925 735.872C275.925 735.872 275.238 730.791 271.195 732.404C267.152 734.016 255.483 740.009 255.483 740.009C255.483 740.009 285.917 789.459 291.693 787.156C297.468 784.852 290.554 770.874 290.554 770.874L292.08 746.165L275.925 735.872Z" fill="#2F2E41"/>
<path d="M208.998 650.136C208.998 650.136 202.683 679.183 222.048 689.286C241.412 699.39 307.505 674.552 307.505 674.552L277.195 719.967L298.243 728.436C298.243 728.436 346.234 665.291 342.866 655.188C339.498 645.084 316.766 644.242 316.766 644.242L265.408 646.768L251.937 642.559L208.998 650.136Z" fill="#2F2E41"/>
<path d="M261.083 724.425L233.261 747.008L250.755 758.699L266.798 741.174L261.083 724.425Z" fill="#FFB6B6"/>
<path d="M241.322 743.841C241.322 743.841 242.53 738.858 238.178 738.889C233.825 738.92 220.776 740.256 220.776 740.256C220.776 740.256 231.129 797.391 237.347 797.347C243.565 797.303 242.212 781.767 242.212 781.767L252.624 759.307L241.322 743.841Z" fill="#2F2E41"/>
<path d="M210.181 639.629C210.181 639.629 193.73 664.387 208.09 680.844C222.451 697.301 293.05 698.217 293.05 698.217L248.292 729.489L264.816 745.037C264.816 745.037 332.494 703.683 333.034 693.047C333.573 682.411 312.706 673.355 312.706 673.355L263.949 657.019L252.933 648.196L210.181 639.629Z" fill="#2F2E41"/>
<path d="M252.444 582.284C252.444 582.284 236.447 576.391 228.87 576.391C228.145 576.391 227.43 576.475 226.714 576.626C221.865 577.654 217.402 581.821 215.264 584.094C214.43 584.987 213.95 585.585 213.95 585.585C213.95 585.585 214.001 585.004 214.102 583.985C214.599 578.63 216.434 561.059 219.726 549.811C220.905 545.795 222.26 542.587 223.818 541.029C227.447 537.392 229.122 533.031 229.897 529.781C230.553 526.994 230.553 525.032 230.553 525.032L224.416 522.389L223.279 514.963C223.077 515.838 222.142 517.547 219.002 520.823C218.733 521.1 218.438 521.336 218.126 521.538C213.597 524.384 204.361 519.433 199.385 516.318C201.456 509.12 205.211 502.536 212.031 501.458C228.028 498.932 228.028 489.671 238.131 499.774C238.964 500.608 239.806 501.408 240.648 502.182C243.881 508.362 245.06 516.647 245.481 522.405C245.784 526.438 245.708 529.242 245.708 529.242C245.708 529.242 249.918 554.5 256.654 559.552C263.389 564.604 252.444 582.284 252.444 582.284Z" fill="#2F2E41"/>
<path d="M221.291 541.871L209.915 558.558L235.604 565.445V541.871H221.291Z" fill="#FFB6B6"/>
<path opacity="0.1" d="M221.291 541.871L209.915 558.558L235.604 565.445V541.871H221.291Z" fill="black"/>
<path d="M237.203 557.944L212.786 547.84C212.786 547.84 179.951 562.153 182.476 589.937C185.002 617.721 208.577 665.712 208.577 665.712L255.725 645.505L250.674 591.621L237.203 557.944Z" fill="#CECECE"/>
<path d="M226.733 549.321C238.63 549.321 248.274 539.677 248.274 527.78C248.274 515.883 238.63 506.239 226.733 506.239C214.837 506.239 205.192 515.883 205.192 527.78C205.192 539.677 214.837 549.321 226.733 549.321Z" fill="#FFB6B6"/>
<path d="M255.811 519.981C251.601 524.19 248.234 528.4 248.234 528.4L246.55 521.665C246.55 521.665 246.162 521.951 245.48 522.405C242.812 524.224 235.647 528.796 229.896 529.781C227.337 530.219 225.063 529.941 223.582 528.4C220.441 525.125 219.507 523.416 219.305 522.54L218.168 529.966L212.03 532.61C212.03 532.61 212.03 541.854 218.766 548.607C219.094 548.935 219.414 549.339 219.726 549.811C222.942 554.66 225.249 566.532 226.714 576.626C228.01 585.602 228.633 593.162 228.633 593.162C228.633 593.162 222.26 585.181 215.263 584.094C214.876 584.035 214.489 583.993 214.101 583.985C213.975 583.968 213.84 583.968 213.714 583.968C206.137 583.968 190.14 589.862 190.14 589.862C190.14 589.862 179.195 572.181 185.93 567.129C192.666 562.078 196.875 536.82 196.875 536.82C196.875 536.82 196.597 526.009 199.384 516.318C201.455 509.12 205.211 502.536 212.03 501.458C228.027 498.932 228.027 489.671 238.13 499.774C238.964 500.608 239.806 501.408 240.648 502.182C250.061 510.837 259.676 516.116 255.811 519.981Z" fill="#2F2E41"/>
<path d="M161.334 633H153.334V791H161.334V633Z" fill="#E6E6E6"/>
<path d="M355.334 633H347.334V791H355.334V633Z" fill="#E6E6E6"/>
<path d="M304.334 566H251.334V619H304.334V566Z" fill="#6C63FF"/>
<path d="M220.784 622.352L242.333 608.648L251.094 613.933L220.784 648.761V622.352Z" fill="#FFB6B6"/>
<path d="M191.316 569.31C191.316 569.31 177.003 572.678 183.739 592.042C190.474 611.407 212.365 651.82 219.1 649.294C225.836 646.768 226.678 621.51 226.678 621.51C226.678 621.51 225.836 622.352 222.468 618.984C219.1 615.617 219.1 617.155 219.1 613.439C219.1 609.723 216.346 606.969 216.346 606.969L213.207 600.462C213.207 600.462 213.207 570.152 200.578 568.468C187.948 566.784 191.316 569.31 191.316 569.31Z" fill="#CECECE"/>
<path d="M258.187 613.027C263.777 607.438 265.51 600.108 262.057 596.655C258.605 593.203 251.275 594.936 245.685 600.525C240.096 606.115 238.363 613.445 241.816 616.897C245.268 620.349 252.598 618.617 258.187 613.027Z" fill="#FFB6B6"/>
<path d="M371.334 627H129.334V645H371.334V627Z" fill="#E6E6E6"/>
<path d="M617.204 483H581.464C578.631 483 576.334 485.297 576.334 488.13V502.87C576.334 505.703 578.631 508 581.464 508H617.204C620.037 508 622.334 505.703 622.334 502.87V488.13C622.334 485.297 620.037 483 617.204 483Z" fill="#E6E6E6"/>
<path d="M692.204 497.74H656.464C653.631 497.74 651.334 500.037 651.334 502.87V502.87C651.334 505.703 653.631 508 656.464 508H692.204C695.037 508 697.334 505.703 697.334 502.87V502.87C697.334 500.037 695.037 497.74 692.204 497.74Z" fill="#6C63FF"/>
</g>
<defs>
<filter id="filter0_f_2104_4207" x="0.557373" y="0.557373" width="1036.89" height="1036.89" filterUnits="userSpaceOnUse" color-interpolation-filters="sRGB">
<feFlood flood-opacity="0" result="BackgroundImageFix"/>
<feBlend mode="normal" in="SourceGraphic" in2="BackgroundImageFix" result="shape"/>
<feGaussianBlur stdDeviation="121.721" result="effect1_foregroundBlur_2104_4207"/>
</filter>
<linearGradient id="paint0_linear_2104_4207" x1="244" y1="244" x2="907.731" y2="530.766" gradientUnits="userSpaceOnUse">
<stop stop-color="#1DE1EE"/>
<stop offset="0.493582" stop-color="#8B43FE"/>
<stop offset="1" stop-color="#E50CEA"/>
</linearGradient>
<clipPath id="clip0_2104_4207">
<rect width="851.034" height="557.347" fill="white" transform="translate(93 240)"/>
</clipPath>
</defs>
</svg>
