<svg width="1038" height="1038" viewBox="0 0 1038 1038" fill="none" xmlns="http://www.w3.org/2000/svg">
<g opacity="0.6" filter="url(#filter0_f_2104_4375)">
<circle cx="519" cy="519" r="275" fill="url(#paint0_linear_2104_4375)"/>
</g>
<g clip-path="url(#clip0_2104_4375)">
<path d="M396.102 665.506H315.745C313.719 665.506 312.07 663.857 312.07 661.831C312.07 659.806 313.719 658.158 315.745 658.158H396.102C398.128 658.158 399.775 659.806 399.775 661.831C399.775 663.857 398.128 665.506 396.102 665.506Z" fill="#6C63FF"/>
<path d="M252.588 685.173C252.588 685.833 253.118 686.363 253.778 686.363H458.068C458.728 686.363 459.258 685.833 459.258 685.173C459.258 684.513 458.728 683.983 458.068 683.983H253.778C253.118 683.983 252.588 684.513 252.588 685.173Z" fill="#E6E6E6"/>
<path d="M683.607 445.403C719.506 445.403 748.607 416.302 748.607 380.403C748.607 344.505 719.506 315.403 683.607 315.403C647.709 315.403 618.607 344.505 618.607 380.403C618.607 416.302 647.709 445.403 683.607 445.403Z" fill="#FF6884"/>
<path d="M198 767.308C198 767.968 198.53 768.498 199.19 768.498H721.48C722.14 768.498 722.67 767.968 722.67 767.308C722.67 766.648 722.14 766.118 721.48 766.118H199.19C198.53 766.118 198 766.648 198 767.308Z" fill="#E6E6E6"/>
<path d="M205.555 686.947L203.884 685.116L366.948 536.32L425.696 562.656L489.137 453.862L541.259 428.738L589.551 509.226C615.624 441.727 681.011 371.108 759.362 299.459L761.289 301.02C687.804 371.374 624.93 442.048 589.249 513.541L544.58 438.873C542.47 435.346 538.035 433.984 534.308 435.718C505.818 448.974 482.054 470.613 466.194 497.741L426.454 565.712L417.383 561.645C387.045 548.046 351.529 553.745 326.97 576.155L205.555 686.947Z" fill="#E6E6E6"/>
<path d="M763.038 313.006L760.562 313.178L756.568 304.52L747.624 302.704L747.276 300.246L762.02 298.151L763.038 313.006Z" fill="#E6E6E6"/>
<path d="M508.685 365.98L517.45 332.283L551.597 330.64L561.813 377.091L508.685 365.98Z" fill="#FFB6B6"/>
<path opacity="0.1" d="M508.685 365.98L517.45 332.283L551.597 330.64L561.813 377.091L508.685 365.98Z" fill="black"/>
<path d="M531.154 351.141C553.917 351.141 572.37 332.688 572.37 309.925C572.37 287.161 553.917 268.708 531.154 268.708C508.391 268.708 489.938 287.161 489.938 309.925C489.938 332.688 508.391 351.141 531.154 351.141Z" fill="#FFB6B6"/>
<path d="M553.894 318.649C553.894 318.649 538.237 287.626 519.892 289.417C501.546 291.208 491.882 293.387 491.882 293.387C491.882 293.387 486.436 269.225 512.074 259.931C512.074 259.931 479.476 227.797 518.287 212.034C557.098 196.271 578.815 216.375 578.815 216.375C578.815 216.375 607.544 245.054 571.361 266.489C571.361 266.489 598.228 302.628 565.7 332.415C565.7 332.415 572.975 308.311 565.384 312.756C557.792 317.201 553.894 318.649 553.894 318.649Z" fill="#2F2E41"/>
<path d="M485.678 536.412L480.196 541.666L440.588 626.591L436.253 767.063H502.799L534.015 697.5L555.047 766.392H614.881L628.752 641.332L591.466 552.887L485.678 536.412Z" fill="#2F2E41"/>
<path d="M554.614 362.556H510.173L461.833 388.569L473.105 438.862C473.105 438.862 470.504 469.211 476.574 491.755C482.644 514.3 480.042 543.782 480.042 543.782L591.466 552.887L594.935 450.568L593.2 382.066L554.614 362.556Z" fill="#CECECE"/>
<path d="M469.204 389.003C469.204 389.003 442.323 389.87 437.988 407.212C433.652 424.554 430.184 513.867 430.184 513.867C430.184 513.867 432.785 566.863 461.833 541.665C490.881 516.468 488.28 440.162 488.28 440.162L469.204 389.003Z" fill="#CECECE"/>
<path d="M729.927 831.392H571.519C566.154 831.392 561.789 827.027 561.789 821.662V657.904C561.789 652.539 566.154 648.174 571.519 648.174H729.927C735.293 648.174 739.657 652.539 739.657 657.904V821.662C739.657 827.027 735.293 831.392 729.927 831.392Z" fill="#242424"/>
<path d="M729.927 832.392H571.518C565.602 832.392 560.788 827.579 560.788 821.662V657.904C560.788 651.988 565.602 647.174 571.518 647.174H729.927C735.843 647.174 740.656 651.988 740.656 657.904V821.662C740.656 827.579 735.843 832.392 729.927 832.392ZM571.518 649.174C566.704 649.174 562.788 653.09 562.788 657.904V821.662C562.788 826.476 566.704 830.392 571.518 830.392H729.927C734.74 830.392 738.656 826.476 738.656 821.662V657.904C738.656 653.09 734.74 649.174 729.927 649.174H571.518Z" fill="#E6E6E6"/>
<path d="M656.974 788.371H643.918C642.328 788.371 641.035 787.372 641.035 786.145V729.934C641.035 728.707 642.328 727.709 643.918 727.709H656.974C658.564 727.709 659.857 728.707 659.857 729.934V786.145C659.857 787.372 658.564 788.371 656.974 788.371Z" fill="#6C63FF"/>
<path d="M613.81 755.245C612.525 755.245 611.48 756.052 611.48 757.043V786.083C611.48 787.074 612.525 787.881 613.81 787.881H626.866C628.15 787.881 629.195 787.074 629.195 786.083V757.043C629.195 756.052 628.15 755.245 626.866 755.245H613.81Z" fill="#6C63FF"/>
<path d="M687.082 788.371H674.026C672.437 788.371 671.144 787.373 671.144 786.145V694.025C671.144 692.798 672.437 691.8 674.026 691.8H687.082C688.672 691.8 689.965 692.798 689.965 694.025V786.145C689.965 787.373 688.672 788.371 687.082 788.371Z" fill="#6C63FF"/>
<path d="M406.125 384.572H391.211C389.395 384.572 387.918 383.432 387.918 382.03V317.821C387.918 316.419 389.395 315.279 391.211 315.279H406.125C407.941 315.279 409.418 316.419 409.418 317.821V382.03C409.418 383.432 407.941 384.572 406.125 384.572Z" fill="#6C63FF"/>
<path d="M356.819 346.733C355.352 346.733 354.158 347.654 354.158 348.786V381.958C354.158 383.091 355.352 384.012 356.819 384.012H371.733C373.2 384.012 374.393 383.091 374.393 381.958V348.786C374.393 347.654 373.2 346.733 371.733 346.733H356.819Z" fill="#6C63FF"/>
<path d="M440.517 384.572H425.604C423.788 384.572 422.311 383.432 422.311 382.03V276.802C422.311 275.4 423.788 274.26 425.604 274.26H440.517C442.333 274.26 443.81 275.4 443.81 276.802V382.03C443.81 383.432 442.333 384.572 440.517 384.572Z" fill="#6C63FF"/>
<path d="M626.438 672.001C634.162 671.261 639.482 660.823 638.319 648.681C637.922 643.824 636.367 639.133 633.784 635.001L632.296 621.259L632.524 621.19L636.266 556.032C637.136 540.882 631.139 525.995 619.585 516.158C612.711 510.305 605.379 507.342 600.664 514.737C592.84 527.006 602.974 577.583 609.629 606.338L612.209 637.066C610.457 641.615 609.819 646.517 610.35 651.362C611.51 663.5 618.713 672.74 626.438 672.001Z" fill="#FFB6B6"/>
<path d="M583.662 383.8C583.662 383.8 606.207 375.129 616.612 401.142C627.018 427.156 638.29 555.488 638.29 555.488L585.396 545.95L583.662 383.8Z" fill="#CECECE"/>
<path d="M274.092 371.076H243.735C241.709 371.076 240.061 369.428 240.061 367.402C240.061 365.376 241.709 363.729 243.735 363.729H274.092C276.118 363.729 277.765 365.376 277.765 367.402C277.765 369.428 276.118 371.076 274.092 371.076Z" fill="#CECECE"/>
<path d="M274.092 318.997H243.735C241.709 318.997 240.061 317.349 240.061 315.323C240.061 313.297 241.709 311.649 243.735 311.649H274.092C276.118 311.649 277.765 313.297 277.765 315.323C277.765 317.349 276.118 318.997 274.092 318.997Z" fill="#CECECE"/>
<path d="M274.092 281.44H243.735C241.709 281.44 240.061 279.792 240.061 277.766C240.061 275.74 241.709 274.092 243.735 274.092H274.092C276.118 274.092 277.765 275.74 277.765 277.766C277.765 279.792 276.118 281.44 274.092 281.44Z" fill="#CECECE"/>
<path d="M238.843 384.754C238.843 385.414 239.373 385.944 240.033 385.944H444.323C444.983 385.944 445.513 385.414 445.513 384.754C445.513 384.094 444.983 383.564 444.323 383.564H240.033C239.373 383.564 238.843 384.094 238.843 384.754Z" fill="#E6E6E6"/>
<path d="M632.843 692.754C632.843 693.414 633.373 693.944 634.033 693.944H838.323C838.983 693.944 839.513 693.414 839.513 692.754C839.513 692.094 838.983 691.564 838.323 691.564H634.033C633.373 691.564 632.843 692.094 632.843 692.754Z" fill="#E6E6E6"/>
<path d="M572.843 789.754C572.843 790.414 573.373 790.944 574.033 790.944H778.323C778.983 790.944 779.513 790.414 779.513 789.754C779.513 789.094 778.983 788.564 778.323 788.564H574.033C573.373 788.564 572.843 789.094 572.843 789.754Z" fill="#E6E6E6"/>
<path d="M435.467 378.738C427.742 379.477 422.423 389.915 423.585 402.058C423.983 406.914 425.538 411.605 428.12 415.738L429.609 429.48L429.381 429.548L425.639 494.706C424.769 509.856 430.766 524.743 442.32 534.581C449.193 540.433 456.526 543.396 461.241 536.002C469.065 523.732 458.93 473.155 452.275 444.4L449.695 413.672C451.448 409.124 452.086 404.222 451.555 399.376C450.395 387.238 443.191 377.998 435.467 378.738Z" fill="#FFB6B6"/>
</g>
<defs>
<filter id="filter0_f_2104_4375" x="0.557373" y="0.557373" width="1036.89" height="1036.89" filterUnits="userSpaceOnUse" color-interpolation-filters="sRGB">
<feFlood flood-opacity="0" result="BackgroundImageFix"/>
<feBlend mode="normal" in="SourceGraphic" in2="BackgroundImageFix" result="shape"/>
<feGaussianBlur stdDeviation="121.721" result="effect1_foregroundBlur_2104_4375"/>
</filter>
<linearGradient id="paint0_linear_2104_4375" x1="244" y1="244" x2="907.731" y2="530.766" gradientUnits="userSpaceOnUse">
<stop stop-color="#1DE1EE"/>
<stop offset="0.493582" stop-color="#8B43FE"/>
<stop offset="1" stop-color="#E50CEA"/>
</linearGradient>
<clipPath id="clip0_2104_4375">
<rect width="641.513" height="626.392" fill="white" transform="translate(198 206)"/>
</clipPath>
</defs>
</svg>
