<svg width="1038" height="1038" viewBox="0 0 1038 1038" fill="none" xmlns="http://www.w3.org/2000/svg">
<g opacity="0.6" filter="url(#filter0_f_2104_4286)">
<circle cx="519" cy="519" r="275" fill="url(#paint0_linear_2104_4286)"/>
</g>
<g clip-path="url(#clip0_2104_4286)">
<path d="M308.757 270.627C312.52 270.627 315.57 267.576 315.57 263.813C315.57 260.05 312.52 257 308.757 257C304.994 257 301.943 260.05 301.943 263.813C301.943 267.576 304.994 270.627 308.757 270.627Z" fill="#CECECE"/>
<path d="M343.246 270.627C347.009 270.627 350.059 267.576 350.059 263.813C350.059 260.05 347.009 257 343.246 257C339.483 257 336.433 260.05 336.433 263.813C336.433 267.576 339.483 270.627 343.246 270.627Z" fill="#CECECE"/>
<path d="M377.735 270.627C381.498 270.627 384.549 267.576 384.549 263.813C384.549 260.05 381.498 257 377.735 257C373.972 257 370.922 260.05 370.922 263.813C370.922 267.576 373.972 270.627 377.735 270.627Z" fill="#CECECE"/>
<path d="M412.224 270.627C415.987 270.627 419.038 267.576 419.038 263.813C419.038 260.05 415.987 257 412.224 257C408.462 257 405.411 260.05 405.411 263.813C405.411 267.576 408.462 270.627 412.224 270.627Z" fill="#CECECE"/>
<path d="M446.714 270.627C450.477 270.627 453.527 267.576 453.527 263.813C453.527 260.05 450.477 257 446.714 257C442.951 257 439.9 260.05 439.9 263.813C439.9 267.576 442.951 270.627 446.714 270.627Z" fill="#CECECE"/>
<path d="M308.757 305.549C312.52 305.549 315.57 302.498 315.57 298.735C315.57 294.972 312.52 291.922 308.757 291.922C304.994 291.922 301.943 294.972 301.943 298.735C301.943 302.498 304.994 305.549 308.757 305.549Z" fill="#CECECE"/>
<path d="M343.246 305.549C347.009 305.549 350.059 302.498 350.059 298.735C350.059 294.972 347.009 291.922 343.246 291.922C339.483 291.922 336.433 294.972 336.433 298.735C336.433 302.498 339.483 305.549 343.246 305.549Z" fill="#CECECE"/>
<path d="M377.735 305.549C381.498 305.549 384.549 302.498 384.549 298.735C384.549 294.972 381.498 291.922 377.735 291.922C373.972 291.922 370.922 294.972 370.922 298.735C370.922 302.498 373.972 305.549 377.735 305.549Z" fill="#CECECE"/>
<path d="M412.224 305.549C415.987 305.549 419.038 302.498 419.038 298.735C419.038 294.972 415.987 291.922 412.224 291.922C408.462 291.922 405.411 294.972 405.411 298.735C405.411 302.498 408.462 305.549 412.224 305.549Z" fill="#6C63FF"/>
<path d="M446.714 305.549C450.477 305.549 453.527 302.498 453.527 298.735C453.527 294.972 450.477 291.922 446.714 291.922C442.951 291.922 439.9 294.972 439.9 298.735C439.9 302.498 442.951 305.549 446.714 305.549Z" fill="#CECECE"/>
<path d="M515.691 305.549C519.454 305.549 522.505 302.498 522.505 298.735C522.505 294.972 519.454 291.922 515.691 291.922C511.928 291.922 508.878 294.972 508.878 298.735C508.878 302.498 511.928 305.549 515.691 305.549Z" fill="#CECECE"/>
<path d="M308.757 340.471C312.52 340.471 315.57 337.42 315.57 333.657C315.57 329.894 312.52 326.844 308.757 326.844C304.994 326.844 301.943 329.894 301.943 333.657C301.943 337.42 304.994 340.471 308.757 340.471Z" fill="#CECECE"/>
<path d="M343.246 340.471C347.009 340.471 350.059 337.42 350.059 333.657C350.059 329.894 347.009 326.844 343.246 326.844C339.483 326.844 336.433 329.894 336.433 333.657C336.433 337.42 339.483 340.471 343.246 340.471Z" fill="#CECECE"/>
<path d="M377.735 340.471C381.498 340.471 384.549 337.42 384.549 333.657C384.549 329.894 381.498 326.844 377.735 326.844C373.972 326.844 370.922 329.894 370.922 333.657C370.922 337.42 373.972 340.471 377.735 340.471Z" fill="#CECECE"/>
<path d="M412.224 340.471C415.987 340.471 419.038 337.42 419.038 333.657C419.038 329.894 415.987 326.844 412.224 326.844C408.462 326.844 405.411 329.894 405.411 333.657C405.411 337.42 408.462 340.471 412.224 340.471Z" fill="#CECECE"/>
<path d="M446.714 340.471C450.477 340.471 453.527 337.42 453.527 333.657C453.527 329.894 450.477 326.844 446.714 326.844C442.951 326.844 439.9 329.894 439.9 333.657C439.9 337.42 442.951 340.471 446.714 340.471Z" fill="#CECECE"/>
<path d="M308.757 375.393C312.52 375.393 315.57 372.342 315.57 368.579C315.57 364.816 312.52 361.766 308.757 361.766C304.994 361.766 301.943 364.816 301.943 368.579C301.943 372.342 304.994 375.393 308.757 375.393Z" fill="#CECECE"/>
<path d="M343.246 375.393C347.009 375.393 350.059 372.342 350.059 368.579C350.059 364.816 347.009 361.766 343.246 361.766C339.483 361.766 336.433 364.816 336.433 368.579C336.433 372.342 339.483 375.393 343.246 375.393Z" fill="#CECECE"/>
<path d="M377.735 375.393C381.498 375.393 384.549 372.342 384.549 368.579C384.549 364.816 381.498 361.766 377.735 361.766C373.972 361.766 370.922 364.816 370.922 368.579C370.922 372.342 373.972 375.393 377.735 375.393Z" fill="#CECECE"/>
<path d="M412.224 375.393C415.987 375.393 419.038 372.342 419.038 368.579C419.038 364.816 415.987 361.766 412.224 361.766C408.462 361.766 405.411 364.816 405.411 368.579C405.411 372.342 408.462 375.393 412.224 375.393Z" fill="#CECECE"/>
<path d="M446.714 375.393C450.477 375.393 453.527 372.342 453.527 368.579C453.527 364.816 450.477 361.766 446.714 361.766C442.951 361.766 439.9 364.816 439.9 368.579C439.9 372.342 442.951 375.393 446.714 375.393Z" fill="#CECECE"/>
<path d="M481.202 375.393C484.965 375.393 488.015 372.342 488.015 368.579C488.015 364.816 484.965 361.766 481.202 361.766C477.439 361.766 474.389 364.816 474.389 368.579C474.389 372.342 477.439 375.393 481.202 375.393Z" fill="#CECECE"/>
<path d="M515.691 375.393C519.454 375.393 522.505 372.342 522.505 368.579C522.505 364.816 519.454 361.766 515.691 361.766C511.928 361.766 508.878 364.816 508.878 368.579C508.878 372.342 511.928 375.393 515.691 375.393Z" fill="#CECECE"/>
<path d="M550.181 375.393C553.943 375.393 556.994 372.342 556.994 368.579C556.994 364.816 553.943 361.766 550.181 361.766C546.418 361.766 543.367 364.816 543.367 368.579C543.367 372.342 546.418 375.393 550.181 375.393Z" fill="#CECECE"/>
<path d="M584.67 375.393C588.433 375.393 591.483 372.342 591.483 368.579C591.483 364.816 588.433 361.766 584.67 361.766C580.907 361.766 577.856 364.816 577.856 368.579C577.856 372.342 580.907 375.393 584.67 375.393Z" fill="#CECECE"/>
<path d="M619.158 375.393C622.921 375.393 625.971 372.342 625.971 368.579C625.971 364.816 622.921 361.766 619.158 361.766C615.395 361.766 612.345 364.816 612.345 368.579C612.345 372.342 615.395 375.393 619.158 375.393Z" fill="#CECECE"/>
<path d="M446.714 410.314C450.477 410.314 453.527 407.264 453.527 403.501C453.527 399.738 450.477 396.688 446.714 396.688C442.951 396.688 439.9 399.738 439.9 403.501C439.9 407.264 442.951 410.314 446.714 410.314Z" fill="#CECECE"/>
<path d="M481.202 410.314C484.965 410.314 488.015 407.264 488.015 403.501C488.015 399.738 484.965 396.688 481.202 396.688C477.439 396.688 474.389 399.738 474.389 403.501C474.389 407.264 477.439 410.314 481.202 410.314Z" fill="#6C63FF"/>
<path d="M515.691 410.314C519.454 410.314 522.505 407.264 522.505 403.501C522.505 399.738 519.454 396.688 515.691 396.688C511.928 396.688 508.878 399.738 508.878 403.501C508.878 407.264 511.928 410.314 515.691 410.314Z" fill="#CECECE"/>
<path d="M550.181 410.314C553.943 410.314 556.994 407.264 556.994 403.501C556.994 399.738 553.943 396.688 550.181 396.688C546.418 396.688 543.367 399.738 543.367 403.501C543.367 407.264 546.418 410.314 550.181 410.314Z" fill="#CECECE"/>
<path d="M584.67 410.314C588.433 410.314 591.483 407.264 591.483 403.501C591.483 399.738 588.433 396.688 584.67 396.688C580.907 396.688 577.856 399.738 577.856 403.501C577.856 407.264 580.907 410.314 584.67 410.314Z" fill="#CECECE"/>
<path d="M619.158 410.314C622.921 410.314 625.971 407.264 625.971 403.501C625.971 399.738 622.921 396.688 619.158 396.688C615.395 396.688 612.345 399.738 612.345 403.501C612.345 407.264 615.395 410.314 619.158 410.314Z" fill="#CECECE"/>
<path d="M446.714 445.236C450.477 445.236 453.527 442.186 453.527 438.423C453.527 434.66 450.477 431.61 446.714 431.61C442.951 431.61 439.9 434.66 439.9 438.423C439.9 442.186 442.951 445.236 446.714 445.236Z" fill="#CECECE"/>
<path d="M481.202 445.236C484.965 445.236 488.015 442.186 488.015 438.423C488.015 434.66 484.965 431.61 481.202 431.61C477.439 431.61 474.389 434.66 474.389 438.423C474.389 442.186 477.439 445.236 481.202 445.236Z" fill="#CECECE"/>
<path d="M515.691 445.236C519.454 445.236 522.505 442.186 522.505 438.423C522.505 434.66 519.454 431.61 515.691 431.61C511.928 431.61 508.878 434.66 508.878 438.423C508.878 442.186 511.928 445.236 515.691 445.236Z" fill="#CECECE"/>
<path d="M550.181 445.236C553.943 445.236 556.994 442.186 556.994 438.423C556.994 434.66 553.943 431.61 550.181 431.61C546.418 431.61 543.367 434.66 543.367 438.423C543.367 442.186 546.418 445.236 550.181 445.236Z" fill="#CECECE"/>
<path d="M584.67 445.236C588.433 445.236 591.483 442.186 591.483 438.423C591.483 434.66 588.433 431.61 584.67 431.61C580.907 431.61 577.856 434.66 577.856 438.423C577.856 442.186 580.907 445.236 584.67 445.236Z" fill="#6C63FF"/>
<path d="M619.158 445.236C622.921 445.236 625.971 442.186 625.971 438.423C625.971 434.66 622.921 431.61 619.158 431.61C615.395 431.61 612.345 434.66 612.345 438.423C612.345 442.186 615.395 445.236 619.158 445.236Z" fill="#CECECE"/>
<path d="M446.714 480.158C450.477 480.158 453.527 477.108 453.527 473.345C453.527 469.582 450.477 466.532 446.714 466.532C442.951 466.532 439.9 469.582 439.9 473.345C439.9 477.108 442.951 480.158 446.714 480.158Z" fill="#CECECE"/>
<path d="M481.202 480.158C484.965 480.158 488.015 477.108 488.015 473.345C488.015 469.582 484.965 466.532 481.202 466.532C477.439 466.532 474.389 469.582 474.389 473.345C474.389 477.108 477.439 480.158 481.202 480.158Z" fill="#CECECE"/>
<path d="M515.691 480.158C519.454 480.158 522.505 477.108 522.505 473.345C522.505 469.582 519.454 466.532 515.691 466.532C511.928 466.532 508.878 469.582 508.878 473.345C508.878 477.108 511.928 480.158 515.691 480.158Z" fill="#CECECE"/>
<path d="M550.181 480.158C553.943 480.158 556.994 477.108 556.994 473.345C556.994 469.582 553.943 466.532 550.181 466.532C546.418 466.532 543.367 469.582 543.367 473.345C543.367 477.108 546.418 480.158 550.181 480.158Z" fill="#CECECE"/>
<path d="M584.67 480.158C588.433 480.158 591.483 477.108 591.483 473.345C591.483 469.582 588.433 466.532 584.67 466.532C580.907 466.532 577.856 469.582 577.856 473.345C577.856 477.108 580.907 480.158 584.67 480.158Z" fill="#CECECE"/>
<path d="M619.158 480.158C622.921 480.158 625.971 477.108 625.971 473.345C625.971 469.582 622.921 466.532 619.158 466.532C615.395 466.532 612.345 469.582 612.345 473.345C612.345 477.108 615.395 480.158 619.158 480.158Z" fill="#CECECE"/>
<path d="M308.757 515.08C312.52 515.08 315.57 512.03 315.57 508.267C315.57 504.504 312.52 501.454 308.757 501.454C304.994 501.454 301.943 504.504 301.943 508.267C301.943 512.03 304.994 515.08 308.757 515.08Z" fill="#CECECE"/>
<path d="M343.246 515.08C347.009 515.08 350.059 512.03 350.059 508.267C350.059 504.504 347.009 501.454 343.246 501.454C339.483 501.454 336.433 504.504 336.433 508.267C336.433 512.03 339.483 515.08 343.246 515.08Z" fill="#CECECE"/>
<path d="M377.735 515.08C381.498 515.08 384.549 512.03 384.549 508.267C384.549 504.504 381.498 501.454 377.735 501.454C373.972 501.454 370.922 504.504 370.922 508.267C370.922 512.03 373.972 515.08 377.735 515.08Z" fill="#CECECE"/>
<path d="M412.224 515.08C415.987 515.08 419.038 512.03 419.038 508.267C419.038 504.504 415.987 501.454 412.224 501.454C408.462 501.454 405.411 504.504 405.411 508.267C405.411 512.03 408.462 515.08 412.224 515.08Z" fill="#CECECE"/>
<path d="M446.714 515.08C450.477 515.08 453.527 512.03 453.527 508.267C453.527 504.504 450.477 501.454 446.714 501.454C442.951 501.454 439.9 504.504 439.9 508.267C439.9 512.03 442.951 515.08 446.714 515.08Z" fill="#CECECE"/>
<path d="M481.202 515.08C484.965 515.08 488.015 512.03 488.015 508.267C488.015 504.504 484.965 501.454 481.202 501.454C477.439 501.454 474.389 504.504 474.389 508.267C474.389 512.03 477.439 515.08 481.202 515.08Z" fill="#CECECE"/>
<path d="M515.691 515.08C519.454 515.08 522.505 512.03 522.505 508.267C522.505 504.504 519.454 501.454 515.691 501.454C511.928 501.454 508.878 504.504 508.878 508.267C508.878 512.03 511.928 515.08 515.691 515.08Z" fill="#CECECE"/>
<path d="M550.181 515.08C553.943 515.08 556.994 512.03 556.994 508.267C556.994 504.504 553.943 501.454 550.181 501.454C546.418 501.454 543.367 504.504 543.367 508.267C543.367 512.03 546.418 515.08 550.181 515.08Z" fill="#CECECE"/>
<path d="M584.67 515.08C588.433 515.08 591.483 512.03 591.483 508.267C591.483 504.504 588.433 501.454 584.67 501.454C580.907 501.454 577.856 504.504 577.856 508.267C577.856 512.03 580.907 515.08 584.67 515.08Z" fill="#CECECE"/>
<path d="M619.158 515.08C622.921 515.08 625.971 512.03 625.971 508.267C625.971 504.504 622.921 501.454 619.158 501.454C615.395 501.454 612.345 504.504 612.345 508.267C612.345 512.03 615.395 515.08 619.158 515.08Z" fill="#CECECE"/>
<path d="M308.753 550.001C312.516 550.001 315.566 546.951 315.566 543.188C315.566 539.425 312.516 536.375 308.753 536.375C304.99 536.375 301.939 539.425 301.939 543.188C301.939 546.951 304.99 550.001 308.753 550.001Z" fill="#CECECE"/>
<path d="M343.246 550.002C347.009 550.002 350.059 546.952 350.059 543.189C350.059 539.426 347.009 536.375 343.246 536.375C339.483 536.375 336.433 539.426 336.433 543.189C336.433 546.952 339.483 550.002 343.246 550.002Z" fill="#CECECE"/>
<path d="M308.753 584.923C312.516 584.923 315.566 581.873 315.566 578.11C315.566 574.347 312.516 571.296 308.753 571.296C304.99 571.296 301.939 574.347 301.939 578.11C301.939 581.873 304.99 584.923 308.753 584.923Z" fill="#CECECE"/>
<path d="M343.246 584.924C347.009 584.924 350.059 581.874 350.059 578.111C350.059 574.348 347.009 571.298 343.246 571.298C339.483 571.298 336.433 574.348 336.433 578.111C336.433 581.874 339.483 584.924 343.246 584.924Z" fill="#CECECE"/>
<path d="M412.224 584.924C415.987 584.924 419.038 581.874 419.038 578.111C419.038 574.348 415.987 571.298 412.224 571.298C408.462 571.298 405.411 574.348 405.411 578.111C405.411 581.874 408.462 584.924 412.224 584.924Z" fill="#CECECE"/>
<path d="M756.001 337.384H486C484.674 337.382 483.404 336.855 482.466 335.918C481.529 334.98 481.002 333.71 481 332.384V265.408C481.002 264.083 481.529 262.812 482.466 261.875C483.404 260.937 484.674 260.41 486 260.408H756.001C757.326 260.41 758.597 260.937 759.534 261.875C760.472 262.812 760.999 264.083 761.001 265.408V332.384C760.999 333.71 760.472 334.98 759.534 335.918C758.597 336.855 757.326 337.382 756.001 337.384ZM486 262.408C485.205 262.409 484.442 262.726 483.88 263.288C483.317 263.851 483.001 264.613 483 265.408V332.384C483.001 333.179 483.317 333.942 483.88 334.504C484.442 335.067 485.205 335.383 486 335.384H756.001C756.796 335.383 757.558 335.067 758.121 334.504C758.683 333.942 759 333.179 759.001 332.384V265.408C759 264.613 758.683 263.851 758.121 263.288C757.558 262.726 756.796 262.409 756.001 262.408H486Z" fill="#CECECE"/>
<path d="M521 319.896C532.598 319.896 542 310.494 542 298.896C542 287.298 532.598 277.896 521 277.896C509.402 277.896 500 287.298 500 298.896C500 310.494 509.402 319.896 521 319.896Z" fill="#6C63FF"/>
<path d="M569.5 284.896C568.572 284.896 567.682 285.264 567.025 285.921C566.369 286.577 566 287.467 566 288.396C566 289.324 566.369 290.214 567.025 290.871C567.682 291.527 568.572 291.896 569.5 291.896H662.5C663.428 291.896 664.319 291.527 664.975 290.871C665.631 290.214 666 289.324 666 288.396C666 287.467 665.631 286.577 664.975 285.921C664.319 285.264 663.428 284.896 662.5 284.896H569.5Z" fill="#CECECE"/>
<path d="M569.5 305.896C568.572 305.896 567.682 306.264 567.025 306.921C566.369 307.577 566 308.467 566 309.396C566 310.324 566.369 311.214 567.025 311.871C567.682 312.527 568.572 312.896 569.5 312.896H734.5C735.428 312.896 736.319 312.527 736.975 311.871C737.631 311.214 738 310.324 738 309.396C738 308.467 737.631 307.577 736.975 306.921C736.319 306.264 735.428 305.896 734.5 305.896H569.5Z" fill="#CECECE"/>
<path d="M409 473.384H139C137.674 473.382 136.404 472.855 135.466 471.918C134.529 470.98 134.002 469.71 134 468.384V401.408C134.002 400.083 134.529 398.812 135.466 397.875C136.404 396.937 137.674 396.41 139 396.408H409C410.326 396.41 411.597 396.937 412.534 397.875C413.472 398.812 413.999 400.083 414 401.408V468.384C413.999 469.71 413.472 470.98 412.534 471.918C411.597 472.855 410.326 473.382 409 473.384ZM139 398.408C138.205 398.409 137.442 398.726 136.88 399.288C136.317 399.851 136.001 400.613 136 401.408V468.384C136.001 469.179 136.317 469.942 136.88 470.504C137.442 471.067 138.205 471.383 139 471.384H409C409.796 471.383 410.558 471.067 411.121 470.504C411.683 469.942 412 469.179 412 468.384V401.408C412 400.613 411.683 399.851 411.121 399.288C410.558 398.726 409.796 398.409 409 398.408H139Z" fill="#CECECE"/>
<path d="M174 455.896C185.598 455.896 195 446.494 195 434.896C195 423.298 185.598 413.896 174 413.896C162.402 413.896 153 423.298 153 434.896C153 446.494 162.402 455.896 174 455.896Z" fill="#6C63FF"/>
<path d="M222.5 420.896C221.572 420.896 220.681 421.265 220.025 421.921C219.369 422.577 219 423.467 219 424.396C219 425.324 219.369 426.214 220.025 426.871C220.681 427.527 221.572 427.896 222.5 427.896H319.5C320.428 427.896 321.319 427.527 321.975 426.871C322.631 426.214 323 425.324 323 424.396C323 423.467 322.631 422.577 321.975 421.921C321.319 421.265 320.428 420.896 319.5 420.896H222.5Z" fill="#CECECE"/>
<path d="M222.5 441.896C221.572 441.896 220.681 442.265 220.025 442.921C219.369 443.577 219 444.467 219 445.396C219 446.324 219.369 447.214 220.025 447.871C220.681 448.527 221.572 448.896 222.5 448.896H387.5C388.428 448.896 389.319 448.527 389.975 447.871C390.631 447.214 391 446.324 391 445.396C391 444.467 390.631 443.577 389.975 442.921C389.319 442.265 388.428 441.896 387.5 441.896H222.5Z" fill="#CECECE"/>
<path d="M653 620.384H383C381.674 620.382 380.404 619.855 379.466 618.918C378.529 617.98 378.002 616.71 378 615.384V548.408C378.002 547.083 378.529 545.812 379.466 544.875C380.404 543.937 381.674 543.41 383 543.408H653C654.326 543.41 655.597 543.937 656.534 544.875C657.472 545.812 657.999 547.083 658 548.408V615.384C657.999 616.71 657.472 617.98 656.534 618.918C655.597 619.855 654.326 620.382 653 620.384ZM383 545.408C382.205 545.409 381.442 545.726 380.88 546.288C380.317 546.851 380.001 547.613 380 548.408V615.384C380.001 616.179 380.317 616.942 380.88 617.504C381.442 618.067 382.205 618.383 383 618.384H653C653.796 618.383 654.558 618.067 655.121 617.504C655.683 616.942 656 616.179 656 615.384V548.408C656 547.613 655.683 546.851 655.121 546.288C654.558 545.726 653.796 545.409 653 545.408H383Z" fill="#E6E6E6"/>
<path d="M418 602.896C429.598 602.896 439 593.494 439 581.896C439 570.298 429.598 560.896 418 560.896C406.402 560.896 397 570.298 397 581.896C397 593.494 406.402 602.896 418 602.896Z" fill="#6C63FF"/>
<path d="M466.5 567.896C465.572 567.896 464.682 568.265 464.025 568.921C463.369 569.578 463 570.468 463 571.396C463 572.324 463.369 573.215 464.025 573.871C464.682 574.527 465.572 574.896 466.5 574.896H555.5C556.428 574.896 557.319 574.527 557.975 573.871C558.631 573.215 559 572.324 559 571.396C559 570.468 558.631 569.578 557.975 568.921C557.319 568.265 556.428 567.896 555.5 567.896H466.5Z" fill="#CECECE"/>
<path d="M466.5 588.896C465.572 588.896 464.682 589.265 464.025 589.921C463.369 590.578 463 591.468 463 592.396C463 593.324 463.369 594.215 464.025 594.871C464.682 595.527 465.572 595.896 466.5 595.896H631.5C632.428 595.896 633.319 595.527 633.975 594.871C634.631 594.215 635 593.324 635 592.396C635 591.468 634.631 590.578 633.975 589.921C633.319 589.265 632.428 588.896 631.5 588.896H466.5Z" fill="#CECECE"/>
<path d="M798.25 603.398C786.524 638.575 738.555 601.266 738.555 601.266L751.346 468.019C770.534 453.095 790.788 465.887 790.788 465.887L798.25 603.398Z" fill="#CECECE"/>
<path d="M795.731 721.458L812.076 721.63L807.993 768.745L795.733 768.746L795.731 721.458Z" fill="#FFB8B8"/>
<path d="M792.605 764.742H816.749C820.829 764.747 824.74 766.37 827.624 769.254C830.509 772.139 832.132 776.05 832.136 780.129V780.629H792.605V764.742Z" fill="#2F2E41"/>
<path d="M751.421 721.458L733.327 721.457L739.159 768.745L751.419 768.746L751.421 721.458Z" fill="#FFB8B8"/>
<path d="M715.015 780.629V780.129C715.015 776.048 716.636 772.134 719.522 769.249C722.407 766.363 726.321 764.742 730.402 764.742L754.546 764.743L754.545 780.631L715.015 780.629Z" fill="#2F2E41"/>
<path d="M794.627 760.584L773.214 635.761L753.375 758.975L733.274 760.092L727.914 595.006L728.318 594.915C731.641 594.171 809.855 576.993 822.677 601.568L822.742 601.692L812.04 761.145L794.627 760.584Z" fill="#2F2E41"/>
<path d="M771.934 452.404C785.499 452.404 796.495 441.407 796.495 427.843C796.495 414.278 785.499 403.281 771.934 403.281C758.369 403.281 747.373 414.278 747.373 427.843C747.373 441.407 758.369 452.404 771.934 452.404Z" fill="#FFB8B8"/>
<path d="M792.567 613.925C789.688 613.127 787.614 609.821 786.038 603.519C785.767 602.433 760.266 493.808 781.831 474.128L786.802 460.32L793.605 464.855C796.012 464.877 820.626 465.5 822.729 481.278C824.789 496.721 830.395 600.191 824.76 606.627C824.649 606.768 824.509 606.884 824.349 606.965C824.188 607.046 824.012 607.091 823.833 607.096C818.122 607.096 816.388 600.759 815.981 598.74C814.623 599.302 810.579 601.369 803.933 608.015C799.816 612.133 796.587 614.106 793.92 614.106C793.463 614.107 793.008 614.046 792.567 613.925Z" fill="#2F2E41"/>
<path d="M739.267 608.015C732.619 601.367 728.574 599.301 727.218 598.74C726.811 600.759 725.078 607.096 719.367 607.096C719.187 607.091 719.011 607.046 718.851 606.965C718.691 606.884 718.55 606.768 718.44 606.627C712.805 600.191 718.411 496.721 720.47 481.278C722.574 465.5 747.188 464.877 749.595 464.855L756.397 460.32L761.368 474.128C782.932 493.806 757.433 602.433 757.161 603.519C755.586 609.821 753.511 613.127 750.632 613.925C750.192 614.046 749.736 614.107 749.279 614.106C746.612 614.106 743.384 612.132 739.267 608.015Z" fill="#2F2E41"/>
<path d="M792.212 441.872C796.367 438.883 799.513 434.7 801.233 429.88C802.953 425.059 803.164 419.829 801.839 414.885C800.513 409.942 797.715 405.519 793.814 402.204C789.914 398.89 785.097 396.842 780.004 396.332C777.743 396.106 775.308 396.14 773.433 394.855C771.768 393.715 770.871 391.736 769.34 390.42C768.368 389.668 767.251 389.125 766.06 388.824C764.868 388.524 763.627 388.472 762.414 388.674C759.994 389.091 757.648 389.862 755.452 390.961C750.006 393.39 744.216 396.378 741.738 401.801C739.591 406.499 740.539 412.292 743.578 416.469C746.773 420.602 751.432 423.353 756.594 424.154C761.726 424.921 766.967 424.449 771.879 422.778C775.12 421.758 778.321 420.368 781.717 420.254C784.368 420.166 786.985 420.868 789.236 422.271C791.487 423.674 793.27 425.715 794.357 428.134C795.445 430.553 795.788 433.241 795.344 435.856C794.9 438.471 793.688 440.894 791.862 442.818" fill="#2F2E41"/>
<path d="M658.341 587.981C659.759 587.948 661.157 587.637 662.455 587.064C663.752 586.49 664.924 585.668 665.903 584.642C666.883 583.616 667.651 582.407 668.163 581.084C668.675 579.762 668.922 578.351 668.889 576.933L683.212 552.767L672.146 542.621L657.058 566.431C654.274 566.699 651.702 568.036 649.884 570.161C648.066 572.286 647.143 575.033 647.309 577.825C647.475 580.617 648.718 583.235 650.776 585.13C652.833 587.024 655.545 588.046 658.341 587.981Z" fill="#FFB8B8"/>
<path d="M824.514 614.456C825.703 613.681 826.727 612.68 827.528 611.51C828.329 610.34 828.892 609.023 829.185 607.635C829.477 606.247 829.493 604.815 829.232 603.421C828.971 602.027 828.438 600.698 827.664 599.509L827.115 571.423L812.365 568.625L812.076 596.811C809.85 598.505 808.368 600.995 807.941 603.759C807.514 606.523 808.176 609.345 809.788 611.631C811.399 613.917 813.834 615.489 816.581 616.015C819.327 616.542 822.171 615.983 824.514 614.456Z" fill="#FFB8B8"/>
<path d="M662.698 549.124L662.531 548.858L662.697 548.592C684.18 514.094 729.276 470.999 729.729 470.568L729.871 470.432L735.441 470.375L741.462 485.375C739.588 488.981 689.066 559.485 682.395 564.161C681.864 564.529 681.262 564.78 680.627 564.9C679.992 565.02 679.339 565.004 678.711 564.855C677.599 564.599 676.541 564.148 675.586 563.524C669.43 559.711 663.013 549.623 662.698 549.124Z" fill="#2F2E41"/>
<path d="M809.558 588.491C808.959 588.286 808.41 587.96 807.944 587.532C807.478 587.105 807.106 586.585 806.851 586.006C803.635 578.501 817.42 483.704 818.009 479.672L818.12 478.909L822.78 481.863L822.826 482.064C822.964 482.669 836.539 543.061 832.859 583.19L832.833 583.477L832.571 583.598C832.011 583.858 820.703 589.051 813.167 589.051C811.94 589.083 810.718 588.893 809.558 588.491Z" fill="#2F2E41"/>
<path d="M902.411 781.375H636.411C636.146 781.375 635.892 781.269 635.704 781.082C635.516 780.894 635.411 780.64 635.411 780.375C635.411 780.11 635.516 779.855 635.704 779.668C635.892 779.48 636.146 779.375 636.411 779.375H902.411C902.676 779.375 902.931 779.48 903.118 779.668C903.306 779.855 903.411 780.11 903.411 780.375C903.411 780.64 903.306 780.894 903.118 781.082C902.931 781.269 902.676 781.375 902.411 781.375Z" fill="#E6E6E6"/>
</g>
<defs>
<filter id="filter0_f_2104_4286" x="0.557373" y="0.557373" width="1036.89" height="1036.89" filterUnits="userSpaceOnUse" color-interpolation-filters="sRGB">
<feFlood flood-opacity="0" result="BackgroundImageFix"/>
<feBlend mode="normal" in="SourceGraphic" in2="BackgroundImageFix" result="shape"/>
<feGaussianBlur stdDeviation="121.721" result="effect1_foregroundBlur_2104_4286"/>
</filter>
<linearGradient id="paint0_linear_2104_4286" x1="244" y1="244" x2="907.731" y2="530.766" gradientUnits="userSpaceOnUse">
<stop stop-color="#1DE1EE"/>
<stop offset="0.493582" stop-color="#8B43FE"/>
<stop offset="1" stop-color="#E50CEA"/>
</linearGradient>
<clipPath id="clip0_2104_4286">
<rect width="769.411" height="524.375" fill="white" transform="translate(134 257)"/>
</clipPath>
</defs>
</svg>
