<svg width="1038" height="1038" viewBox="0 0 1038 1038" fill="none" xmlns="http://www.w3.org/2000/svg">
<g opacity="0.6" filter="url(#filter0_f_2104_4150)">
<circle cx="519" cy="519" r="275" fill="url(#paint0_linear_2104_4150)"/>
</g>
<g clip-path="url(#clip0_2104_4150)">
<path d="M676.741 648.697H271.805C268.197 648.693 264.738 647.258 262.187 644.707C259.636 642.155 258.2 638.696 258.196 635.088V305.365C258.2 301.757 259.636 298.298 262.187 295.747C264.738 293.196 268.197 291.761 271.805 291.756H676.741C680.349 291.761 683.808 293.196 686.359 295.747C688.911 298.298 690.346 301.757 690.35 305.365V635.088C690.346 638.696 688.911 642.155 686.359 644.707C683.808 647.258 680.349 648.693 676.741 648.697Z" fill="#CECECE"/>
<path d="M280.987 301.443C277.511 301.447 274.179 302.829 271.722 305.287C269.264 307.745 267.882 311.077 267.878 314.552V625.909C267.882 629.385 269.264 632.716 271.722 635.174C274.18 637.631 277.511 639.014 280.987 639.018H558.149C590.633 638.981 621.775 626.061 644.744 603.091C667.713 580.122 680.634 548.98 680.67 516.497V314.552C680.667 311.077 679.284 307.745 676.827 305.287C674.369 302.829 671.037 301.447 667.562 301.443L280.987 301.443Z" fill="#242424"/>
<path d="M602.9 441.474H529.475C527.944 441.472 526.476 440.863 525.393 439.78C524.31 438.697 523.701 437.229 523.699 435.698V399.153C523.701 397.622 524.31 396.154 525.393 395.071C526.476 393.988 527.944 393.379 529.475 393.377H602.9C604.431 393.379 605.899 393.988 606.982 395.071C608.065 396.154 608.674 397.622 608.676 399.153C613.219 412.086 613.864 424.374 608.676 435.698C608.674 437.229 608.065 438.698 606.982 439.78C605.899 440.863 604.431 441.472 602.9 441.474Z" fill="#CECECE"/>
<path d="M594.202 437.942H531.82C530.519 437.941 529.272 437.423 528.352 436.503C527.432 435.583 526.915 434.336 526.913 433.035V401.986C526.915 400.685 527.432 399.438 528.352 398.518C529.272 397.598 530.519 397.08 531.82 397.079H594.202C595.503 397.08 596.75 397.598 597.67 398.518C598.59 399.438 599.108 400.685 599.109 401.986C603.319 413.044 603.997 423.507 599.109 433.035C599.108 434.336 598.59 435.583 597.67 436.503C596.75 437.423 595.503 437.941 594.202 437.942Z" fill="#242424"/>
<path d="M590.837 460.617H541.375C539.92 460.619 538.524 460.043 537.494 459.016C536.463 457.989 535.883 456.595 535.88 455.14C535.877 453.685 536.452 452.288 537.479 451.257C538.506 450.226 539.9 449.645 541.355 449.642H590.837C592.291 449.645 593.684 450.224 594.711 451.253C595.738 452.282 596.314 453.676 596.314 455.129C596.314 456.583 595.738 457.977 594.711 459.006C593.684 460.035 592.291 460.614 590.837 460.617Z" fill="#CECECE"/>
<path d="M557.581 405.462C557.012 405.464 556.467 405.692 556.065 406.094C555.663 406.497 555.437 407.042 555.436 407.611V430.872C555.435 431.247 555.534 431.617 555.721 431.942C555.909 432.268 556.178 432.538 556.503 432.727C556.828 432.916 557.196 433.016 557.572 433.017C557.948 433.019 558.317 432.922 558.643 432.736L579.174 421.029C579.504 420.841 579.779 420.569 579.969 420.241C580.159 419.912 580.259 419.539 580.258 419.159C580.257 418.78 580.155 418.407 579.963 418.08C579.771 417.752 579.495 417.482 579.164 417.296L558.634 405.741C558.313 405.559 557.95 405.463 557.581 405.462Z" fill="#CECECE"/>
<path d="M857.114 752.364C855.982 750.924 854.444 749.857 852.699 749.299C850.954 748.741 849.082 748.719 847.325 749.235L846.94 749.349L843.493 762.808C842.977 760.802 841.872 756.274 841.175 751.842L841.115 751.475L840.773 751.626C837.169 753.218 833.781 755.261 830.689 757.703C825.212 762.097 820.757 767.631 817.634 773.92C814.511 780.209 812.795 787.103 812.606 794.122L812.6 794.38L812.594 794.542L813.05 794.38L822.846 790.879C827.182 791.261 831.55 790.67 835.629 789.149C839.708 787.628 843.396 785.215 846.424 782.087C850.382 777.913 853.096 772.544 855.721 767.349C856.49 765.835 857.276 764.274 858.081 762.772C858.979 761.139 859.367 759.275 859.194 757.42C859.022 755.565 858.297 753.804 857.114 752.364Z" fill="#F2F2F2"/>
<path d="M606.97 409.146C607.167 410.165 607.584 411.128 608.194 411.968C608.803 412.808 609.589 413.505 610.496 414.008C611.403 414.511 612.41 414.81 613.445 414.882C614.48 414.954 615.518 414.799 616.487 414.426L645.762 448.482L649.468 435.91L620.445 404.753C619.711 403.167 618.422 401.906 616.82 401.207C615.219 400.509 613.417 400.423 611.756 400.964C610.095 401.506 608.69 402.638 607.808 404.146C606.926 405.654 606.628 407.433 606.97 409.146Z" fill="#FFB8B8"/>
<path d="M724.955 786.239H715.267L710.658 748.87H724.957L724.955 786.239Z" fill="#FFB6B6"/>
<path d="M724.696 783.075L714.352 778.867L714.056 778.746L708.345 783.075C705.12 783.075 702.028 784.356 699.747 786.637C697.467 788.917 696.186 792.009 696.186 795.234V795.629H727.423V783.075H724.696Z" fill="#2F2E41"/>
<path d="M794.067 786.239H784.379L779.77 748.87H794.068L794.067 786.239Z" fill="#FFB6B6"/>
<path d="M793.808 783.075L783.464 778.867L783.168 778.746L777.457 783.075C774.232 783.075 771.14 784.356 768.86 786.637C766.58 788.917 765.298 792.009 765.298 795.234V795.629H796.535V783.075H793.808Z" fill="#2F2E41"/>
<path d="M771.202 563.089C771.202 563.089 783.354 575.731 783.354 586.119C783.354 596.506 780.316 610.769 783.354 613.89C786.392 617.012 790.189 620.809 785.632 625.366C781.075 629.923 778.797 632.201 781.835 635.239C784.873 638.277 783.354 691.44 783.354 691.44L799.303 762.831H779.209L753.734 691.44L746.899 632.201L724.794 689.162L727.234 763.443L706.228 762.831L697.533 683.845C697.533 683.845 710.444 608.711 708.166 606.786C705.887 604.86 708.166 600.973 708.166 600.973L714.242 572.203L771.202 563.089Z" fill="#2F2E41"/>
<path d="M747.41 473.456C747.41 473.456 751.542 457.175 732.507 452.507C713.471 447.839 659.057 441.841 659.057 441.841L631.558 412.661L622.24 426.193L653.067 464.502L726.11 479.505L747.41 473.456Z" fill="#E6E6E6"/>
<path d="M626.769 425.196C627.623 424.09 628.291 422.852 628.747 421.531L632.691 411.84L631.667 411.798C630.25 411.531 628.794 411.567 627.392 411.903C625.99 412.239 624.675 412.867 623.533 413.747C622.391 414.626 621.448 415.737 620.765 417.007C620.083 418.276 619.676 419.676 619.572 421.113C619.443 422.357 619.666 423.612 620.216 424.734C620.496 425.291 620.905 425.773 621.407 426.142C621.91 426.51 622.492 426.754 623.107 426.855C623.806 426.892 624.503 426.761 625.14 426.472C625.777 426.183 626.336 425.746 626.769 425.196Z" fill="#CECECE"/>
<path d="M710.363 576.083L708.085 592.599C708.085 592.599 712.642 597.493 714.92 596.881C717.199 596.27 725.553 592.709 725.553 592.709C725.553 592.709 735.426 598.105 740.742 598.716C746.059 599.328 774.159 595.658 774.919 593.823C775.678 591.988 784.505 584.804 784.505 584.804L780.994 563.849L710.363 576.083Z" fill="#CECECE"/>
<path d="M784.359 518.303C784.359 518.303 782.43 534.229 783.949 535.695C785.468 537.153 782.43 546.381 779.392 552.457C776.354 558.532 781.671 559.292 781.671 563.849C781.671 568.406 783.949 585.114 783.949 585.114C783.949 585.114 760.405 586.633 756.608 582.836C752.811 579.038 746.735 582.076 738.381 590.43C730.026 598.784 711.883 591.949 708.085 588.152C704.288 584.354 711.039 570.684 713.318 568.033C715.596 565.383 711.123 568.451 708.845 560.051C706.566 551.652 711.039 552.457 714.837 548.659C718.634 544.862 714.837 538.027 711.799 531.191C708.761 524.356 711.039 473.471 711.039 461.32C711.039 449.168 727.748 447.649 727.748 447.649L734.363 439.333L739.224 433.219L748.747 432.84L748.998 432.832L758.21 432.46L762.684 437.67L772.557 449.168L783.949 451.447C793.063 454.485 790.784 473.471 790.784 473.471L784.359 518.303Z" fill="#E6E6E6"/>
<path d="M748.277 429.545C759.059 429.545 767.8 420.805 767.8 410.023C767.8 399.241 759.059 390.5 748.277 390.5C737.495 390.5 728.755 399.241 728.755 410.023C728.755 420.805 737.495 429.545 748.277 429.545Z" fill="#FFB6B6"/>
<path d="M770.913 403.455C765.543 400.162 766.232 391.552 761.058 388.545C758.486 387.063 755.595 386.224 752.629 386.099C749.664 385.975 746.712 386.568 744.025 387.83C740.381 386.271 736.016 387.515 733.1 390.33C730.185 393.146 728.607 397.299 728.142 401.475C727.806 405.672 728.107 409.895 729.036 414.001C729.325 412.351 729.615 410.702 729.904 409.052L745.295 405.688C743.932 406.912 742.57 408.136 741.207 409.36C748.177 410.947 755.491 409.803 761.644 406.164C768.344 409.168 767.129 415.913 761.248 424.865C763.527 428.663 777.031 407.208 770.913 403.455Z" fill="#2F2E41"/>
<path d="M762.683 437.67C762.639 437.705 762.594 437.738 762.546 437.769C760.937 438.728 759.096 439.227 757.222 439.212C754.771 439.416 752.336 438.653 750.44 437.085C749.445 436.143 745.489 438.133 742.891 439.235C740.167 440.364 737.112 440.399 734.362 439.333L739.223 433.22L747.234 431.443H749.234L758.21 432.46L762.683 437.67Z" fill="#CECECE"/>
<path d="M893.766 796.561L622.016 796.868C621.86 796.869 621.705 796.839 621.56 796.78C621.415 796.721 621.284 796.634 621.173 796.524C621.061 796.414 620.973 796.283 620.912 796.139C620.852 795.995 620.82 795.84 620.819 795.684C620.819 795.527 620.849 795.372 620.908 795.227C620.967 795.083 621.054 794.951 621.164 794.84C621.274 794.729 621.405 794.64 621.549 794.58C621.693 794.519 621.847 794.488 622.004 794.487H622.016L893.766 794.179C894.081 794.181 894.382 794.307 894.604 794.53C894.826 794.753 894.951 795.055 894.951 795.37C894.951 795.685 894.826 795.987 894.604 796.21C894.382 796.433 894.081 796.559 893.766 796.561Z" fill="#CACACA"/>
<path d="M568.383 396.694H566.383V253.651H645.04V255.651H568.383V396.694Z" fill="#E6E6E6"/>
<path d="M706.213 241H653.213C649.765 241 646.458 242.37 644.021 244.808C641.583 247.246 640.213 250.552 640.213 254C640.213 257.448 641.583 260.754 644.021 263.192C646.458 265.63 649.765 267 653.213 267H706.213C709.661 267 712.967 265.63 715.405 263.192C717.843 260.754 719.213 257.448 719.213 254C719.213 250.552 717.843 247.246 715.405 244.808C712.967 242.37 709.661 241 706.213 241Z" fill="#6C63FF"/>
<path d="M566.222 409.78C572.82 409.78 578.168 404.432 578.168 397.834C578.168 391.237 572.82 385.888 566.222 385.888C559.625 385.888 554.276 391.237 554.276 397.834C554.276 404.432 559.625 409.78 566.222 409.78Z" fill="#6C63FF"/>
<path d="M422.272 442.722L474.678 430.595L489.721 427.114C491.603 426.679 490.821 423.782 488.938 424.217L436.532 436.344L421.49 439.826C419.608 440.261 420.39 443.158 422.272 442.722Z" fill="#F2F2F2"/>
<path d="M476.388 411.14L504.443 424.045C505.4 424.376 506.297 424.862 507.098 425.482C507.872 426.241 507.308 426.97 506.676 427.631C504.788 429.394 502.794 431.04 500.705 432.56L488.753 442.277C487.252 443.497 489.369 445.626 490.856 444.417L501.266 435.954L506.471 431.722C507.946 430.523 509.741 429.3 510.333 427.39C511.578 423.377 506.665 421.782 503.934 420.526L491.717 414.906L477.916 408.557C476.176 407.757 474.635 410.334 476.388 411.14Z" fill="#F2F2F2"/>
<path d="M863.541 509.383C858.543 505.995 852.471 504.736 846.536 504.309C839.79 503.941 833.029 503.949 826.284 504.332C819.278 504.61 812.285 505.117 805.307 505.853C798.339 506.591 791.4 507.557 784.491 508.752C778.304 509.715 772.183 511.055 766.16 512.765C760.458 514.342 755.088 516.936 750.308 520.42C746.111 523.576 742.884 527.846 740.993 532.744C739.136 537.339 738.82 542.411 740.093 547.2C740.771 549.527 741.932 551.684 743.501 553.531C745.313 555.557 747.461 557.258 749.849 558.557C754.807 561.388 760.425 563.09 764.909 566.715C766.092 567.663 767.169 568.735 768.124 569.912C768.773 570.823 769.669 571.528 770.707 571.944C771.69 572.287 772.753 572.332 773.762 572.072C774.771 571.813 775.68 571.26 776.376 570.484C777.274 569.255 778.023 567.924 778.606 566.518L780.972 561.954C781.13 561.555 781.328 561.172 781.563 560.813C781.741 560.601 781.424 560.817 781.484 560.762C781.517 560.731 781.586 560.732 781.624 560.708C781.82 560.61 782.024 560.532 782.235 560.473C784.423 559.639 786.621 558.831 788.829 558.049C796.978 555.144 805.226 552.467 813.603 550.299C817.914 549.143 822.287 548.228 826.7 547.559C832.415 546.745 838.218 546.84 843.959 546.283C850.141 545.684 856.52 544.433 861.821 541.029C866.205 538.365 869.581 534.323 871.423 529.536C872.221 527.255 872.495 524.822 872.224 522.42C871.535 516.986 867.985 512.396 863.541 509.383Z" fill="#CECECE"/>
<path d="M853.312 512.437C848.795 509.375 843.308 508.237 837.945 507.851C831.849 507.519 825.739 507.527 819.644 507.873C813.312 508.124 806.994 508.582 800.688 509.247C794.391 509.914 788.12 510.787 781.876 511.867C776.286 512.737 770.754 513.948 765.311 515.493C760.159 516.918 755.306 519.262 750.986 522.41C747.194 525.262 744.277 529.121 742.568 533.548C740.891 537.7 740.605 542.284 741.755 546.611C742.368 548.713 743.418 550.663 744.835 552.332C746.473 554.163 748.413 555.7 750.572 556.874C755.052 559.433 760.128 560.971 764.181 564.246C765.25 565.103 766.224 566.071 767.087 567.135C767.673 567.958 768.483 568.595 769.421 568.971C770.309 569.282 771.27 569.322 772.181 569.087C773.093 568.853 773.915 568.353 774.543 567.652C775.355 566.542 776.031 565.339 776.559 564.068L778.697 559.944C778.84 559.583 779.019 559.237 779.231 558.912C779.391 558.721 779.105 558.916 779.16 558.866C779.19 558.839 779.252 558.839 779.286 558.817C779.463 558.729 779.648 558.658 779.838 558.606C781.815 557.852 783.802 557.121 785.797 556.415C793.161 553.79 800.614 551.371 808.185 549.412C812.08 548.367 816.032 547.54 820.019 546.936C825.185 546.2 830.428 546.285 835.617 545.782C841.203 545.241 846.967 544.11 851.758 541.034C855.719 538.627 858.77 534.975 860.435 530.648C861.156 528.587 861.404 526.389 861.159 524.218C860.536 519.307 857.327 515.16 853.312 512.437Z" fill="#242424"/>
<path d="M843.852 517.967L770.251 531.542C770.04 531.582 769.824 531.58 769.614 531.536C769.405 531.493 769.205 531.408 769.028 531.287C768.851 531.167 768.7 531.012 768.583 530.833C768.465 530.654 768.385 530.453 768.345 530.242C768.306 530.032 768.308 529.815 768.352 529.606C768.397 529.396 768.482 529.197 768.603 529.021C768.724 528.844 768.879 528.693 769.059 528.576C769.239 528.46 769.44 528.379 769.651 528.341L769.66 528.339L843.261 514.764C843.472 514.725 843.687 514.728 843.897 514.773C844.106 514.818 844.304 514.903 844.48 515.024C844.656 515.146 844.807 515.3 844.923 515.48C845.039 515.659 845.119 515.86 845.158 516.07C845.197 516.28 845.194 516.496 845.149 516.705C845.105 516.915 845.019 517.113 844.898 517.289C844.777 517.465 844.622 517.616 844.442 517.732C844.263 517.848 844.062 517.928 843.852 517.967Z" fill="#CECECE"/>
<path d="M845.665 527.796L772.064 541.371C771.854 541.411 771.637 541.409 771.428 541.366C771.218 541.322 771.019 541.237 770.842 541.117C770.665 540.996 770.513 540.842 770.396 540.662C770.279 540.483 770.198 540.282 770.159 540.072C770.119 539.861 770.122 539.645 770.166 539.435C770.21 539.225 770.295 539.027 770.417 538.85C770.538 538.673 770.693 538.522 770.872 538.406C771.052 538.289 771.253 538.209 771.464 538.17L771.473 538.168L845.074 524.593C845.285 524.555 845.501 524.558 845.71 524.602C845.919 524.647 846.117 524.732 846.293 524.854C846.469 524.975 846.62 525.13 846.736 525.309C846.853 525.489 846.932 525.689 846.971 525.899C847.01 526.11 847.007 526.326 846.962 526.535C846.918 526.744 846.832 526.942 846.711 527.118C846.59 527.294 846.435 527.445 846.256 527.561C846.076 527.678 845.876 527.757 845.665 527.796Z" fill="#CECECE"/>
<path d="M782.454 549.618L773.877 551.2C773.453 551.277 773.016 551.182 772.661 550.937C772.307 550.692 772.064 550.317 771.986 549.893C771.908 549.47 772.001 549.032 772.245 548.677C772.488 548.322 772.863 548.077 773.286 547.998L781.863 546.416C782.288 546.339 782.725 546.433 783.08 546.678C783.435 546.923 783.678 547.298 783.756 547.722C783.834 548.146 783.741 548.584 783.497 548.94C783.253 549.295 782.878 549.539 782.454 549.618Z" fill="#CECECE"/>
<path d="M776.24 590.483C779.999 589.79 782.485 586.18 781.791 582.421C781.098 578.662 777.488 576.177 773.729 576.87C769.97 577.563 767.485 581.173 768.178 584.932C768.872 588.691 772.481 591.176 776.24 590.483Z" fill="#D1D3D4"/>
<path d="M395.341 439.622H332.475C329.556 439.619 326.758 438.458 324.695 436.395C322.631 434.331 321.47 431.533 321.467 428.615V387.182C321.47 384.264 322.631 381.466 324.695 379.402C326.758 377.339 329.556 376.178 332.475 376.174H395.341C398.259 376.178 401.057 377.339 403.121 379.402C405.184 381.466 406.345 384.264 406.349 387.182V428.615C406.345 431.533 405.184 434.331 403.121 436.395C401.057 438.458 398.259 439.619 395.341 439.622Z" fill="#CECECE"/>
<path d="M388.432 437.39H333.719C331.179 437.387 328.744 436.377 326.948 434.581C325.152 432.785 324.142 430.35 324.139 427.81V391.751C324.142 389.211 325.152 386.776 326.948 384.98C328.744 383.184 331.179 382.173 333.719 382.17H388.432C390.972 382.173 393.407 383.184 395.203 384.98C396.999 386.776 398.01 389.211 398.013 391.751V427.81C398.01 430.35 396.999 432.785 395.203 434.581C393.407 436.377 390.972 437.387 388.432 437.39Z" fill="#242424"/>
<path d="M404.196 476.951H323.53C323.032 476.95 322.554 476.751 322.202 476.398C321.85 476.045 321.652 475.567 321.652 475.068C321.652 474.57 321.85 474.092 322.202 473.739C322.554 473.386 323.032 473.187 323.53 473.186H404.196C404.694 473.187 405.172 473.386 405.524 473.739C405.876 474.092 406.074 474.57 406.074 475.068C406.074 475.567 405.876 476.045 405.524 476.398C405.172 476.751 404.694 476.95 404.196 476.951Z" fill="#CECECE"/>
<path d="M404.196 466.195H323.53C323.032 466.194 322.554 465.995 322.202 465.643C321.85 465.29 321.652 464.812 321.652 464.313C321.652 463.815 321.85 463.337 322.202 462.984C322.554 462.631 323.032 462.432 323.53 462.431H404.196C404.694 462.432 405.172 462.631 405.524 462.984C405.876 463.337 406.074 463.815 406.074 464.313C406.074 464.812 405.876 465.29 405.524 465.643C405.172 465.995 404.694 466.194 404.196 466.195Z" fill="#CECECE"/>
<path d="M404.195 487.706H323.53C323.03 487.706 322.552 487.508 322.199 487.155C321.846 486.802 321.647 486.323 321.647 485.824C321.647 485.325 321.846 484.846 322.199 484.493C322.552 484.14 323.03 483.942 323.53 483.942H404.195C404.695 483.942 405.173 484.14 405.526 484.493C405.879 484.846 406.078 485.325 406.078 485.824C406.078 486.323 405.879 486.802 405.526 487.155C405.173 487.508 404.695 487.706 404.195 487.706Z" fill="#CECECE"/>
<path d="M404.195 498.462H323.53C323.03 498.462 322.552 498.263 322.199 497.91C321.846 497.557 321.647 497.079 321.647 496.579C321.647 496.08 321.846 495.602 322.199 495.249C322.552 494.896 323.03 494.697 323.53 494.697H404.195C404.695 494.697 405.173 494.896 405.526 495.249C405.879 495.602 406.078 496.08 406.078 496.579C406.078 497.079 405.879 497.557 405.526 497.91C405.173 498.263 404.695 498.462 404.195 498.462Z" fill="#CECECE"/>
<path d="M404.195 509.217H323.53C323.03 509.217 322.552 509.019 322.199 508.666C321.846 508.313 321.647 507.834 321.647 507.335C321.647 506.836 321.846 506.357 322.199 506.004C322.552 505.651 323.03 505.453 323.53 505.453H404.195C404.695 505.453 405.173 505.651 405.526 506.004C405.879 506.357 406.078 506.836 406.078 507.335C406.078 507.834 405.879 508.313 405.526 508.666C405.173 509.019 404.695 509.217 404.195 509.217Z" fill="#CECECE"/>
<path d="M404.196 519.972H323.53C323.032 519.971 322.554 519.772 322.202 519.42C321.85 519.067 321.652 518.589 321.652 518.09C321.652 517.592 321.85 517.114 322.202 516.761C322.554 516.408 323.032 516.209 323.53 516.208H404.196C404.694 516.209 405.172 516.408 405.524 516.761C405.876 517.114 406.074 517.592 406.074 518.09C406.074 518.589 405.876 519.067 405.524 519.42C405.172 519.772 404.694 519.971 404.196 519.972Z" fill="#CECECE"/>
<path d="M359.83 495.306H361.83V572.349H217.173V570.349H359.83V495.306Z" fill="#E6E6E6"/>
<path d="M156 585H209C212.448 585 215.754 583.63 218.192 581.192C220.63 578.754 222 575.448 222 572C222 568.552 220.63 565.246 218.192 562.808C215.754 560.37 212.448 559 209 559H156C152.552 559 149.246 560.37 146.808 562.808C144.37 565.246 143 568.552 143 572C143 575.448 144.37 578.754 146.808 581.192C149.246 583.63 152.552 585 156 585Z" fill="#6C63FF"/>
<path d="M362.222 501.112C368.82 501.112 374.168 495.763 374.168 489.166C374.168 482.568 368.82 477.22 362.222 477.22C355.625 477.22 350.276 482.568 350.276 489.166C350.276 495.763 355.625 501.112 362.222 501.112Z" fill="#6C63FF"/>
<path d="M423.967 492.485C441.506 496.213 437.045 496.94 454.583 500.668L469.686 503.877C471.575 504.279 472.092 501.323 470.202 500.922C452.664 497.194 457.125 496.467 439.587 492.739L424.484 489.529C422.595 489.128 422.077 492.083 423.967 492.485Z" fill="#F2F2F2"/>
<path d="M464.364 483.763L484.324 507.325C485.052 508.03 485.659 508.85 486.122 509.751C486.503 510.766 485.683 511.188 484.831 511.519C482.375 512.318 479.871 512.966 477.335 513.459L462.394 517.207C460.519 517.678 461.536 520.502 463.394 520.036L476.408 516.772L482.914 515.139C484.758 514.677 486.902 514.328 488.247 512.848C491.072 509.739 487.295 506.214 485.353 503.921L476.66 493.66L466.841 482.069C465.603 480.608 463.117 482.291 464.364 483.763Z" fill="#F2F2F2"/>
<path d="M527.652 586.475C542.995 586.475 555.432 574.037 555.432 558.695C555.432 543.352 542.995 530.915 527.652 530.915C512.31 530.915 499.872 543.352 499.872 558.695C499.872 574.037 512.31 586.475 527.652 586.475Z" fill="#CECECE"/>
<path d="M524.945 582.933C536.608 582.933 546.064 573.478 546.064 561.814C546.064 550.15 536.608 540.694 524.945 540.694C513.281 540.694 503.825 550.15 503.825 561.814C503.825 573.478 513.281 582.933 524.945 582.933Z" fill="#242424"/>
<path d="M521.156 576.272C520.676 576.272 520.203 576.161 519.774 575.946C519.345 575.731 518.972 575.42 518.684 575.036L511.105 564.931C510.862 564.606 510.684 564.237 510.583 563.844C510.482 563.451 510.46 563.042 510.517 562.64C510.574 562.238 510.71 561.852 510.917 561.502C511.123 561.153 511.397 560.848 511.721 560.604C512.046 560.361 512.415 560.183 512.808 560.083C513.201 559.982 513.61 559.959 514.012 560.016C514.414 560.074 514.8 560.209 515.15 560.416C515.499 560.622 515.804 560.896 516.048 561.22L516.049 561.223L521.008 567.833L533.743 548.731C533.967 548.393 534.257 548.103 534.594 547.876C534.931 547.65 535.31 547.492 535.708 547.412C536.106 547.333 536.516 547.332 536.915 547.411C537.313 547.489 537.692 547.646 538.03 547.871C538.368 548.096 538.658 548.386 538.884 548.724C539.11 549.061 539.267 549.44 539.347 549.838C539.426 550.237 539.426 550.647 539.347 551.045C539.268 551.443 539.111 551.822 538.885 552.16L523.727 574.896C523.453 575.307 523.084 575.647 522.652 575.886C522.219 576.125 521.736 576.257 521.242 576.271C521.213 576.272 521.185 576.272 521.156 576.272Z" fill="#CECECE"/>
<path d="M787.051 587.313C787.945 586.787 788.713 586.071 789.301 585.216C789.889 584.361 790.283 583.388 790.454 582.364C790.625 581.341 790.569 580.292 790.291 579.293C790.013 578.293 789.519 577.367 788.844 576.578L811.15 537.6L798.062 538.311L778.404 576.083C777.155 577.305 776.398 578.942 776.275 580.685C776.153 582.427 776.674 584.154 777.74 585.538C778.805 586.923 780.342 587.868 782.058 588.195C783.774 588.522 785.55 588.208 787.051 587.313Z" fill="#FFB8B8"/>
<path d="M761.927 450.687C761.927 450.687 785.551 443.093 791.627 461.32C797.703 479.547 818.128 528.913 818.128 528.913L796.184 573.722L786.311 563.089L796.862 531.951L766.484 486.383L761.927 450.687Z" fill="#E6E6E6"/>
<path d="M796.937 569.146C796.226 567.943 795.324 566.863 794.266 565.95L786.728 558.695L786.309 559.63C785.536 560.847 785.029 562.213 784.822 563.639C784.614 565.066 784.71 566.52 785.103 567.907C785.497 569.293 786.179 570.581 787.105 571.686C788.031 572.791 789.18 573.687 790.477 574.317C791.584 574.898 792.832 575.155 794.079 575.061C794.7 575.007 795.299 574.806 795.827 574.476C796.356 574.146 796.799 573.695 797.12 573.161C797.413 572.526 797.55 571.83 797.518 571.131C797.486 570.433 797.287 569.752 796.937 569.146Z" fill="#CECECE"/>
<path d="M527.412 596.068H525.412V673.111H593.069V671.111H527.412V596.068Z" fill="#E6E6E6"/>
<path d="M667.242 672.762C667.239 669.315 665.868 666.011 663.431 663.573C660.994 661.136 657.689 659.766 654.242 659.762H601.242C597.794 659.762 594.488 661.132 592.05 663.57C589.612 666.008 588.242 669.314 588.242 672.762C588.242 676.21 589.612 679.517 592.05 681.955C594.488 684.393 597.794 685.762 601.242 685.762H654.242C657.689 685.759 660.994 684.388 663.431 681.951C665.868 679.514 667.239 676.209 667.242 672.762Z" fill="#6C63FF"/>
<path d="M525.019 601.874C531.617 601.874 536.965 596.525 536.965 589.928C536.965 583.33 531.617 577.982 525.019 577.982C518.422 577.982 513.073 583.33 513.073 589.928C513.073 596.525 518.422 601.874 525.019 601.874Z" fill="#6C63FF"/>
</g>
<defs>
<filter id="filter0_f_2104_4150" x="0.557373" y="0.557373" width="1036.89" height="1036.89" filterUnits="userSpaceOnUse" color-interpolation-filters="sRGB">
<feFlood flood-opacity="0" result="BackgroundImageFix"/>
<feBlend mode="normal" in="SourceGraphic" in2="BackgroundImageFix" result="shape"/>
<feGaussianBlur stdDeviation="121.721" result="effect1_foregroundBlur_2104_4150"/>
</filter>
<linearGradient id="paint0_linear_2104_4150" x1="244" y1="244" x2="907.731" y2="530.766" gradientUnits="userSpaceOnUse">
<stop stop-color="#1DE1EE"/>
<stop offset="0.493582" stop-color="#8B43FE"/>
<stop offset="1" stop-color="#E50CEA"/>
</linearGradient>
<clipPath id="clip0_2104_4150">
<rect width="751.951" height="555.868" fill="white" transform="translate(143 241)"/>
</clipPath>
</defs>
</svg>
