<svg width="452" height="72" viewBox="0 0 452 72" fill="none" xmlns="http://www.w3.org/2000/svg">
<path fill-rule="evenodd" clip-rule="evenodd" d="M0 36C0 55.8822 16.1177 72 36 72H63C67.9706 72 72 67.9706 72 63C72 59.3517 69.8292 56.2104 66.7088 54.7973C70.065 49.3261 72 42.889 72 36C72 16.1177 55.8822 0 36 0C16.1177 0 0 16.1177 0 36ZM36 54C45.9411 54 54 45.9411 54 36C54 26.0589 45.9411 18 36 18C26.0589 18 18 26.0589 18 36C18 45.9411 26.0589 54 36 54Z" fill="url(#paint0_linear_1208_4040)"/>
<path d="M126.957 51.7911L117.697 42.5308C117.224 42.0582 116.988 41.5412 116.988 40.98C116.988 40.3892 117.224 39.8575 117.697 39.3849C118.169 38.9123 118.686 38.676 119.247 38.676C119.838 38.676 120.37 38.9123 120.842 39.3849L130.103 48.6895C130.546 49.1622 130.767 49.6791 130.767 50.2403C130.797 50.8015 130.575 51.3185 130.103 51.7911C129.63 52.2637 129.098 52.5 128.508 52.5C127.946 52.5 127.43 52.2637 126.957 51.7911ZM114.861 52.9431C112.262 52.9431 109.884 52.5148 107.727 51.6582C105.571 50.772 103.71 49.5462 102.145 47.9806C100.609 46.3855 99.4125 44.5098 98.5559 42.3535C97.6993 40.1677 97.271 37.7751 97.271 35.1757C97.271 32.5763 97.6993 30.1985 98.5559 28.0422C99.4125 25.8858 100.609 24.0249 102.145 22.4594C103.71 20.8643 105.571 19.6385 107.727 18.7818C109.884 17.8957 112.262 17.4526 114.861 17.4526C117.46 17.4526 119.823 17.8957 121.95 18.7818C124.106 19.6385 125.967 20.8643 127.533 22.4594C129.098 24.0249 130.31 25.8858 131.166 28.0422C132.023 30.1985 132.451 32.5763 132.451 35.1757C132.451 37.7751 132.023 40.1677 131.166 42.3535C130.31 44.5098 129.098 46.3855 127.533 47.9806C125.967 49.5462 124.106 50.772 121.95 51.6582C119.823 52.5148 117.46 52.9431 114.861 52.9431ZM114.861 48.7782C116.781 48.7782 118.538 48.4385 120.134 47.7591C121.758 47.0502 123.161 46.0902 124.343 44.8791C125.524 43.6385 126.425 42.1911 127.046 40.5369C127.695 38.8828 128.02 37.0957 128.02 35.1757C128.02 33.2557 127.695 31.4686 127.046 29.8145C126.425 28.1603 125.524 26.7277 124.343 25.5166C123.161 24.276 121.758 23.316 120.134 22.6366C118.538 21.9572 116.781 21.6175 114.861 21.6175C112.941 21.6175 111.169 21.9572 109.544 22.6366C107.949 23.316 106.561 24.276 105.379 25.5166C104.227 26.7277 103.326 28.1603 102.676 29.8145C102.026 31.4686 101.702 33.2557 101.702 35.1757C101.702 37.0957 102.026 38.8828 102.676 40.5369C103.326 42.1911 104.227 43.6385 105.379 44.8791C106.561 46.0902 107.949 47.0502 109.544 47.7591C111.169 48.4385 112.941 48.7782 114.861 48.7782ZM142.275 52.5C141.625 52.5 141.078 52.2932 140.635 51.8797C140.222 51.4366 140.015 50.8902 140.015 50.2403V30.5234C140.015 29.844 140.222 29.2975 140.635 28.884C141.078 28.4705 141.625 28.2637 142.275 28.2637C142.954 28.2637 143.5 28.4705 143.914 28.884C144.327 29.2975 144.534 29.844 144.534 30.5234V50.2403C144.534 50.8902 144.327 51.4366 143.914 51.8797C143.5 52.2932 142.954 52.5 142.275 52.5ZM142.275 24.3203C141.477 24.3203 140.783 24.0397 140.192 23.4785C139.631 22.8877 139.35 22.1935 139.35 21.396C139.35 20.5985 139.631 19.9191 140.192 19.3578C140.783 18.7671 141.477 18.4717 142.275 18.4717C143.072 18.4717 143.751 18.7671 144.313 19.3578C144.903 19.9191 145.199 20.5985 145.199 21.396C145.199 22.1935 144.903 22.8877 144.313 23.4785C143.751 24.0397 143.072 24.3203 142.275 24.3203ZM155.592 51.6582L152.579 48.9997L167.644 29.1055L170.612 31.764L155.592 51.6582ZM154.263 52.5C152.875 52.5 152.18 51.8058 152.18 50.4175C152.18 49.0292 152.875 48.3351 154.263 48.3351H169.372C170.76 48.3351 171.454 49.0292 171.454 50.4175C171.454 51.8058 170.76 52.5 169.372 52.5H154.263ZM153.82 32.4286C152.432 32.4286 151.737 31.7345 151.737 30.3462C151.737 28.9578 152.432 28.2637 153.82 28.2637H168.929C170.317 28.2637 171.011 28.9578 171.011 30.3462C171.011 31.7345 170.317 32.4286 168.929 32.4286H153.82ZM180.265 52.5C179.615 52.5 179.069 52.2932 178.626 51.8797C178.212 51.4366 178.005 50.8902 178.005 50.2403V30.5234C178.005 29.844 178.212 29.2975 178.626 28.884C179.069 28.4705 179.615 28.2637 180.265 28.2637C180.944 28.2637 181.491 28.4705 181.904 28.884C182.318 29.2975 182.525 29.844 182.525 30.5234V50.2403C182.525 50.8902 182.318 51.4366 181.904 51.8797C181.491 52.2932 180.944 52.5 180.265 52.5ZM180.265 24.3203C179.467 24.3203 178.773 24.0397 178.182 23.4785C177.621 22.8877 177.341 22.1935 177.341 21.396C177.341 20.5985 177.621 19.9191 178.182 19.3578C178.773 18.7671 179.467 18.4717 180.265 18.4717C181.062 18.4717 181.742 18.7671 182.303 19.3578C182.894 19.9191 183.189 20.5985 183.189 21.396C183.189 22.1935 182.894 22.8877 182.303 23.4785C181.742 24.0397 181.062 24.3203 180.265 24.3203ZM193.893 52.5C193.331 52.5 192.829 52.2932 192.386 51.8797C191.943 51.4662 191.722 50.9197 191.722 50.2403V28.3966C191.722 26.2698 192.135 24.4237 192.962 22.8582C193.819 21.2926 195 20.0815 196.507 19.2249C198.013 18.3388 199.756 17.8957 201.735 17.8957C202.385 17.8957 202.917 18.0877 203.33 18.4717C203.773 18.8557 203.995 19.3431 203.995 19.9338C203.995 20.4951 203.773 20.9825 203.33 21.396C202.917 21.78 202.385 21.972 201.735 21.972C200.642 21.972 199.682 22.2231 198.855 22.7252C198.028 23.2274 197.378 23.9215 196.906 24.8077C196.463 25.6938 196.241 26.7425 196.241 27.9535V50.2403C196.241 50.9197 196.034 51.4662 195.621 51.8797C195.207 52.2932 194.631 52.5 193.893 52.5ZM189.816 32.9603C189.196 32.9603 188.694 32.7831 188.31 32.4286C187.926 32.0742 187.734 31.6311 187.734 31.0994C187.734 30.5086 187.926 30.036 188.31 29.6815C188.694 29.3271 189.196 29.1498 189.816 29.1498H200.76C201.381 29.1498 201.883 29.3271 202.267 29.6815C202.651 30.036 202.843 30.5086 202.843 31.0994C202.843 31.6311 202.651 32.0742 202.267 32.4286C201.883 32.7831 201.381 32.9603 200.76 32.9603H189.816ZM213.621 63.1338C213.325 63.1338 212.971 63.0452 212.557 62.868C211.258 62.2772 210.903 61.3468 211.494 60.0766L225.008 29.5486C225.599 28.308 226.529 27.9535 227.799 28.4852C229.128 29.0465 229.498 29.9769 228.907 31.2766L215.349 61.7603C214.994 62.676 214.418 63.1338 213.621 63.1338ZM218.849 51.5252C218.288 51.7615 217.756 51.7911 217.254 51.6138C216.781 51.4071 216.397 51.0231 216.102 50.4618L205.955 31.188C205.66 30.6268 205.616 30.0951 205.823 29.5929C206.059 29.0612 206.458 28.6772 207.019 28.4409C207.58 28.2046 208.112 28.1898 208.614 28.3966C209.116 28.5738 209.5 28.9431 209.766 29.5043L219.469 48.7782C219.765 49.3394 219.868 49.8858 219.779 50.4175C219.72 50.9197 219.41 51.2889 218.849 51.5252ZM249.301 52.5C248.946 52.5 248.636 52.3818 248.37 52.1455C248.105 51.8797 247.972 51.5548 247.972 51.1708V19.2249C247.972 18.8409 248.105 18.5308 248.37 18.2945C248.636 18.0286 248.946 17.8957 249.301 17.8957C249.685 17.8957 249.995 18.0286 250.231 18.2945C250.497 18.5308 250.63 18.8409 250.63 19.2249V50.1074H268.841C269.254 50.1074 269.579 50.2255 269.815 50.4618C270.052 50.6686 270.17 50.9492 270.17 51.3037C270.17 51.6582 270.052 51.9535 269.815 52.1898C269.579 52.3966 269.254 52.5 268.841 52.5H249.301ZM286.679 52.7215C284.345 52.7215 282.263 52.2046 280.431 51.1708C278.63 50.1074 277.212 48.6452 276.178 46.7843C275.144 44.9234 274.627 42.7966 274.627 40.404C274.627 37.9818 275.115 35.8551 276.089 34.0237C277.064 32.1628 278.408 30.7006 280.121 29.6372C281.835 28.5738 283.799 28.0422 286.014 28.0422C288.2 28.0422 290.135 28.5591 291.819 29.5929C293.502 30.5972 294.817 32.0003 295.762 33.8022C296.707 35.5745 297.18 37.6274 297.18 39.9609C297.18 40.3449 297.062 40.6551 296.825 40.8914C296.589 41.0982 296.279 41.2015 295.895 41.2015H276.399V38.8975H296.604L294.654 40.3597C294.713 38.4397 294.388 36.7412 293.679 35.2643C292.971 33.7874 291.951 32.6354 290.622 31.8083C289.323 30.9517 287.787 30.5234 286.014 30.5234C284.331 30.5234 282.824 30.9517 281.495 31.8083C280.195 32.6354 279.161 33.7874 278.393 35.2643C277.655 36.7412 277.286 38.4545 277.286 40.404C277.286 42.324 277.684 44.0225 278.482 45.4994C279.279 46.9763 280.387 48.1431 281.805 48.9997C283.223 49.8268 284.847 50.2403 286.679 50.2403C287.831 50.2403 288.983 50.0483 290.135 49.6643C291.316 49.2508 292.247 48.7191 292.926 48.0692C293.163 47.8329 293.443 47.7148 293.768 47.7148C294.123 47.6852 294.418 47.7738 294.654 47.9806C294.979 48.2465 295.142 48.5418 295.142 48.8668C295.171 49.1917 295.038 49.4871 294.743 49.7529C293.798 50.6095 292.557 51.3185 291.021 51.8797C289.515 52.4409 288.067 52.7215 286.679 52.7215ZM313.86 52.7658C311.497 52.7658 309.37 52.2342 307.48 51.1708C305.619 50.0778 304.142 48.6009 303.049 46.74C301.986 44.8495 301.454 42.7375 301.454 40.404C301.454 38.0409 301.986 35.9289 303.049 34.068C304.142 32.1775 305.619 30.7006 307.48 29.6372C309.37 28.5443 311.497 27.9978 313.86 27.9978C316.223 27.9978 318.335 28.5443 320.196 29.6372C322.057 30.7006 323.519 32.1775 324.583 34.068C325.676 35.9289 326.222 38.0409 326.222 40.404L325.114 42.1763C325.114 44.1849 324.612 45.9868 323.608 47.5818C322.633 49.1769 321.304 50.4471 319.62 51.3923C317.937 52.308 316.017 52.7658 313.86 52.7658ZM313.86 50.2846C315.721 50.2846 317.375 49.8563 318.823 48.9997C320.3 48.1135 321.452 46.932 322.279 45.4551C323.135 43.9486 323.564 42.2649 323.564 40.404C323.564 38.5135 323.135 36.8298 322.279 35.3529C321.452 33.8465 320.3 32.6649 318.823 31.8083C317.375 30.9222 315.721 30.4791 313.86 30.4791C312.029 30.4791 310.375 30.9222 308.898 31.8083C307.421 32.6649 306.254 33.8465 305.397 35.3529C304.541 36.8298 304.113 38.5135 304.113 40.404C304.113 42.2649 304.541 43.9486 305.397 45.4551C306.254 46.932 307.421 48.1135 308.898 48.9997C310.375 49.8563 312.029 50.2846 313.86 50.2846ZM324.893 52.5C324.509 52.5 324.184 52.3818 323.918 52.1455C323.682 51.8797 323.564 51.5548 323.564 51.1708V43.0625L324.405 40.404H326.222V51.1708C326.222 51.5548 326.104 51.8797 325.868 52.1455C325.631 52.3818 325.306 52.5 324.893 52.5ZM334.434 37.7012C334.611 35.8108 335.128 34.1418 335.985 32.6945C336.841 31.2175 337.949 30.0655 339.308 29.2385C340.667 28.4114 342.173 27.9978 343.827 27.9978C344.95 27.9978 345.821 28.1308 346.441 28.3966C347.062 28.6625 347.298 29.1351 347.15 29.8145C347.062 30.2575 346.855 30.5234 346.53 30.612C346.205 30.7006 345.806 30.7154 345.334 30.6563C344.891 30.5677 344.388 30.5234 343.827 30.5234C342.35 30.5234 341.036 30.8335 339.884 31.4538C338.732 32.0742 337.831 32.9308 337.181 34.0237C336.531 35.0871 336.206 36.3129 336.206 37.7012H334.434ZM334.877 52.5C334.493 52.5 334.168 52.3818 333.902 52.1455C333.666 51.8797 333.548 51.5548 333.548 51.1708V29.5929C333.548 29.1794 333.666 28.8545 333.902 28.6182C334.168 28.3818 334.493 28.2637 334.877 28.2637C335.291 28.2637 335.615 28.3818 335.852 28.6182C336.088 28.8545 336.206 29.1794 336.206 29.5929V51.1708C336.206 51.5548 336.088 51.8797 335.852 52.1455C335.615 52.3818 335.291 52.5 334.877 52.5ZM374.625 52.5C374.241 52.5 373.917 52.3818 373.651 52.1455C373.414 51.8797 373.296 51.5548 373.296 51.1708V39.252C373.296 37.3025 372.912 35.6926 372.144 34.4225C371.406 33.1523 370.387 32.2071 369.087 31.5868C367.817 30.9369 366.369 30.612 364.745 30.612C363.15 30.612 361.717 30.9222 360.447 31.5425C359.177 32.1332 358.173 32.9603 357.434 34.0237C356.696 35.0871 356.326 36.2834 356.326 37.6126H354.111C354.229 35.7812 354.776 34.1418 355.75 32.6945C356.725 31.2175 357.995 30.0655 359.561 29.2385C361.126 28.3818 362.854 27.9535 364.745 27.9535C366.872 27.9535 368.777 28.3966 370.461 29.2828C372.174 30.1394 373.518 31.4095 374.493 33.0932C375.467 34.7474 375.955 36.8003 375.955 39.252V51.1708C375.955 51.5548 375.822 51.8797 375.556 52.1455C375.32 52.3818 375.01 52.5 374.625 52.5ZM354.997 52.5C354.613 52.5 354.288 52.3818 354.022 52.1455C353.786 51.8797 353.668 51.5548 353.668 51.1708V29.5929C353.668 29.1794 353.786 28.8545 354.022 28.6182C354.288 28.3818 354.613 28.2637 354.997 28.2637C355.411 28.2637 355.736 28.3818 355.972 28.6182C356.208 28.8545 356.326 29.1794 356.326 29.5929V51.1708C356.326 51.5548 356.208 51.8797 355.972 52.1455C355.736 52.3818 355.411 52.5 354.997 52.5ZM386.388 52.5C386.004 52.5 385.679 52.3818 385.413 52.1455C385.177 51.8797 385.059 51.5548 385.059 51.1708V29.5929C385.059 29.1794 385.177 28.8545 385.413 28.6182C385.679 28.3818 386.004 28.2637 386.388 28.2637C386.802 28.2637 387.127 28.3818 387.363 28.6182C387.599 28.8545 387.717 29.1794 387.717 29.5929V51.1708C387.717 51.5548 387.599 51.8797 387.363 52.1455C387.127 52.3818 386.802 52.5 386.388 52.5ZM386.344 23.1683C385.783 23.1683 385.295 22.9763 384.882 22.5923C384.498 22.1788 384.306 21.6766 384.306 21.0858C384.306 20.4065 384.512 19.9043 384.926 19.5794C385.369 19.2249 385.856 19.0477 386.388 19.0477C386.89 19.0477 387.348 19.2249 387.762 19.5794C388.205 19.9043 388.426 20.4065 388.426 21.0858C388.426 21.6766 388.22 22.1788 387.806 22.5923C387.422 22.9763 386.935 23.1683 386.344 23.1683ZM418.241 52.5C417.857 52.5 417.532 52.3818 417.266 52.1455C417.03 51.8797 416.912 51.5548 416.912 51.1708V39.252C416.912 37.3025 416.528 35.6926 415.76 34.4225C415.021 33.1523 414.002 32.2071 412.702 31.5868C411.432 30.9369 409.985 30.612 408.36 30.612C406.765 30.612 405.333 30.9222 404.062 31.5425C402.792 32.1332 401.788 32.9603 401.05 34.0237C400.311 35.0871 399.942 36.2834 399.942 37.6126H397.726C397.845 35.7812 398.391 34.1418 399.366 32.6945C400.341 31.2175 401.611 30.0655 403.176 29.2385C404.742 28.3818 406.47 27.9535 408.36 27.9535C410.487 27.9535 412.392 28.3966 414.076 29.2828C415.789 30.1394 417.133 31.4095 418.108 33.0932C419.083 34.7474 419.57 36.8003 419.57 39.252V51.1708C419.57 51.5548 419.437 51.8797 419.171 52.1455C418.935 52.3818 418.625 52.5 418.241 52.5ZM398.613 52.5C398.229 52.5 397.904 52.3818 397.638 52.1455C397.402 51.8797 397.283 51.5548 397.283 51.1708V29.5929C397.283 29.1794 397.402 28.8545 397.638 28.6182C397.904 28.3818 398.229 28.2637 398.613 28.2637C399.026 28.2637 399.351 28.3818 399.587 28.6182C399.824 28.8545 399.942 29.1794 399.942 29.5929V51.1708C399.942 51.5548 399.824 51.8797 399.587 52.1455C399.351 52.3818 399.026 52.5 398.613 52.5ZM438.865 52.7658C436.443 52.7658 434.301 52.2342 432.44 51.1708C430.58 50.1074 429.117 48.6452 428.054 46.7843C426.991 44.9234 426.459 42.7966 426.459 40.404C426.459 37.9818 427.005 35.8403 428.098 33.9794C429.191 32.1185 430.668 30.6563 432.529 29.5929C434.42 28.5295 436.532 27.9978 438.865 27.9978C441.287 27.9978 443.414 28.5295 445.245 29.5929C447.106 30.6563 448.568 32.1185 449.632 33.9794C450.695 35.8403 451.227 37.9818 451.227 40.404L449.676 42.1763C449.676 44.244 449.218 46.0754 448.303 47.6705C447.387 49.2655 446.117 50.5209 444.492 51.4366C442.868 52.3228 440.992 52.7658 438.865 52.7658ZM439.042 61.7603C436.591 61.7603 434.493 61.3025 432.751 60.3868C431.037 59.4711 429.62 58.3043 428.497 56.8865C428.261 56.5911 428.143 56.2809 428.143 55.956C428.143 55.6311 428.29 55.3652 428.586 55.1585C428.881 54.9222 429.221 54.8335 429.605 54.8926C430.018 54.9517 430.328 55.1437 430.535 55.4686C431.451 56.5615 432.618 57.4625 434.036 58.1714C435.453 58.9098 437.122 59.2791 439.042 59.2791C440.874 59.2791 442.498 58.836 443.916 57.9498C445.364 57.0637 446.501 55.8378 447.328 54.2723C448.155 52.7363 448.568 51.0083 448.568 49.0883V42.0434L449.765 40.404H451.227V49.0883C451.227 51.4809 450.695 53.6372 449.632 55.5572C448.568 57.4772 447.121 58.9837 445.29 60.0766C443.458 61.1991 441.376 61.7603 439.042 61.7603ZM438.865 50.2846C440.756 50.2846 442.424 49.8711 443.872 49.044C445.349 48.1874 446.501 47.0206 447.328 45.5437C448.155 44.0372 448.568 42.324 448.568 40.404C448.568 38.4545 448.155 36.7412 447.328 35.2643C446.501 33.7578 445.349 32.5911 443.872 31.764C442.424 30.9074 440.756 30.4791 438.865 30.4791C436.975 30.4791 435.291 30.9074 433.814 31.764C432.337 32.5911 431.185 33.7578 430.358 35.2643C429.531 36.7412 429.117 38.4545 429.117 40.404C429.117 42.324 429.531 44.0372 430.358 45.5437C431.185 47.0206 432.337 48.1874 433.814 49.044C435.291 49.8711 436.975 50.2846 438.865 50.2846Z" fill="white"/>
<path d="M126.957 51.7911L126.467 52.2806L126.957 51.7911ZM117.697 42.5308L118.186 42.0412L117.697 42.5308ZM117.697 39.3849L118.186 39.8745L117.697 39.3849ZM120.842 39.3849L121.333 38.8966L121.332 38.8954L120.842 39.3849ZM130.103 48.6895L130.608 48.216L130.601 48.2085L130.593 48.2012L130.103 48.6895ZM130.767 50.2403H130.075V50.2585L130.076 50.2767L130.767 50.2403ZM130.103 51.7911L130.592 52.2806L130.103 51.7911ZM107.727 51.6582L107.464 52.2985L107.472 52.3016L107.727 51.6582ZM102.145 47.9806L101.646 48.4609L101.655 48.4702L102.145 47.9806ZM98.5559 42.3535L97.9113 42.6061L97.9125 42.6091L98.5559 42.3535ZM98.5559 28.0422L97.9125 27.7866L98.5559 28.0422ZM102.145 22.4594L101.651 21.9744L101.65 21.9745L102.145 22.4594ZM107.727 18.7818L107.983 19.4253L107.991 19.4222L107.727 18.7818ZM121.95 18.7818L121.684 19.421L121.695 19.4252L121.95 18.7818ZM127.533 22.4594L127.039 22.9443L127.043 22.9489L127.533 22.4594ZM131.166 28.0422L131.81 27.7866L131.166 28.0422ZM131.166 42.3535L131.81 42.6091L131.811 42.6061L131.166 42.3535ZM127.533 47.9806L128.022 48.4702L128.027 48.4656L127.533 47.9806ZM121.95 51.6582L122.209 52.3003L122.213 52.2985L121.95 51.6582ZM120.134 47.7591L120.405 48.396L120.41 48.3936L120.134 47.7591ZM124.343 44.8791L124.838 45.3626L124.844 45.3565L124.343 44.8791ZM127.046 40.5369L126.401 40.2837L126.397 40.2938L127.046 40.5369ZM127.046 29.8145L126.397 30.0576L126.401 30.0676L127.046 29.8145ZM124.343 25.5166L123.841 25.9941L123.847 26.0001L124.343 25.5166ZM120.134 22.6366L119.862 23.2736L119.866 23.2753L120.134 22.6366ZM109.544 22.6366L109.277 21.9979L109.273 21.9997L109.544 22.6366ZM105.379 25.5166L104.878 25.0392L104.877 25.0395L105.379 25.5166ZM105.379 44.8791L104.872 45.3502L104.878 45.3564L104.884 45.3625L105.379 44.8791ZM109.544 47.7591L109.263 48.3917L109.27 48.3948L109.277 48.3978L109.544 47.7591ZM127.446 51.3015L118.186 42.0412L117.207 43.0203L126.467 52.2806L127.446 51.3015ZM118.186 42.0412C117.817 41.6719 117.68 41.3231 117.68 40.98H116.295C116.295 41.7593 116.631 42.4445 117.207 43.0203L118.186 42.0412ZM117.68 40.98C117.68 40.5976 117.825 40.2358 118.186 39.8745L117.207 38.8954C116.623 39.4792 116.295 40.1809 116.295 40.98H117.68ZM118.186 39.8745C118.556 39.5051 118.904 39.3683 119.247 39.3683V37.9837C118.468 37.9837 117.783 38.3195 117.207 38.8954L118.186 39.8745ZM119.247 39.3683C119.63 39.3683 119.992 39.5131 120.353 39.8745L121.332 38.8954C120.748 38.3115 120.046 37.9837 119.247 37.9837V39.3683ZM120.352 39.8733L129.612 49.1779L130.593 48.2012L121.333 38.8966L120.352 39.8733ZM129.598 49.163C129.94 49.5286 130.075 49.8821 130.075 50.2403H131.46C131.46 49.4761 131.151 48.7957 130.608 48.216L129.598 49.163ZM130.076 50.2767C130.093 50.6048 129.976 50.939 129.613 51.3015L130.592 52.2806C131.175 51.6979 131.501 50.9983 131.459 50.2039L130.076 50.2767ZM129.613 51.3015C129.252 51.6629 128.89 51.8077 128.508 51.8077V53.1923C129.307 53.1923 130.008 52.8645 130.592 52.2806L129.613 51.3015ZM128.508 51.8077C128.165 51.8077 127.816 51.6709 127.446 51.3015L126.467 52.2806C127.043 52.8565 127.728 53.1923 128.508 53.1923V51.8077ZM114.861 52.2508C112.339 52.2508 110.049 51.8354 107.983 51.0148L107.472 52.3016C109.719 53.1941 112.184 53.6354 114.861 53.6354V52.2508ZM107.991 51.0178C105.914 50.1646 104.132 48.9885 102.634 47.4911L101.655 48.4702C103.289 50.1038 105.228 51.3794 107.464 52.2985L107.991 51.0178ZM102.643 47.5004C101.173 45.9732 100.024 44.1747 99.1993 42.0979L97.9125 42.6091C98.8007 44.8449 100.045 46.7979 101.646 48.4608L102.643 47.5004ZM99.2005 42.1009C98.3786 40.0038 97.9633 37.6979 97.9633 35.1757H96.5786C96.5786 37.8523 97.0199 40.3316 97.9113 42.6061L99.2005 42.1009ZM97.9633 35.1757C97.9633 32.6533 98.3786 30.3635 99.1993 28.2977L97.9125 27.7866C97.0199 30.0334 96.5786 32.4993 96.5786 35.1757H97.9633ZM99.1993 28.2977C100.024 26.222 101.171 24.4403 102.639 22.9442L101.65 21.9745C100.046 23.6096 98.8011 25.5497 97.9125 27.7866L99.1993 28.2977ZM102.639 22.9443C104.134 21.4207 105.913 20.2476 107.983 19.4252L107.472 18.1384C105.229 19.0293 103.286 20.3079 101.651 21.9744L102.639 22.9443ZM107.991 19.4222C110.054 18.5741 112.341 18.1449 114.861 18.1449V16.7603C112.182 16.7603 109.713 17.2173 107.464 18.1415L107.991 19.4222ZM114.861 18.1449C117.381 18.1449 119.652 18.5741 121.684 19.4209L122.216 18.1428C119.995 17.2173 117.54 16.7603 114.861 16.7603V18.1449ZM121.695 19.4252C123.765 20.2476 125.543 21.4207 127.039 22.9443L128.027 21.9744C126.391 20.3079 124.448 19.0293 122.206 18.1384L121.695 19.4252ZM127.043 22.9489C128.539 24.4446 129.699 26.2248 130.523 28.2977L131.81 27.7866C130.92 25.5469 129.658 23.6053 128.022 21.9698L127.043 22.9489ZM130.523 28.2977C131.343 30.3635 131.759 32.6533 131.759 35.1757H133.143C133.143 32.4993 132.702 30.0334 131.81 27.7866L130.523 28.2977ZM131.759 35.1757C131.759 37.6979 131.343 40.0038 130.522 42.1009L131.811 42.6061C132.702 40.3316 133.143 37.8523 133.143 35.1757H131.759ZM130.523 42.0979C129.699 44.172 128.537 45.9689 127.039 47.4957L128.027 48.4656C129.66 46.8022 130.92 44.8477 131.81 42.6091L130.523 42.0979ZM127.043 47.4911C125.546 48.9885 123.763 50.1646 121.687 51.0178L122.213 52.2985C124.45 51.3794 126.389 50.1038 128.022 48.4702L127.043 47.4911ZM121.691 51.016C119.657 51.8353 117.383 52.2508 114.861 52.2508V53.6354C117.537 53.6354 119.99 53.1942 122.209 52.3003L121.691 51.016ZM114.861 49.4705C116.864 49.4705 118.715 49.1157 120.405 48.396L119.862 47.1221C118.362 47.7612 116.698 48.0858 114.861 48.0858V49.4705ZM120.41 48.3936C122.113 47.6506 123.591 46.6406 124.838 45.3625L123.847 44.3956C122.731 45.5397 121.403 46.4497 119.857 47.1245L120.41 48.3936ZM124.844 45.3565C126.092 44.0464 127.042 42.5186 127.694 40.78L126.397 40.2938C125.809 41.8636 124.957 43.2306 123.841 44.4016L124.844 45.3565ZM127.69 40.7901C128.374 39.049 128.713 37.1753 128.713 35.1757H127.328C127.328 37.0161 127.017 38.7165 126.401 40.2838L127.69 40.7901ZM128.713 35.1757C128.713 33.1761 128.374 31.3024 127.69 29.5613L126.401 30.0676C127.017 31.6348 127.328 33.3353 127.328 35.1757H128.713ZM127.694 29.5714C127.041 27.8314 126.09 26.3159 124.838 25.0332L123.847 26.0001C124.959 27.1394 125.809 28.4892 126.397 30.0575L127.694 29.5714ZM124.844 25.0392C123.595 23.7272 122.111 22.7132 120.401 21.9979L119.866 23.2753C121.405 23.9188 122.728 24.8248 123.841 25.9941L124.844 25.0392ZM120.405 21.9997C118.715 21.28 116.864 20.9252 114.861 20.9252V22.3098C116.698 22.3098 118.362 22.6344 119.862 23.2736L120.405 21.9997ZM114.861 20.9252C112.858 20.9252 110.993 21.2801 109.277 21.9979L109.811 23.2753C111.344 22.6344 113.024 22.3098 114.861 22.3098V20.9252ZM109.273 21.9997C107.592 22.7155 106.125 23.7294 104.878 25.0392L105.88 25.9941C106.996 24.8226 108.306 23.9164 109.815 23.2736L109.273 21.9997ZM104.877 25.0395C103.66 26.3193 102.712 27.8293 102.032 29.5613L103.321 30.0676C103.94 28.4913 104.794 27.1361 105.881 25.9938L104.877 25.0395ZM102.032 29.5613C101.348 31.3024 101.009 33.1761 101.009 35.1757H102.394C102.394 33.3353 102.705 31.6348 103.321 30.0676L102.032 29.5613ZM101.009 35.1757C101.009 37.1753 101.348 39.049 102.032 40.7901L103.321 40.2838C102.705 38.7165 102.394 37.0161 102.394 35.1757H101.009ZM102.032 40.7901C102.712 42.5207 103.658 44.043 104.872 45.3502L105.886 44.408C104.796 43.2339 103.94 41.8614 103.321 40.2838L102.032 40.7901ZM104.884 45.3625C106.128 46.6385 107.59 47.6483 109.263 48.3917L109.825 47.1264C108.308 46.452 106.993 45.5418 105.875 44.3956L104.884 45.3625ZM109.277 48.3978C110.993 49.1156 112.858 49.4705 114.861 49.4705V48.0858C113.024 48.0858 111.344 47.7613 109.811 47.1204L109.277 48.3978ZM140.635 51.8797L140.129 52.3521L140.145 52.3695L140.163 52.3858L140.635 51.8797ZM140.635 28.884L140.163 28.3779L140.154 28.386L140.146 28.3945L140.635 28.884ZM143.914 51.8797L144.403 52.3692L144.412 52.3608L144.42 52.3521L143.914 51.8797ZM140.192 23.4785L139.69 23.9553L139.702 23.9682L139.715 23.9804L140.192 23.4785ZM140.192 19.3578L139.703 18.8683L140.192 19.3578ZM144.313 19.3578L143.811 19.8347L143.823 19.8475L143.836 19.8598L144.313 19.3578ZM144.313 23.4785L144.802 23.968L144.313 23.4785ZM142.275 51.8077C141.786 51.8077 141.413 51.6583 141.108 51.3736L140.163 52.3858C140.744 52.9281 141.463 53.1923 142.275 53.1923V51.8077ZM141.141 51.4073C140.857 51.1022 140.707 50.7287 140.707 50.2403H139.323C139.323 51.0516 139.587 51.771 140.129 52.3521L141.141 51.4073ZM140.707 50.2403V30.5234H139.323V50.2403H140.707ZM140.707 30.5234C140.707 29.9955 140.862 29.6362 141.125 29.3735L140.146 28.3945C139.581 28.9589 139.323 29.6925 139.323 30.5234H140.707ZM141.108 29.3901C141.413 29.1054 141.786 28.956 142.275 28.956V27.5714C141.463 27.5714 140.744 27.8356 140.163 28.3779L141.108 29.3901ZM142.275 28.956C142.802 28.956 143.162 29.1109 143.424 29.3735L144.403 28.3945C143.839 27.83 143.105 27.5714 142.275 27.5714V28.956ZM143.424 29.3735C143.687 29.6362 143.842 29.9955 143.842 30.5234H145.227C145.227 29.6925 144.968 28.9589 144.403 28.3945L143.424 29.3735ZM143.842 30.5234V50.2403H145.227V30.5234H143.842ZM143.842 50.2403C143.842 50.7287 143.693 51.1022 143.408 51.4073L144.42 52.3521C144.962 51.771 145.227 51.0516 145.227 50.2403H143.842ZM143.424 51.3902C143.162 51.6528 142.802 51.8077 142.275 51.8077V53.1923C143.105 53.1923 143.839 52.9337 144.403 52.3692L143.424 51.3902ZM142.275 23.628C141.659 23.628 141.134 23.4185 140.669 22.9765L139.715 23.9804C140.432 24.6609 141.295 25.0126 142.275 25.0126V23.628ZM140.694 23.0016C140.252 22.5364 140.043 22.0118 140.043 21.396H138.658C138.658 22.3752 139.01 23.239 139.69 23.9553L140.694 23.0016ZM140.043 21.396C140.043 20.7811 140.251 20.2781 140.682 19.8474L139.703 18.8683C139.011 19.5601 138.658 20.4158 138.658 21.396H140.043ZM140.682 19.8474C141.149 19.3796 141.67 19.164 142.275 19.164V17.7794C141.284 17.7794 140.416 18.1546 139.703 18.8683L140.682 19.8474ZM142.275 19.164C142.878 19.164 143.377 19.3781 143.811 19.8347L144.815 18.881C144.126 18.156 143.266 17.7794 142.275 17.7794V19.164ZM143.836 19.8598C144.292 20.2935 144.507 20.7928 144.507 21.396H145.891C145.891 20.4041 145.515 19.5446 144.79 18.8559L143.836 19.8598ZM144.507 21.396C144.507 22.0004 144.291 22.5211 143.823 22.9889L144.802 23.968C145.516 23.2543 145.891 22.3867 145.891 21.396H144.507ZM143.823 22.9889C143.392 23.4196 142.889 23.628 142.275 23.628V25.0126C143.255 25.0126 144.11 24.6598 144.802 23.968L143.823 22.9889ZM155.592 51.6582L155.134 52.1773L155.694 52.6717L156.145 52.0753L155.592 51.6582ZM152.579 48.9997L152.027 48.5818L151.64 49.0938L152.121 49.5188L152.579 48.9997ZM167.644 29.1055L168.106 28.5898L167.546 28.0883L167.092 28.6876L167.644 29.1055ZM170.612 31.764L171.165 32.1812L171.549 31.673L171.074 31.2483L170.612 31.764ZM156.05 51.139L153.037 48.4806L152.121 49.5188L155.134 52.1773L156.05 51.139ZM153.131 49.4176L168.196 29.5235L167.092 28.6876L152.027 48.5818L153.131 49.4176ZM167.182 29.6213L170.151 32.2797L171.074 31.2483L168.106 28.5898L167.182 29.6213ZM170.06 31.3468L155.04 51.241L156.145 52.0753L171.165 32.1812L170.06 31.3468ZM154.263 51.8077C153.675 51.8077 153.362 51.6613 153.191 51.4898C153.019 51.3184 152.873 51.005 152.873 50.4175H151.488C151.488 51.2184 151.689 51.9462 152.212 52.4689C152.734 52.9916 153.462 53.1923 154.263 53.1923V51.8077ZM152.873 50.4175C152.873 49.8301 153.019 49.5167 153.191 49.3452C153.362 49.1738 153.675 49.0274 154.263 49.0274V47.6428C153.462 47.6428 152.734 47.8435 152.212 48.3662C151.689 48.8889 151.488 49.6167 151.488 50.4175H152.873ZM154.263 49.0274H169.372V47.6428H154.263V49.0274ZM169.372 49.0274C169.959 49.0274 170.273 49.1738 170.444 49.3452C170.616 49.5167 170.762 49.8301 170.762 50.4175H172.147C172.147 49.6167 171.946 48.8889 171.423 48.3662C170.901 47.8435 170.173 47.6428 169.372 47.6428V49.0274ZM170.762 50.4175C170.762 51.005 170.616 51.3184 170.444 51.4898C170.273 51.6613 169.959 51.8077 169.372 51.8077V53.1923C170.173 53.1923 170.901 52.9916 171.423 52.4689C171.946 51.9462 172.147 51.2184 172.147 50.4175H170.762ZM169.372 51.8077H154.263V53.1923H169.372V51.8077ZM153.82 31.7363C153.232 31.7363 152.919 31.5899 152.748 31.4185C152.576 31.247 152.43 30.9336 152.43 30.3462H151.045C151.045 31.147 151.246 31.8748 151.768 32.3975C152.291 32.9202 153.019 33.1209 153.82 33.1209V31.7363ZM152.43 30.3462C152.43 29.7587 152.576 29.4453 152.748 29.2738C152.919 29.1024 153.232 28.956 153.82 28.956V27.5714C153.019 27.5714 152.291 27.7721 151.768 28.2948C151.246 28.8175 151.045 29.5453 151.045 30.3462H152.43ZM153.82 28.956H168.929V27.5714H153.82V28.956ZM168.929 28.956C169.516 28.956 169.83 29.1024 170.001 29.2738C170.173 29.4453 170.319 29.7587 170.319 30.3462H171.704C171.704 29.5453 171.503 28.8175 170.98 28.2948C170.457 27.7721 169.73 27.5714 168.929 27.5714V28.956ZM170.319 30.3462C170.319 30.9336 170.173 31.247 170.001 31.4185C169.83 31.5899 169.516 31.7363 168.929 31.7363V33.1209C169.73 33.1209 170.457 32.9202 170.98 32.3975C171.503 31.8748 171.704 31.147 171.704 30.3462H170.319ZM168.929 31.7363H153.82V33.1209H168.929V31.7363ZM178.626 51.8797L178.119 52.3521L178.136 52.3695L178.153 52.3858L178.626 51.8797ZM178.626 28.884L178.153 28.3779L178.144 28.386L178.136 28.3945L178.626 28.884ZM181.904 51.8797L182.394 52.3692L182.402 52.3608L182.41 52.3521L181.904 51.8797ZM178.182 23.4785L177.681 23.9553L177.693 23.9682L177.706 23.9804L178.182 23.4785ZM178.182 19.3578L177.693 18.8683L178.182 19.3578ZM182.303 19.3578L181.801 19.8347L181.813 19.8475L181.826 19.8598L182.303 19.3578ZM182.303 23.4785L182.793 23.968L182.303 23.4785ZM180.265 51.8077C179.777 51.8077 179.403 51.6583 179.098 51.3736L178.153 52.3858C178.734 52.9281 179.454 53.1923 180.265 53.1923V51.8077ZM179.132 51.4073C178.847 51.1022 178.698 50.7287 178.698 50.2403H177.313C177.313 51.0516 177.577 51.771 178.119 52.3521L179.132 51.4073ZM178.698 50.2403V30.5234H177.313V50.2403H178.698ZM178.698 30.5234C178.698 29.9955 178.852 29.6362 179.115 29.3735L178.136 28.3945C177.572 28.9589 177.313 29.6925 177.313 30.5234H178.698ZM179.098 29.3901C179.403 29.1054 179.777 28.956 180.265 28.956V27.5714C179.454 27.5714 178.734 27.8356 178.153 28.3779L179.098 29.3901ZM180.265 28.956C180.793 28.956 181.152 29.1109 181.415 29.3735L182.394 28.3945C181.829 27.83 181.096 27.5714 180.265 27.5714V28.956ZM181.415 29.3735C181.677 29.6362 181.832 29.9955 181.832 30.5234H183.217C183.217 29.6925 182.958 28.9589 182.394 28.3945L181.415 29.3735ZM181.832 30.5234V50.2403H183.217V30.5234H181.832ZM181.832 50.2403C181.832 50.7287 181.683 51.1022 181.398 51.4073L182.41 52.3521C182.953 51.771 183.217 51.0516 183.217 50.2403H181.832ZM181.415 51.3902C181.152 51.6528 180.793 51.8077 180.265 51.8077V53.1923C181.096 53.1923 181.829 52.9337 182.394 52.3692L181.415 51.3902ZM180.265 23.628C179.649 23.628 179.125 23.4185 178.659 22.9765L177.706 23.9804C178.422 24.6609 179.286 25.0126 180.265 25.0126V23.628ZM178.684 23.0016C178.242 22.5364 178.033 22.0118 178.033 21.396H176.648C176.648 22.3752 177 23.239 177.681 23.9553L178.684 23.0016ZM178.033 21.396C178.033 20.7811 178.241 20.2781 178.672 19.8474L177.693 18.8683C177.001 19.5601 176.648 20.4158 176.648 21.396H178.033ZM178.672 19.8474C179.14 19.3796 179.661 19.164 180.265 19.164V17.7794C179.274 17.7794 178.407 18.1546 177.693 18.8683L178.672 19.8474ZM180.265 19.164C180.868 19.164 181.367 19.3781 181.801 19.8347L182.805 18.881C182.116 18.156 181.257 17.7794 180.265 17.7794V19.164ZM181.826 19.8598C182.283 20.2935 182.497 20.7928 182.497 21.396H183.882C183.882 20.4041 183.505 19.5446 182.78 18.8559L181.826 19.8598ZM182.497 21.396C182.497 22.0004 182.281 22.5211 181.814 22.9889L182.793 23.968C183.506 23.2543 183.882 22.3867 183.882 21.396H182.497ZM181.814 22.9889C181.383 23.4196 180.88 23.628 180.265 23.628V25.0126C181.245 25.0126 182.101 24.6598 182.793 23.968L181.814 22.9889ZM192.386 51.8797L191.914 52.3858L192.386 51.8797ZM192.962 22.8582L192.355 22.5258L192.35 22.5348L192.962 22.8582ZM196.507 19.2249L196.849 19.8268L196.858 19.8216L196.507 19.2249ZM203.33 18.4717L202.859 18.979L202.868 18.9871L202.877 18.9949L203.33 18.4717ZM203.33 21.396L203.801 21.9033L203.803 21.9021L203.33 21.396ZM198.855 22.7252L198.496 22.1335L198.855 22.7252ZM196.906 24.8077L196.295 24.4819L196.29 24.4899L196.286 24.4981L196.906 24.8077ZM188.31 32.4286L187.84 32.9373L188.31 32.4286ZM188.31 29.6815L187.84 29.1728L188.31 29.6815ZM202.267 29.6815L202.736 29.1728L202.267 29.6815ZM202.267 32.4286L202.736 32.9373L202.267 32.4286ZM193.893 51.8077C193.522 51.8077 193.185 51.6779 192.859 51.3736L191.914 52.3858C192.474 52.9085 193.141 53.1923 193.893 53.1923V51.8077ZM192.859 51.3736C192.574 51.1075 192.414 50.7534 192.414 50.2403H191.029C191.029 51.0859 191.313 51.8248 191.914 52.3858L192.859 51.3736ZM192.414 50.2403V28.3966H191.029V50.2403H192.414ZM192.414 28.3966C192.414 26.36 192.81 24.6292 193.574 23.1815L192.35 22.5348C191.461 24.2181 191.029 26.1797 191.029 28.3966H192.414ZM193.57 23.1905C194.366 21.7341 195.458 20.6179 196.849 19.8267L196.165 18.6231C194.543 19.5452 193.271 20.8511 192.355 22.5258L193.57 23.1905ZM196.858 19.8216C198.244 19.006 199.863 18.588 201.735 18.588V17.2034C199.649 17.2034 197.782 17.6715 196.156 18.6282L196.858 19.8216ZM201.735 18.588C202.239 18.588 202.593 18.7319 202.859 18.979L203.801 17.9644C203.24 17.4435 202.531 17.2034 201.735 17.2034V18.588ZM202.877 18.9949C203.167 19.2462 203.303 19.5421 203.303 19.9338H204.687C204.687 19.144 204.38 18.4652 203.784 17.9485L202.877 18.9949ZM203.303 19.9338C203.303 20.2867 203.173 20.5956 202.858 20.8899L203.803 21.9021C204.373 21.3693 204.687 20.7034 204.687 19.9338H203.303ZM202.859 20.8887C202.593 21.1358 202.239 21.2797 201.735 21.2797V22.6643C202.531 22.6643 203.24 22.4242 203.801 21.9033L202.859 20.8887ZM201.735 21.2797C200.532 21.2797 199.445 21.5573 198.496 22.1335L199.214 23.317C199.92 22.8888 200.752 22.6643 201.735 22.6643V21.2797ZM198.496 22.1335C197.558 22.7026 196.824 23.4905 196.295 24.4819L197.516 25.1335C197.933 24.3526 198.498 23.7522 199.214 23.317L198.496 22.1335ZM196.286 24.4981C195.786 25.4994 195.549 26.6585 195.549 27.9535H196.933C196.933 26.8264 197.139 25.8883 197.525 25.1173L196.286 24.4981ZM195.549 27.9535V50.2403H196.933V27.9535H195.549ZM195.549 50.2403C195.549 50.7682 195.394 51.1275 195.131 51.3902L196.11 52.3692C196.675 51.8048 196.933 51.0712 196.933 50.2403H195.549ZM195.131 51.3902C194.879 51.6419 194.498 51.8077 193.893 51.8077V53.1923C194.764 53.1923 195.535 52.9446 196.11 52.3692L195.131 51.3902ZM189.816 32.268C189.336 32.268 189.012 32.1348 188.779 31.9199L187.84 32.9373C188.376 33.4313 189.057 33.6526 189.816 33.6526V32.268ZM188.779 31.9199C188.54 31.6991 188.426 31.4417 188.426 31.0994H187.042C187.042 31.8205 187.312 32.4492 187.84 32.9373L188.779 31.9199ZM188.426 31.0994C188.426 30.674 188.557 30.3959 188.779 30.1902L187.84 29.1728C187.295 29.6761 187.042 30.3432 187.042 31.0994H188.426ZM188.779 30.1902C189.012 29.9753 189.336 29.8422 189.816 29.8422V28.4575C189.057 28.4575 188.376 28.6788 187.84 29.1728L188.779 30.1902ZM189.816 29.8422H200.76V28.4575H189.816V29.8422ZM200.76 29.8422C201.241 29.8422 201.564 29.9753 201.797 30.1902L202.736 29.1728C202.201 28.6788 201.52 28.4575 200.76 28.4575V29.8422ZM201.797 30.1902C202.02 30.3959 202.151 30.674 202.151 31.0994H203.535C203.535 30.3432 203.282 29.6761 202.736 29.1728L201.797 30.1902ZM202.151 31.0994C202.151 31.4417 202.036 31.6991 201.797 31.9199L202.736 32.9373C203.265 32.4492 203.535 31.8205 203.535 31.0994H202.151ZM201.797 31.9199C201.564 32.1348 201.241 32.268 200.76 32.268V33.6526C201.52 33.6526 202.201 33.4313 202.736 32.9373L201.797 31.9199ZM200.76 32.268H189.816V33.6526H200.76V32.268ZM212.557 62.868L212.271 63.4983L212.278 63.5014L212.285 63.5043L212.557 62.868ZM211.494 60.0766L212.122 60.3686L212.127 60.3569L211.494 60.0766ZM225.008 29.5486L224.383 29.251L224.379 29.2596L224.375 29.2684L225.008 29.5486ZM227.799 28.4852L228.068 27.8474L228.066 27.8466L227.799 28.4852ZM228.907 31.2766L228.277 30.9901L228.274 30.9953L228.907 31.2766ZM215.349 61.7603L214.716 61.479L214.709 61.4945L214.703 61.5104L215.349 61.7603ZM218.849 51.5252L219.118 52.1633L218.849 51.5252ZM217.254 51.6138L216.976 52.2481L217 52.2583L217.023 52.2667L217.254 51.6138ZM216.102 50.4618L216.715 50.1394V50.1393L216.102 50.4618ZM205.955 31.188L205.343 31.5104V31.5105L205.955 31.188ZM205.823 29.5929L205.19 29.3117L205.186 29.3205L205.182 29.3293L205.823 29.5929ZM207.019 28.4409L206.75 27.8029L207.019 28.4409ZM208.614 28.3966L208.35 29.0368L208.367 29.0435L208.383 29.0495L208.614 28.3966ZM209.766 29.5043L209.14 29.8007L209.144 29.8082L209.148 29.8156L209.766 29.5043ZM219.469 48.7782L218.851 49.0895L218.857 49.1006L219.469 48.7782ZM219.779 50.4175L219.097 50.3037L219.094 50.3201L219.092 50.3366L219.779 50.4175ZM213.621 62.4415C213.455 62.4415 213.198 62.3894 212.83 62.2317L212.285 63.5043C212.744 63.7011 213.196 63.8262 213.621 63.8262V62.4415ZM212.844 62.2377C212.288 61.9849 212.052 61.7133 211.964 61.4806C211.876 61.2512 211.872 60.9043 212.122 60.3686L210.866 59.7846C210.525 60.5191 210.403 61.2725 210.67 61.9735C210.936 62.6713 211.527 63.1603 212.271 63.4983L212.844 62.2377ZM212.127 60.3569L225.641 29.8288L224.375 29.2684L210.861 59.7964L212.127 60.3569ZM225.633 29.8463C225.881 29.3248 226.151 29.0923 226.395 28.9993C226.64 28.9061 226.997 28.9 227.532 29.1238L228.066 27.8466C227.331 27.5388 226.588 27.444 225.902 27.7054C225.216 27.9668 224.725 28.5318 224.383 29.251L225.633 29.8463ZM227.53 29.123C228.099 29.3635 228.339 29.6305 228.429 29.8594C228.52 30.0863 228.528 30.4376 228.277 30.9901L229.537 31.5631C229.877 30.816 229.996 30.0522 229.716 29.3486C229.438 28.647 228.828 28.1682 228.068 27.8474L227.53 29.123ZM228.274 30.9953L214.716 61.479L215.981 62.0417L229.539 31.558L228.274 30.9953ZM214.703 61.5104C214.556 61.8907 214.385 62.1176 214.22 62.2485C214.065 62.3717 213.877 62.4415 213.621 62.4415V63.8262C214.162 63.8262 214.661 63.6671 215.082 63.3324C215.493 63.0055 215.787 62.5456 215.994 62.0102L214.703 61.5104ZM218.58 50.8872C218.153 51.0669 217.801 51.0727 217.484 50.961L217.023 52.2667C217.711 52.5095 218.422 52.4562 219.118 52.1633L218.58 50.8872ZM217.531 50.9796C217.233 50.8491 216.954 50.5945 216.715 50.1394L215.489 50.7843C215.841 51.4517 216.329 51.965 216.976 52.2481L217.531 50.9796ZM216.715 50.1393L206.568 30.8655L205.343 31.5105L215.489 50.7843L216.715 50.1393ZM206.568 30.8656C206.35 30.452 206.348 30.1361 206.463 29.8565L205.182 29.3293C204.884 30.054 204.97 30.8015 205.343 31.5104L206.568 30.8656ZM206.455 29.8741C206.616 29.5114 206.88 29.2505 207.287 29.079L206.75 27.8029C206.035 28.104 205.501 28.611 205.19 29.3117L206.455 29.8741ZM207.287 29.079C207.701 28.9048 208.04 28.9091 208.35 29.0368L208.878 27.7565C208.183 27.4706 207.459 27.5045 206.75 27.8029L207.287 29.079ZM208.383 29.0495C208.683 29.1551 208.939 29.3762 209.14 29.8007L210.392 29.2079C210.061 28.5099 209.549 27.9926 208.844 27.7438L208.383 29.0495ZM209.148 29.8156L218.851 49.0895L220.088 48.4668L210.384 29.193L209.148 29.8156ZM218.857 49.1006C219.094 49.5525 219.156 49.9464 219.097 50.3037L220.462 50.5314C220.58 49.8253 220.435 49.1263 220.082 48.4557L218.857 49.1006ZM219.092 50.3366C219.068 50.5366 218.967 50.7242 218.58 50.8872L219.118 52.1633C219.853 51.8536 220.372 51.3028 220.467 50.4984L219.092 50.3366ZM248.37 52.1455L247.881 52.6351L247.895 52.6495L247.91 52.663L248.37 52.1455ZM248.37 18.2945L248.83 18.8119L248.846 18.7984L248.86 18.784L248.37 18.2945ZM250.231 18.2945L249.714 18.7544L249.741 18.7848L249.771 18.8119L250.231 18.2945ZM250.63 50.1074H249.938V50.7997H250.63V50.1074ZM269.815 50.4618L269.326 50.9514L269.342 50.9677L269.359 50.9829L269.815 50.4618ZM269.815 52.1898L270.271 52.7109L270.289 52.6957L270.305 52.6794L269.815 52.1898ZM249.301 51.8077C249.117 51.8077 248.97 51.7522 248.83 51.6281L247.91 52.663C248.303 53.0115 248.776 53.1923 249.301 53.1923V51.8077ZM248.86 51.656C248.727 51.5231 248.664 51.3756 248.664 51.1708H247.279C247.279 51.734 247.482 52.2363 247.881 52.6351L248.86 51.656ZM248.664 51.1708V19.2249H247.279V51.1708H248.664ZM248.664 19.2249C248.664 19.0209 248.725 18.9055 248.83 18.8119L247.91 17.777C247.484 18.156 247.279 18.6609 247.279 19.2249H248.664ZM248.86 18.784C249.005 18.6392 249.142 18.588 249.301 18.588V17.2034C248.751 17.2034 248.268 17.418 247.881 17.8049L248.86 18.784ZM249.301 18.588C249.505 18.588 249.62 18.6491 249.714 18.7544L250.749 17.8345C250.37 17.4081 249.865 17.2034 249.301 17.2034V18.588ZM249.771 18.8119C249.877 18.9055 249.938 19.0209 249.938 19.2249H251.322C251.322 18.6609 251.118 18.156 250.691 17.777L249.771 18.8119ZM249.938 19.2249V50.1074H251.322V19.2249H249.938ZM250.63 50.7997H268.841V49.4151H250.63V50.7997ZM268.841 50.7997C269.117 50.7997 269.249 50.8743 269.326 50.9514L270.305 49.9723C269.909 49.5768 269.391 49.4151 268.841 49.4151V50.7997ZM269.359 50.9829C269.425 51.0404 269.477 51.1202 269.477 51.3037H270.862C270.862 50.7783 270.678 50.2968 270.271 49.9408L269.359 50.9829ZM269.477 51.3037C269.477 51.4869 269.424 51.6023 269.326 51.7003L270.305 52.6794C270.679 52.3048 270.862 51.8294 270.862 51.3037H269.477ZM269.359 51.6688C269.285 51.7341 269.14 51.8077 268.841 51.8077V53.1923C269.368 53.1923 269.873 53.0591 270.271 52.7109L269.359 51.6688ZM268.841 51.8077H249.301V53.1923H268.841V51.8077ZM280.431 51.1708L280.08 51.7671L280.091 51.7736L280.431 51.1708ZM276.178 46.7843L276.783 46.4481L276.178 46.7843ZM276.089 34.0237L276.7 34.349L276.703 34.3449L276.089 34.0237ZM280.121 29.6372L280.486 30.2254L280.121 29.6372ZM291.819 29.5929L291.456 30.1829L291.464 30.1875L291.819 29.5929ZM295.762 33.8022L295.149 34.1238L295.151 34.1279L295.762 33.8022ZM296.825 40.8914L297.281 41.4124L297.299 41.3972L297.315 41.3809L296.825 40.8914ZM276.399 41.2015H275.707V41.8938H276.399V41.2015ZM276.399 38.8975V38.2052H275.707V38.8975H276.399ZM296.604 38.8975L297.019 39.4514L298.681 38.2052H296.604V38.8975ZM294.654 40.3597L293.962 40.3384L293.918 41.7773L295.07 40.9135L294.654 40.3597ZM293.679 35.2643L294.304 34.9647L293.679 35.2643ZM290.622 31.8083L290.241 32.3864L290.249 32.3913L290.257 32.3961L290.622 31.8083ZM281.495 31.8083L281.867 32.3924L281.87 32.3902L281.495 31.8083ZM278.393 35.2643L277.779 34.9449L277.774 34.9547L278.393 35.2643ZM278.482 45.4994L277.873 45.8283L278.482 45.4994ZM281.805 48.9997L281.447 49.5923L281.456 49.5977L281.805 48.9997ZM290.135 49.6643L290.354 50.3212L290.364 50.3177L290.135 49.6643ZM292.926 48.0692L293.405 48.5695L293.41 48.5642L293.416 48.5588L292.926 48.0692ZM293.768 47.7148V48.4071H293.797L293.826 48.4047L293.768 47.7148ZM294.654 47.9806L294.198 48.5016L294.207 48.5092L294.216 48.5164L294.654 47.9806ZM295.142 48.8668H294.449V48.8982L294.452 48.9295L295.142 48.8668ZM294.743 49.7529L294.28 49.2383L294.278 49.2399L294.743 49.7529ZM291.021 51.8797L290.783 51.2294L290.779 51.2309L291.021 51.8797ZM286.679 52.0292C284.451 52.0292 282.488 51.5369 280.772 50.5679L280.091 51.7736C282.037 52.8724 284.239 53.4138 286.679 53.4138V52.0292ZM280.783 50.5745C279.09 49.5749 277.758 48.2033 276.783 46.4481L275.573 47.1205C276.665 49.0871 278.17 50.6399 280.08 51.767L280.783 50.5745ZM276.783 46.4481C275.813 44.7023 275.319 42.6938 275.319 40.404H273.935C273.935 42.8994 274.475 45.1445 275.573 47.1205L276.783 46.4481ZM275.319 40.404C275.319 38.0762 275.787 36.0646 276.7 34.349L275.478 33.6984C274.442 35.6455 273.935 37.8875 273.935 40.404H275.319ZM276.703 34.3449C277.622 32.5888 278.883 31.2208 280.486 30.2254L279.756 29.049C277.933 30.1804 276.506 31.7368 275.476 33.7025L276.703 34.3449ZM280.486 30.2254C282.079 29.2367 283.915 28.7345 286.014 28.7345V27.3498C283.683 27.3498 281.59 27.911 279.756 29.049L280.486 30.2254ZM286.014 28.7345C288.086 28.7345 289.893 29.2229 291.456 30.1829L292.181 29.003C290.377 27.8952 288.314 27.3498 286.014 27.3498V28.7345ZM291.464 30.1875C293.034 31.1238 294.261 32.4305 295.149 34.1238L296.375 33.4805C295.373 31.5701 293.971 30.0706 292.173 28.9984L291.464 30.1875ZM295.151 34.1279C296.035 35.7849 296.487 37.7226 296.487 39.9609H297.872C297.872 37.5322 297.38 35.3641 296.373 33.4764L295.151 34.1279ZM296.487 39.9609C296.487 40.191 296.423 40.315 296.336 40.4018L297.315 41.3809C297.701 40.9952 297.872 40.4988 297.872 39.9609H296.487ZM296.369 40.3704C296.286 40.4435 296.15 40.5092 295.895 40.5092V41.8938C296.408 41.8938 296.892 41.7528 297.281 41.4124L296.369 40.3704ZM295.895 40.5092H276.399V41.8938H295.895V40.5092ZM277.092 41.2015V38.8975H275.707V41.2015H277.092ZM276.399 39.5898H296.604V38.2052H276.399V39.5898ZM296.188 38.3437L294.239 39.8058L295.07 40.9135L297.019 39.4514L296.188 38.3437ZM295.346 40.381C295.408 38.3692 295.068 36.5575 294.304 34.9647L293.055 35.5639C293.709 36.9249 294.019 38.5101 293.962 40.3384L295.346 40.381ZM294.304 34.9647C293.541 33.3749 292.434 32.1204 290.988 31.2205L290.257 32.3961C291.469 33.1503 292.401 34.1999 293.055 35.5639L294.304 34.9647ZM291.003 31.2303C289.575 30.2891 287.903 29.8311 286.014 29.8311V31.2157C287.67 31.2157 289.07 31.6142 290.241 32.3864L291.003 31.2303ZM286.014 29.8311C284.207 29.8311 282.568 30.293 281.12 31.2264L281.87 32.3902C283.08 31.6104 284.455 31.2157 286.014 31.2157V29.8311ZM281.123 31.2242C279.713 32.1219 278.599 33.369 277.779 34.9449L279.008 35.5837C279.724 34.2058 280.678 33.1489 281.867 32.3924L281.123 31.2242ZM277.774 34.9547C276.98 36.5437 276.593 38.3663 276.593 40.404H277.978C277.978 38.5426 278.33 36.9388 279.013 35.5739L277.774 34.9547ZM276.593 40.404C276.593 42.4222 277.013 44.2366 277.873 45.8283L279.091 45.1704C278.356 43.8083 277.978 42.2258 277.978 40.404H276.593ZM277.873 45.8283C278.728 47.4124 279.922 48.6709 281.447 49.5922L282.163 48.4071C280.852 47.6153 279.831 46.5402 279.091 45.1704L277.873 45.8283ZM281.456 49.5977C282.992 50.4935 284.739 50.9326 286.679 50.9326V49.548C284.956 49.548 283.454 49.1601 282.154 48.4017L281.456 49.5977ZM286.679 50.9326C287.909 50.9326 289.135 50.7273 290.354 50.3211L289.916 49.0075C288.831 49.3693 287.753 49.548 286.679 49.548V50.9326ZM290.364 50.3177C291.609 49.8819 292.635 49.3063 293.405 48.5695L292.448 47.5689C291.859 48.1318 291.024 48.6197 289.906 49.0109L290.364 50.3177ZM293.416 48.5588C293.526 48.4481 293.633 48.4071 293.768 48.4071V47.0225C293.254 47.0225 292.799 47.2177 292.437 47.5797L293.416 48.5588ZM293.826 48.4047C294.02 48.3885 294.123 48.4353 294.198 48.5016L295.11 47.4596C294.713 47.1124 294.225 46.982 293.711 47.0249L293.826 48.4047ZM294.216 48.5164C294.431 48.6923 294.449 48.8071 294.449 48.8668H295.834C295.834 48.2766 295.528 47.8007 295.093 47.4448L294.216 48.5164ZM294.452 48.9295C294.458 48.989 294.453 49.0829 294.28 49.2383L295.206 50.2675C295.624 49.8913 295.885 49.3944 295.831 48.8041L294.452 48.9295ZM294.278 49.2399C293.415 50.0222 292.258 50.6906 290.783 51.2294L291.259 52.53C292.856 51.9463 294.181 51.1968 295.208 50.2659L294.278 49.2399ZM290.779 51.2309C289.338 51.7678 287.973 52.0292 286.679 52.0292V53.4138C288.162 53.4138 289.691 53.114 291.263 52.5284L290.779 51.2309ZM307.48 51.1708L307.129 51.7678L307.141 51.7742L307.48 51.1708ZM303.049 46.74L302.446 47.0795L302.452 47.0906L303.049 46.74ZM303.049 34.068L302.45 33.7215L302.448 33.7245L303.049 34.068ZM307.48 29.6372L307.823 30.2383L307.826 30.2366L307.48 29.6372ZM320.196 29.6372L319.846 30.2342L319.853 30.2383L320.196 29.6372ZM324.583 34.068L323.979 34.4075L323.986 34.4186L324.583 34.068ZM326.222 40.404L326.809 40.7709L326.914 40.6026V40.404H326.222ZM325.114 42.1763L324.527 41.8094L324.422 41.9778V42.1763H325.114ZM323.608 47.5818L323.022 47.2129L323.017 47.2208L323.608 47.5818ZM319.62 51.3923L319.951 52.0005L319.959 51.996L319.62 51.3923ZM318.823 48.9997L319.175 49.5955L319.179 49.5933L318.823 48.9997ZM322.279 45.4551L321.677 45.1129L321.675 45.1168L322.279 45.4551ZM322.279 35.3529L321.672 35.6861L321.676 35.6932L321.68 35.7003L322.279 35.3529ZM318.823 31.8083L318.461 32.3987L318.468 32.403L318.475 32.4072L318.823 31.8083ZM308.898 31.8083L309.245 32.4072L309.254 32.402L308.898 31.8083ZM305.397 35.3529L305.996 35.7003L305.999 35.6951L305.397 35.3529ZM305.397 45.4551L304.796 45.7973L304.799 45.8024L305.397 45.4551ZM308.898 48.9997L308.542 49.5934L308.55 49.5986L308.898 48.9997ZM323.918 52.1455L323.401 52.6055L323.428 52.6359L323.458 52.663L323.918 52.1455ZM323.564 43.0625L322.904 42.8535L322.871 42.9555V43.0625H323.564ZM324.405 40.404V39.7117H323.899L323.745 40.195L324.405 40.404ZM326.222 40.404H326.914V39.7117H326.222V40.404ZM325.868 52.1455L326.357 52.6351L326.372 52.6207L326.385 52.6055L325.868 52.1455ZM313.86 52.0735C311.605 52.0735 309.597 51.5673 307.819 50.5674L307.141 51.7742C309.144 52.901 311.389 53.4582 313.86 53.4582V52.0735ZM307.831 50.5738C306.071 49.5407 304.679 48.1485 303.646 46.3894L302.452 47.0906C303.605 49.0533 305.167 50.615 307.129 51.7677L307.831 50.5738ZM303.653 46.4006C302.652 44.6216 302.146 42.6279 302.146 40.404H300.762C300.762 42.8471 301.32 45.0775 302.446 47.0794L303.653 46.4006ZM302.146 40.404C302.146 38.1487 302.653 36.1573 303.65 34.4115L302.448 33.7245C301.319 35.7005 300.762 37.9331 300.762 40.404H302.146ZM303.649 34.4145C304.681 32.6279 306.071 31.2398 307.823 30.2383L307.136 29.0361C305.167 30.1615 303.603 31.7271 302.45 33.7215L303.649 34.4145ZM307.826 30.2366C309.603 29.2095 311.609 28.6902 313.86 28.6902V27.3055C311.386 27.3055 309.138 27.8791 307.133 29.0379L307.826 30.2366ZM313.86 28.6902C316.112 28.6902 318.101 29.2095 319.846 30.2342L320.547 29.0403C318.57 27.8791 316.335 27.3055 313.86 27.3055V28.6902ZM319.853 30.2383C321.604 31.2388 322.977 32.6247 323.979 34.4074L325.186 33.7286C324.062 31.7304 322.511 30.1624 320.54 29.0361L319.853 30.2383ZM323.986 34.4186C325.01 36.1633 325.53 38.1521 325.53 40.404H326.914C326.914 37.9297 326.341 35.6946 325.18 33.7174L323.986 34.4186ZM325.635 40.0371L324.527 41.8094L325.701 42.5432L326.809 40.7709L325.635 40.0371ZM324.422 42.1763C324.422 44.0633 323.952 45.7357 323.022 47.213L324.194 47.9507C325.272 46.2378 325.807 44.3065 325.807 42.1763H324.422ZM323.017 47.2208C322.106 48.7114 320.865 49.8994 319.281 50.7886L319.959 51.996C321.743 50.9947 323.16 49.6425 324.199 47.9428L323.017 47.2208ZM319.289 50.7841C317.719 51.638 315.916 52.0735 313.86 52.0735V53.4582C316.117 53.4582 318.154 52.978 319.951 52.0005L319.289 50.7841ZM313.86 50.9769C315.832 50.9769 317.61 50.5219 319.175 49.5955L318.47 48.4039C317.141 49.1908 315.611 49.5923 313.86 49.5923V50.9769ZM319.179 49.5933C320.757 48.6463 321.996 47.3775 322.883 45.7933L321.675 45.1168C320.908 46.4865 319.842 47.5808 318.467 48.406L319.179 49.5933ZM322.881 45.7973C323.801 44.1788 324.256 42.3758 324.256 40.404H322.871C322.871 42.1541 322.47 43.7184 321.677 45.1129L322.881 45.7973ZM324.256 40.404C324.256 38.405 323.802 36.5991 322.878 35.0056L321.68 35.7003C322.469 37.0606 322.871 38.6221 322.871 40.404H324.256ZM322.886 35.0197C321.998 33.4035 320.757 32.1298 319.17 31.2094L318.475 32.4072C319.842 33.2001 320.905 34.2894 321.672 35.6861L322.886 35.0197ZM319.184 31.2179C317.618 30.2588 315.836 29.7868 313.86 29.7868V31.1714C315.606 31.1714 317.133 31.5856 318.461 32.3987L319.184 31.2179ZM313.86 29.7868C311.912 29.7868 310.133 30.2598 308.542 31.2147L309.254 32.402C310.616 31.5845 312.146 31.1714 313.86 31.1714V29.7868ZM308.55 31.2094C306.966 32.1285 305.712 33.3994 304.796 35.0107L305.999 35.6951C306.796 34.2936 307.876 33.2013 309.245 32.4072L308.55 31.2094ZM304.799 35.0056C303.874 36.5991 303.42 38.405 303.42 40.404H304.805C304.805 38.6221 305.207 37.0606 305.996 35.7003L304.799 35.0056ZM303.42 40.404C303.42 42.3758 303.875 44.1788 304.796 45.7973L305.999 45.1129C305.206 43.7184 304.805 42.1541 304.805 40.404H303.42ZM304.799 45.8024C305.715 47.3816 306.965 48.6475 308.542 49.5933L309.254 48.406C307.877 47.5796 306.794 46.4824 305.996 45.1077L304.799 45.8024ZM308.55 49.5986C310.141 50.5208 311.916 50.9769 313.86 50.9769V49.5923C312.142 49.5923 310.609 49.1918 309.245 48.4008L308.55 49.5986ZM324.893 51.8077C324.664 51.8077 324.507 51.7424 324.378 51.6281L323.458 52.663C323.861 53.0213 324.354 53.1923 324.893 53.1923V51.8077ZM324.436 51.6856C324.321 51.557 324.256 51.3999 324.256 51.1708H322.871C322.871 51.7097 323.042 52.2024 323.401 52.6055L324.436 51.6856ZM324.256 51.1708V43.0625H322.871V51.1708H324.256ZM324.224 43.2715L325.065 40.613L323.745 40.195L322.904 42.8535L324.224 43.2715ZM324.405 41.0963H326.222V39.7117H324.405V41.0963ZM325.53 40.404V51.1708H326.914V40.404H325.53ZM325.53 51.1708C325.53 51.3999 325.465 51.557 325.35 51.6856L326.385 52.6055C326.743 52.2024 326.914 51.7097 326.914 51.1708H325.53ZM325.378 51.656C325.301 51.7331 325.169 51.8077 324.893 51.8077V53.1923C325.444 53.1923 325.962 53.0306 326.357 52.6351L325.378 51.656ZM334.434 37.7012L333.745 37.6366L333.674 38.3935H334.434V37.7012ZM335.985 32.6945L336.58 33.0471L336.584 33.0418L335.985 32.6945ZM339.308 29.2385L338.948 28.6471L339.308 29.2385ZM347.15 29.8145L346.474 29.6674L346.471 29.6787L347.15 29.8145ZM345.334 30.6563L345.198 31.3352L345.223 31.3401L345.248 31.3433L345.334 30.6563ZM339.884 31.4538L339.556 30.8443L339.884 31.4538ZM337.181 34.0237L337.772 34.3847L337.776 34.3775L337.181 34.0237ZM336.206 37.7012V38.3935H336.899V37.7012H336.206ZM333.902 52.1455L333.385 52.6055L333.412 52.6359L333.442 52.663L333.902 52.1455ZM333.902 28.6182L333.442 28.1007L333.427 28.1142L333.413 28.1286L333.902 28.6182ZM335.852 52.1455L336.341 52.6351L336.356 52.6207L336.369 52.6055L335.852 52.1455ZM335.123 37.7658C335.292 35.9639 335.782 34.3958 336.58 33.0471L335.389 32.3419C334.474 33.8879 333.93 35.6576 333.745 37.6366L335.123 37.7658ZM336.584 33.0418C337.387 31.6573 338.415 30.5924 339.668 29.8298L338.948 28.6471C337.483 29.5387 336.296 30.7777 335.386 32.3471L336.584 33.0418ZM339.668 29.8298C340.914 29.0715 342.295 28.6902 343.827 28.6902V27.3055C342.051 27.3055 340.419 27.7513 338.948 28.6471L339.668 29.8298ZM343.827 28.6902C344.91 28.6902 345.673 28.8206 346.169 29.0329L346.714 27.7603C345.969 27.4409 344.989 27.3055 343.827 27.3055V28.6902ZM346.169 29.0329C346.371 29.1197 346.438 29.207 346.465 29.2601C346.493 29.316 346.525 29.433 346.474 29.6674L347.827 29.9615C347.923 29.5166 347.911 29.0576 347.703 28.6409C347.493 28.2213 347.132 27.9394 346.714 27.7603L346.169 29.0329ZM346.471 29.6787C346.441 29.8292 346.401 29.8969 346.382 29.9211C346.374 29.932 346.369 29.9354 346.367 29.9363C346.366 29.9371 346.361 29.9404 346.348 29.9441L346.712 31.2799C347.377 31.0985 347.71 30.5479 347.829 29.9502L346.471 29.6787ZM346.348 29.9441C346.138 30.0012 345.837 30.0215 345.419 29.9693L345.248 31.3433C345.776 31.4093 346.272 31.4 346.712 31.2799L346.348 29.9441ZM345.469 29.9774C344.972 29.878 344.424 29.8311 343.827 29.8311V31.2157C344.353 31.2157 344.809 31.2573 345.198 31.3352L345.469 29.9774ZM343.827 29.8311C342.251 29.8311 340.821 30.163 339.556 30.8443L340.212 32.0634C341.251 31.5041 342.45 31.2157 343.827 31.2157V29.8311ZM339.556 30.8443C338.296 31.5223 337.302 32.4659 336.586 33.6699L337.776 34.3775C338.36 33.3957 339.167 32.626 340.212 32.0634L339.556 30.8443ZM336.59 33.6627C335.867 34.8468 335.514 36.2005 335.514 37.7012H336.899C336.899 36.4254 337.196 35.3273 337.772 34.3847L336.59 33.6627ZM336.206 37.0089H334.434V38.3935H336.206V37.0089ZM334.877 51.8077C334.648 51.8077 334.491 51.7424 334.362 51.6281L333.442 52.663C333.845 53.0213 334.338 53.1923 334.877 53.1923V51.8077ZM334.42 51.6856C334.305 51.557 334.24 51.3999 334.24 51.1708H332.855C332.855 51.7097 333.026 52.2024 333.385 52.6055L334.42 51.6856ZM334.24 51.1708V29.5929H332.855V51.1708H334.24ZM334.24 29.5929C334.24 29.3168 334.315 29.1848 334.392 29.1077L333.413 28.1286C333.017 28.5241 332.855 29.042 332.855 29.5929H334.24ZM334.362 29.1356C334.491 29.0213 334.648 28.956 334.877 28.956V27.5714C334.338 27.5714 333.845 27.7424 333.442 28.1007L334.362 29.1356ZM334.877 28.956C335.153 28.956 335.285 29.0306 335.362 29.1077L336.341 28.1286C335.946 27.7331 335.428 27.5714 334.877 27.5714V28.956ZM335.362 29.1077C335.439 29.1848 335.514 29.3168 335.514 29.5929H336.899C336.899 29.042 336.737 28.5241 336.341 28.1286L335.362 29.1077ZM335.514 29.5929V51.1708H336.899V29.5929H335.514ZM335.514 51.1708C335.514 51.3999 335.449 51.557 335.334 51.6856L336.369 52.6055C336.728 52.2024 336.899 51.7097 336.899 51.1708H335.514ZM335.362 51.656C335.285 51.7331 335.153 51.8077 334.877 51.8077V53.1923C335.428 53.1923 335.946 53.0306 336.341 52.6351L335.362 51.656ZM373.651 52.1455L373.133 52.6055L373.16 52.6359L373.191 52.663L373.651 52.1455ZM372.144 34.4225L371.546 34.7705L371.552 34.7807L372.144 34.4225ZM369.087 31.5868L368.772 32.2031L368.78 32.2074L368.789 32.2116L369.087 31.5868ZM360.447 31.5425L360.739 32.1703L360.751 32.1645L360.447 31.5425ZM357.434 34.0237L356.865 33.6288L357.434 34.0237ZM356.326 37.6126V38.3049H357.019V37.6126H356.326ZM354.111 37.6126L353.42 37.568L353.373 38.3049H354.111V37.6126ZM355.75 32.6945L356.325 33.0812L356.328 33.0758L355.75 32.6945ZM359.561 29.2385L359.884 29.8507L359.893 29.8458L359.561 29.2385ZM370.461 29.2828L370.138 29.8954L370.145 29.8988L370.151 29.902L370.461 29.2828ZM374.493 33.0932L373.893 33.4401L373.896 33.4447L374.493 33.0932ZM375.556 52.1455L376.045 52.6351L375.556 52.1455ZM354.022 52.1455L353.505 52.6055L353.532 52.6359L353.562 52.663L354.022 52.1455ZM354.022 28.6182L353.562 28.1007L353.547 28.1142L353.533 28.1286L354.022 28.6182ZM355.972 52.1455L356.461 52.6351L356.476 52.6207L356.489 52.6055L355.972 52.1455ZM374.625 51.8077C374.396 51.8077 374.239 51.7424 374.111 51.6281L373.191 52.663C373.594 53.0213 374.087 53.1923 374.625 53.1923V51.8077ZM374.168 51.6856C374.054 51.557 373.989 51.3999 373.989 51.1708H372.604C372.604 51.7097 372.775 52.2024 373.133 52.6055L374.168 51.6856ZM373.989 51.1708V39.252H372.604V51.1708H373.989ZM373.989 39.252C373.989 37.2148 373.587 35.4713 372.737 34.0642L371.552 34.7807C372.237 35.9139 372.604 37.3901 372.604 39.252H373.989ZM372.743 34.0745C371.936 32.6866 370.813 31.6435 369.385 30.962L368.789 32.2116C369.96 32.7706 370.876 33.6181 371.546 34.7704L372.743 34.0745ZM369.402 30.9704C368.022 30.2641 366.464 29.9197 364.745 29.9197V31.3043C366.275 31.3043 367.612 31.6097 368.772 32.2031L369.402 30.9704ZM364.745 29.9197C363.058 29.9197 361.52 30.2482 360.143 30.9204L360.751 32.1645C361.915 31.5961 363.241 31.3043 364.745 31.3043V29.9197ZM360.155 30.9147C358.783 31.5528 357.68 32.4565 356.865 33.6288L358.003 34.4186C358.666 33.4642 359.571 32.7136 360.739 32.1702L360.155 30.9147ZM356.865 33.6288C356.044 34.8114 355.634 36.1462 355.634 37.6126H357.019C357.019 36.4205 357.347 35.3628 358.003 34.4186L356.865 33.6288ZM356.326 36.9203H354.111V38.3049H356.326V36.9203ZM354.802 37.6572C354.913 35.9416 355.422 34.4215 356.325 33.0812L355.176 32.3077C354.129 33.8622 353.546 35.6209 353.42 37.568L354.802 37.6572ZM356.328 33.0758C357.239 31.696 358.422 30.6234 359.884 29.8506L359.237 28.6263C357.569 29.5077 356.211 30.7391 355.173 32.3131L356.328 33.0758ZM359.893 29.8458C361.351 29.0483 362.963 28.6458 364.745 28.6458V27.2612C362.745 27.2612 360.902 27.7154 359.229 28.6311L359.893 29.8458ZM364.745 28.6458C366.773 28.6458 368.565 29.0675 370.138 29.8954L370.783 28.6701C368.989 27.7257 366.971 27.2612 364.745 27.2612V28.6458ZM370.151 29.902C371.741 30.6971 372.985 31.8716 373.893 33.4401L375.092 32.7464C374.05 30.9475 372.606 29.5817 370.77 28.6635L370.151 29.902ZM373.896 33.4447C374.793 34.9667 375.262 36.8903 375.262 39.252H376.647C376.647 36.7103 376.142 34.5281 375.089 32.7417L373.896 33.4447ZM375.262 39.252V51.1708H376.647V39.252H375.262ZM375.262 51.1708C375.262 51.3756 375.199 51.5231 375.066 51.656L376.045 52.6351C376.444 52.2363 376.647 51.734 376.647 51.1708H375.262ZM375.066 51.656C374.98 51.7429 374.856 51.8077 374.625 51.8077V53.1923C375.163 53.1923 375.66 53.0208 376.045 52.6351L375.066 51.656ZM354.997 51.8077C354.768 51.8077 354.611 51.7424 354.482 51.6281L353.562 52.663C353.966 53.0213 354.458 53.1923 354.997 53.1923V51.8077ZM354.54 51.6856C354.426 51.557 354.36 51.3999 354.36 51.1708H352.976C352.976 51.7097 353.147 52.2024 353.505 52.6055L354.54 51.6856ZM354.36 51.1708V29.5929H352.976V51.1708H354.36ZM354.36 29.5929C354.36 29.3168 354.435 29.1848 354.512 29.1077L353.533 28.1286C353.137 28.5241 352.976 29.042 352.976 29.5929H354.36ZM354.482 29.1356C354.611 29.0213 354.768 28.956 354.997 28.956V27.5714C354.458 27.5714 353.966 27.7424 353.562 28.1007L354.482 29.1356ZM354.997 28.956C355.273 28.956 355.405 29.0306 355.482 29.1077L356.461 28.1286C356.066 27.7331 355.548 27.5714 354.997 27.5714V28.956ZM355.482 29.1077C355.56 29.1848 355.634 29.3168 355.634 29.5929H357.019C357.019 29.042 356.857 28.5241 356.461 28.1286L355.482 29.1077ZM355.634 29.5929V51.1708H357.019V29.5929H355.634ZM355.634 51.1708C355.634 51.3999 355.569 51.557 355.455 51.6856L356.489 52.6055C356.848 52.2024 357.019 51.7097 357.019 51.1708H355.634ZM355.482 51.656C355.405 51.7331 355.273 51.8077 354.997 51.8077V53.1923C355.548 53.1923 356.066 53.0306 356.461 52.6351L355.482 51.656ZM385.413 52.1455L384.896 52.6055L384.923 52.6359L384.953 52.663L385.413 52.1455ZM385.413 28.6182L384.953 28.1007L384.938 28.1142L384.924 28.1286L385.413 28.6182ZM387.363 28.6182L386.873 29.1077L387.363 28.6182ZM387.363 52.1455L387.852 52.6351L387.867 52.6207L387.88 52.6055L387.363 52.1455ZM384.882 22.5923L384.374 23.0634L384.392 23.0822L384.411 23.0996L384.882 22.5923ZM384.926 19.5794L385.354 20.1238L385.358 20.12L384.926 19.5794ZM387.762 19.5794L387.311 20.105L387.331 20.1221L387.352 20.1377L387.762 19.5794ZM387.806 22.5923L388.296 23.0818L387.806 22.5923ZM386.388 51.8077C386.159 51.8077 386.002 51.7424 385.873 51.6281L384.953 52.663C385.357 53.0213 385.849 53.1923 386.388 53.1923V51.8077ZM385.931 51.6856C385.817 51.557 385.751 51.3999 385.751 51.1708H384.367C384.367 51.7097 384.538 52.2024 384.896 52.6055L385.931 51.6856ZM385.751 51.1708V29.5929H384.367V51.1708H385.751ZM385.751 29.5929C385.751 29.3168 385.826 29.1848 385.903 29.1077L384.924 28.1286C384.528 28.5241 384.367 29.042 384.367 29.5929H385.751ZM385.873 29.1356C386.002 29.0213 386.159 28.956 386.388 28.956V27.5714C385.849 27.5714 385.357 27.7424 384.953 28.1007L385.873 29.1356ZM386.388 28.956C386.664 28.956 386.796 29.0306 386.873 29.1077L387.852 28.1286C387.457 27.7331 386.939 27.5714 386.388 27.5714V28.956ZM386.873 29.1077C386.95 29.1848 387.025 29.3168 387.025 29.5929H388.41C388.41 29.042 388.248 28.5241 387.852 28.1286L386.873 29.1077ZM387.025 29.5929V51.1708H388.41V29.5929H387.025ZM387.025 51.1708C387.025 51.3999 386.96 51.557 386.845 51.6856L387.88 52.6055C388.239 52.2024 388.41 51.7097 388.41 51.1708H387.025ZM386.873 51.656C386.796 51.7331 386.664 51.8077 386.388 51.8077V53.1923C386.939 53.1923 387.457 53.0306 387.852 52.6351L386.873 51.656ZM386.344 22.476C385.958 22.476 385.639 22.3508 385.353 22.085L384.411 23.0996C384.951 23.6018 385.607 23.8606 386.344 23.8606V22.476ZM385.389 22.1212C385.13 21.8422 384.998 21.5109 384.998 21.0858H383.613C383.613 21.8423 383.865 22.5153 384.374 23.0634L385.389 22.1212ZM384.998 21.0858C384.998 20.5515 385.154 20.2808 385.354 20.1238L384.498 19.035C383.871 19.5279 383.613 20.2614 383.613 21.0858H384.998ZM385.358 20.12C385.688 19.8566 386.025 19.74 386.388 19.74V18.3554C385.688 18.3554 385.05 18.5932 384.494 19.0388L385.358 20.12ZM386.388 19.74C386.711 19.74 387.012 19.8483 387.311 20.105L388.212 19.0537C387.685 18.6015 387.07 18.3554 386.388 18.3554V19.74ZM387.352 20.1377C387.575 20.3012 387.734 20.5687 387.734 21.0858H389.119C389.119 20.2442 388.834 19.5075 388.171 19.0211L387.352 20.1377ZM387.734 21.0858C387.734 21.4951 387.599 21.8205 387.316 22.1028L388.296 23.0818C388.84 22.537 389.119 21.8581 389.119 21.0858H387.734ZM387.316 22.1028C387.074 22.3449 386.769 22.476 386.344 22.476V23.8606C387.1 23.8606 387.77 23.6077 388.296 23.0818L387.316 22.1028ZM417.266 52.1455L416.749 52.6055L416.776 52.6359L416.806 52.663L417.266 52.1455ZM415.76 34.4225L415.161 34.7705L415.167 34.7807L415.76 34.4225ZM412.702 31.5868L412.387 32.2031L412.396 32.2074L412.404 32.2116L412.702 31.5868ZM404.062 31.5425L404.354 32.1703L404.366 32.1645L404.062 31.5425ZM401.05 34.0237L400.481 33.6288L401.05 34.0237ZM399.942 37.6126V38.3049H400.634V37.6126H399.942ZM397.726 37.6126L397.036 37.568L396.988 38.3049H397.726V37.6126ZM399.366 32.6945L399.94 33.0812L399.944 33.0758L399.366 32.6945ZM403.176 29.2385L403.5 29.8507L403.509 29.8458L403.176 29.2385ZM414.076 29.2828L413.754 29.8954L413.76 29.8988L413.766 29.902L414.076 29.2828ZM418.108 33.0932L417.509 33.4401L417.512 33.4447L418.108 33.0932ZM419.171 52.1455L419.661 52.6351L419.171 52.1455ZM397.638 52.1455L397.12 52.6055L397.147 52.6359L397.178 52.663L397.638 52.1455ZM397.638 28.6182L397.178 28.1007L397.163 28.1142L397.148 28.1286L397.638 28.6182ZM399.587 52.1455L400.077 52.6351L400.091 52.6207L400.105 52.6055L399.587 52.1455ZM418.241 51.8077C418.012 51.8077 417.855 51.7424 417.726 51.6281L416.806 52.663C417.209 53.0213 417.702 53.1923 418.241 53.1923V51.8077ZM417.784 51.6856C417.669 51.557 417.604 51.3999 417.604 51.1708H416.219C416.219 51.7097 416.39 52.2024 416.749 52.6055L417.784 51.6856ZM417.604 51.1708V39.252H416.219V51.1708H417.604ZM417.604 39.252C417.604 37.2148 417.203 35.4713 416.352 34.0642L415.167 34.7807C415.852 35.9139 416.219 37.3901 416.219 39.252H417.604ZM416.358 34.0745C415.551 32.6866 414.429 31.6435 413.001 30.962L412.404 32.2116C413.576 32.7706 414.491 33.6181 415.161 34.7704L416.358 34.0745ZM413.018 30.9704C411.637 30.2641 410.079 29.9197 408.36 29.9197V31.3043C409.891 31.3043 411.227 31.6097 412.387 32.2031L413.018 30.9704ZM408.36 29.9197C406.674 29.9197 405.135 30.2482 403.759 30.9204L404.366 32.1645C405.53 31.5961 406.857 31.3043 408.36 31.3043V29.9197ZM403.77 30.9147C402.399 31.5528 401.295 32.4565 400.481 33.6288L401.618 34.4186C402.281 33.4642 403.186 32.7136 404.354 32.1702L403.77 30.9147ZM400.481 33.6288C399.66 34.8114 399.25 36.1462 399.25 37.6126H400.634C400.634 36.4205 400.962 35.3628 401.618 34.4186L400.481 33.6288ZM399.942 36.9203H397.726V38.3049H399.942V36.9203ZM398.417 37.6572C398.528 35.9416 399.037 34.4215 399.94 33.0812L398.792 32.3077C397.745 33.8622 397.161 35.6209 397.036 37.568L398.417 37.6572ZM399.944 33.0758C400.854 31.696 402.037 30.6234 403.5 29.8506L402.853 28.6263C401.185 29.5077 399.827 30.7391 398.788 32.3131L399.944 33.0758ZM403.509 29.8458C404.966 29.0483 406.579 28.6458 408.36 28.6458V27.2612C406.361 27.2612 404.517 27.7154 402.844 28.6311L403.509 29.8458ZM408.36 28.6458C410.388 28.6458 412.18 29.0675 413.754 29.8954L414.398 28.6701C412.604 27.7257 410.586 27.2612 408.36 27.2612V28.6458ZM413.766 29.902C415.357 30.6971 416.601 31.8716 417.509 33.4401L418.707 32.7464C417.666 30.9475 416.222 29.5817 414.386 28.6635L413.766 29.902ZM417.512 33.4447C418.408 34.9667 418.878 36.8903 418.878 39.252H420.262C420.262 36.7103 419.757 34.5281 418.704 32.7417L417.512 33.4447ZM418.878 39.252V51.1708H420.262V39.252H418.878ZM418.878 51.1708C418.878 51.3756 418.815 51.5231 418.682 51.656L419.661 52.6351C420.06 52.2363 420.262 51.734 420.262 51.1708H418.878ZM418.682 51.656C418.595 51.7429 418.471 51.8077 418.241 51.8077V53.1923C418.779 53.1923 419.275 53.0208 419.661 52.6351L418.682 51.656ZM398.613 51.8077C398.383 51.8077 398.226 51.7424 398.098 51.6281L397.178 52.663C397.581 53.0213 398.074 53.1923 398.613 53.1923V51.8077ZM398.155 51.6856C398.041 51.557 397.976 51.3999 397.976 51.1708H396.591C396.591 51.7097 396.762 52.2024 397.12 52.6055L398.155 51.6856ZM397.976 51.1708V29.5929H396.591V51.1708H397.976ZM397.976 29.5929C397.976 29.3168 398.05 29.1848 398.127 29.1077L397.148 28.1286C396.753 28.5241 396.591 29.042 396.591 29.5929H397.976ZM398.098 29.1356C398.226 29.0213 398.383 28.956 398.613 28.956V27.5714C398.074 27.5714 397.581 27.7424 397.178 28.1007L398.098 29.1356ZM398.613 28.956C398.889 28.956 399.021 29.0306 399.098 29.1077L400.077 28.1286C399.681 27.7331 399.164 27.5714 398.613 27.5714V28.956ZM399.098 29.1077C399.175 29.1848 399.25 29.3168 399.25 29.5929H400.634C400.634 29.042 400.472 28.5241 400.077 28.1286L399.098 29.1077ZM399.25 29.5929V51.1708H400.634V29.5929H399.25ZM399.25 51.1708C399.25 51.3999 399.184 51.557 399.07 51.6856L400.105 52.6055C400.463 52.2024 400.634 51.7097 400.634 51.1708H399.25ZM399.098 51.656C399.021 51.7331 398.889 51.8077 398.613 51.8077V53.1923C399.164 53.1923 399.681 53.0306 400.077 52.6351L399.098 51.656ZM432.44 51.1708L432.784 50.5697L432.44 51.1708ZM428.054 46.7843L428.655 46.4408L428.054 46.7843ZM428.098 33.9794L428.695 34.33L428.098 33.9794ZM432.529 29.5929L432.19 28.9895L432.186 28.9918L432.529 29.5929ZM445.245 29.5929L444.898 30.1916L444.902 30.194L445.245 29.5929ZM449.632 33.9794L449.031 34.3229L449.632 33.9794ZM451.227 40.404L451.748 40.8599L451.919 40.6641V40.404H451.227ZM449.676 42.1763L449.155 41.7204L448.984 41.9162V42.1763H449.676ZM448.303 47.6705L447.702 47.3258L448.303 47.6705ZM444.492 51.4366L444.824 52.0444L444.832 52.0397L444.492 51.4366ZM432.751 60.3868L432.424 60.9974L432.429 60.9996L432.751 60.3868ZM428.497 56.8865L429.04 56.4567L429.038 56.454L428.497 56.8865ZM428.586 55.1585L428.983 55.7256L429.001 55.7129L429.018 55.6991L428.586 55.1585ZM429.605 54.8926L429.499 55.5769L429.507 55.578L429.605 54.8926ZM430.535 55.4686L429.951 55.8403L429.975 55.8785L430.005 55.9132L430.535 55.4686ZM434.036 58.1714L434.355 57.5573L434.345 57.5522L434.036 58.1714ZM443.916 57.9498L443.555 57.3594L443.549 57.3628L443.916 57.9498ZM447.328 54.2723L446.718 53.9441L446.716 53.9489L447.328 54.2723ZM448.568 42.0434L448.009 41.6353L447.876 41.8176V42.0434H448.568ZM449.765 40.404V39.7117H449.413L449.206 39.9959L449.765 40.404ZM451.227 40.404H451.919V39.7117H451.227V40.404ZM449.632 55.5572L449.026 55.2218L449.632 55.5572ZM445.29 60.0766L444.935 59.4821L444.928 59.4864L445.29 60.0766ZM443.872 49.044L444.215 49.6451L444.219 49.6429L443.872 49.044ZM447.328 45.5437L447.932 45.882L447.935 45.8769L447.328 45.5437ZM447.328 35.2643L446.721 35.5975L446.724 35.6026L447.328 35.2643ZM443.872 31.764L443.519 32.3598L443.526 32.364L443.534 32.368L443.872 31.764ZM433.814 31.764L434.152 32.3681L434.161 32.3629L433.814 31.764ZM430.358 35.2643L430.962 35.6026L430.965 35.5975L430.358 35.2643ZM430.358 45.5437L429.751 45.8769L429.754 45.882L430.358 45.5437ZM433.814 49.044L433.467 49.6429L433.476 49.648L433.814 49.044ZM438.865 52.0735C436.547 52.0735 434.527 51.5658 432.784 50.5697L432.097 51.7719C434.076 52.9025 436.338 53.4582 438.865 53.4582V52.0735ZM432.784 50.5697C431.03 49.5676 429.657 48.1944 428.655 46.4408L427.453 47.1278C428.578 49.096 430.129 50.6471 432.097 51.7719L432.784 50.5697ZM428.655 46.4408C427.658 44.6963 427.151 42.6905 427.151 40.404H425.767C425.767 42.9028 426.323 45.1505 427.453 47.1278L428.655 46.4408ZM427.151 40.404C427.151 38.0897 427.672 36.0721 428.695 34.33L427.501 33.6288C426.339 35.6086 425.767 37.874 425.767 40.404H427.151ZM428.695 34.33C429.727 32.5725 431.117 31.197 432.873 30.194L432.186 28.9918C430.219 30.1156 428.655 31.6644 427.501 33.6288L428.695 34.33ZM432.868 30.1963C434.647 29.1956 436.641 28.6902 438.865 28.6902V27.3055C436.422 27.3055 434.192 27.8635 432.19 28.9895L432.868 30.1963ZM438.865 28.6902C441.183 28.6902 443.186 29.1979 444.898 30.1916L445.593 28.9942C443.642 27.8611 441.391 27.3055 438.865 27.3055V28.6902ZM444.902 30.194C446.655 31.1961 448.029 32.5693 449.031 34.3229L450.233 33.6359C449.108 31.6676 447.557 30.1165 445.589 28.9918L444.902 30.194ZM449.031 34.3229C450.027 36.0661 450.535 38.0864 450.535 40.404H451.919C451.919 37.8773 451.364 35.6145 450.233 33.6359L449.031 34.3229ZM450.706 39.9481L449.155 41.7204L450.197 42.6322L451.748 40.8599L450.706 39.9481ZM448.984 42.1763C448.984 44.1384 448.55 45.8481 447.702 47.3258L448.903 48.0151C449.886 46.3026 450.368 44.3496 450.368 42.1763H448.984ZM447.702 47.3258C446.849 48.8113 445.67 49.9781 444.152 50.8335L444.832 52.0397C446.564 51.0638 447.924 49.7198 448.903 48.0151L447.702 47.3258ZM444.161 50.8288C442.652 51.6517 440.893 52.0735 438.865 52.0735V53.4582C441.09 53.4582 443.083 52.9938 444.824 52.0444L444.161 50.8288ZM439.042 61.068C436.676 61.068 434.695 60.6262 433.073 59.7739L432.429 60.9996C434.292 61.9788 436.505 62.4526 439.042 62.4526V61.068ZM433.077 59.7762C431.441 58.9019 430.099 57.7947 429.04 56.4567L427.954 57.3162C429.14 58.8139 430.634 60.0402 432.424 60.9973L433.077 59.7762ZM429.038 56.454C428.883 56.2603 428.835 56.0987 428.835 55.956H427.45C427.45 56.4632 427.639 56.9219 427.956 57.3189L429.038 56.454ZM428.835 55.956C428.835 55.8844 428.849 55.8194 428.983 55.7256L428.189 54.5913C427.732 54.9111 427.45 55.3777 427.45 55.956H428.835ZM429.018 55.6991C429.158 55.5874 429.301 55.5463 429.499 55.5769L429.71 54.2084C429.14 54.1207 428.604 54.2569 428.153 54.6179L429.018 55.6991ZM429.507 55.578C429.739 55.6112 429.863 55.7016 429.951 55.8403L431.119 55.0969C430.794 54.5858 430.297 54.2922 429.703 54.2073L429.507 55.578ZM430.005 55.9132C430.988 57.0866 432.233 58.044 433.726 58.7906L434.345 57.5522C433.003 56.8809 431.914 56.0365 431.066 55.024L430.005 55.9132ZM433.716 58.7854C435.25 59.5847 437.033 59.9714 439.042 59.9714V58.5868C437.211 58.5868 435.656 58.235 434.355 57.5574L433.716 58.7854ZM439.042 59.9714C440.991 59.9714 442.745 59.4983 444.283 58.5369L443.549 57.3628C442.252 58.1737 440.757 58.5868 439.042 58.5868V59.9714ZM444.278 58.5403C445.836 57.5864 447.057 56.2662 447.94 54.5957L446.716 53.9489C445.944 55.4095 444.891 56.541 443.555 57.3594L444.278 58.5403ZM447.937 54.6005C448.824 52.9538 449.261 51.1111 449.261 49.0883H447.876C447.876 50.9055 447.486 52.5188 446.718 53.9441L447.937 54.6005ZM449.261 49.0883V42.0434H447.876V49.0883H449.261ZM449.128 42.4515L450.324 40.8121L449.206 39.9959L448.009 41.6353L449.128 42.4515ZM449.765 41.0963H451.227V39.7117H449.765V41.0963ZM450.535 40.404V49.0883H451.919V40.404H450.535ZM450.535 49.0883C450.535 51.3744 450.028 53.4136 449.026 55.2218L450.237 55.8927C451.363 53.8609 451.919 51.5874 451.919 49.0883H450.535ZM449.026 55.2218C448.02 57.0381 446.658 58.4538 444.935 59.4821L445.644 60.6711C447.584 59.5136 449.117 57.9164 450.237 55.8927L449.026 55.2218ZM444.928 59.4864C443.215 60.5364 441.26 61.068 439.042 61.068V62.4526C441.492 62.4526 443.702 61.8618 445.651 60.6669L444.928 59.4864ZM438.865 50.9769C440.86 50.9769 442.65 50.5396 444.215 49.6451L443.528 48.4429C442.199 49.2026 440.651 49.5923 438.865 49.5923V50.9769ZM444.219 49.6429C445.803 48.7245 447.044 47.4682 447.932 45.882L446.724 45.2054C445.958 46.5731 444.895 47.6502 443.524 48.4451L444.219 49.6429ZM447.935 45.8769C448.824 44.2568 449.261 42.4266 449.261 40.404H447.876C447.876 42.2214 447.486 43.8177 446.721 45.2105L447.935 45.8769ZM449.261 40.404C449.261 38.3542 448.825 36.5211 447.932 34.926L446.724 35.6026C447.485 36.9614 447.876 38.5547 447.876 40.404H449.261ZM447.935 34.9311C447.046 33.3128 445.802 32.0514 444.21 31.16L443.534 32.368C444.896 33.1308 445.955 34.2028 446.721 35.5975L447.935 34.9311ZM444.224 31.1682C442.658 30.2409 440.864 29.7868 438.865 29.7868V31.1714C440.647 31.1714 442.191 31.5739 443.519 32.3598L444.224 31.1682ZM438.865 29.7868C436.866 29.7868 435.06 30.2409 433.467 31.1651L434.161 32.3629C435.522 31.5739 437.083 31.1714 438.865 31.1714V29.7868ZM433.476 31.16C431.884 32.0514 430.64 33.3128 429.751 34.9311L430.965 35.5975C431.731 34.2028 432.79 33.1308 434.152 32.368L433.476 31.16ZM429.754 34.926C428.861 36.5211 428.425 38.3542 428.425 40.404H429.81C429.81 38.5547 430.201 36.9614 430.962 35.6026L429.754 34.926ZM428.425 40.404C428.425 42.4266 428.862 44.2568 429.751 45.8769L430.965 45.2105C430.2 43.8177 429.81 42.2214 429.81 40.404H428.425ZM429.754 45.882C430.642 47.4682 431.883 48.7245 433.467 49.6429L434.161 48.4451C432.791 47.6502 431.728 46.5731 430.962 45.2054L429.754 45.882ZM433.476 49.648C435.068 50.5395 436.87 50.9769 438.865 50.9769V49.5923C437.079 49.5923 435.514 49.2026 434.152 48.44L433.476 49.648Z" fill="white"/>
<defs>
<linearGradient id="paint0_linear_1208_4040" x1="0" y1="0" x2="86.8884" y2="37.5402" gradientUnits="userSpaceOnUse">
<stop stop-color="#1DE1EE"/>
<stop offset="0.493582" stop-color="#8B43FE"/>
<stop offset="1" stop-color="#E50CEA"/>
</linearGradient>
</defs>
</svg>
