<?xml version="1.0" standalone="no"?>
<!DOCTYPE svg PUBLIC "-//W3C//DTD SVG 20010904//EN"
 "http://www.w3.org/TR/2001/REC-SVG-20010904/DTD/svg10.dtd">
<svg version="1.0" xmlns="http://www.w3.org/2000/svg"
 width="400.000000pt" height="400.000000pt" viewBox="0 0 400.000000 400.000000"
 preserveAspectRatio="xMidYMid meet">
<metadata>
Created by potrace 1.14, written by Peter Selinger 2001-2017
</metadata>
<g transform="translate(0.000000,400.000000) scale(0.100000,-0.100000)"
fill="#000000" stroke="none">
<path d="M1800 3749 c-107 -15 -125 -18 -150 -24 -14 -3 -38 -8 -55 -11 -117
-20 -416 -146 -531 -224 -25 -16 -47 -30 -49 -30 -3 0 -13 -6 -22 -14 -10 -8
-52 -41 -93 -74 -289 -231 -493 -540 -594 -897 -14 -49 -27 -101 -30 -115 -2
-14 -7 -41 -10 -60 -3 -19 -9 -48 -12 -65 -13 -68 -12 -372 2 -470 55 -387
227 -735 501 -1010 266 -268 625 -446 1008 -499 145 -21 1586 -22 1662 -2 162
43 284 170 323 335 12 50 10 135 -5 205 -18 87 -133 236 -206 266 -16 7 -29
16 -29 21 0 4 27 61 59 126 95 190 148 359 176 567 16 113 13 395 -4 486 -6
30 -12 66 -15 80 -14 78 -45 194 -66 245 -4 11 -20 52 -36 90 -230 578 -797
1004 -1429 1074 -95 11 -318 10 -395 0z m385 -889 c323 -71 574 -310 665 -632
33 -115 36 -300 6 -433 -21 -95 -87 -237 -149 -320 -53 -71 -164 -171 -240
-219 -154 -96 -302 -136 -490 -132 -123 3 -161 10 -272 48 -283 98 -500 348
-568 652 -22 98 -16 295 12 400 19 70 79 211 102 240 5 6 29 39 54 73 128 174
348 301 580 337 49 7 246 -2 300 -14z"/>
</g>
</svg>
