<svg width="179" height="40" viewBox="0 0 179 40" fill="none" xmlns="http://www.w3.org/2000/svg">
<path d="M14.2858 7.93404C14.2858 6.15095 15.8488 4.7904 17.5753 5.07071L35.6997 8.01348C37.0797 8.23755 38.0954 9.45148 38.0954 10.8768V29.1232C38.0954 30.5485 37.0797 31.7624 35.6997 31.9865L17.5753 34.9293C15.8488 35.2096 14.2858 33.849 14.2858 32.0659V7.93404Z" fill="url(#paint0_linear_1249_568)"/>
<path d="M12.3811 8.79437C12.3811 7.93454 11.3629 7.5028 10.7653 8.10923L10.3617 8.51882C9.82542 9.06298 9.52394 9.8027 9.52394 10.5742V29.4257C9.52394 30.1973 9.82542 30.937 10.3617 31.4811L10.7653 31.8907C11.3629 32.4972 12.3811 32.0654 12.3811 31.2056V8.79437Z" fill="url(#paint1_linear_1249_568)"/>
<path d="M7.61917 12.1361C7.61917 11.3652 6.77774 10.9046 6.14792 11.3307L6.0334 11.4082C5.23938 11.9454 4.76203 12.8526 4.76203 13.8244V26.1756C4.76203 27.1474 5.23938 28.0546 6.0334 28.5918L6.14792 28.6692C6.77774 29.0953 7.61917 28.6347 7.61917 27.8638V12.1361Z" fill="url(#paint2_linear_1249_568)"/>
<path d="M2.85727 15.0355C2.85727 14.2646 2.01584 13.804 1.38601 14.2301L1.2715 14.3076C0.477479 14.8447 0.00012207 15.7519 0.00012207 16.7238V23.2762C0.00012207 24.248 0.47748 25.1552 1.2715 25.6924L1.38601 25.7699C2.01584 26.196 2.85727 25.7353 2.85727 24.9645V15.0355Z" fill="url(#paint3_linear_1249_568)"/>
<path d="M50.2162 26.04H56.3496V29H46.4829V10.3867H50.2162V26.04ZM71.8692 21.2933C71.8692 21.8267 71.8336 22.3067 71.7625 22.7333H60.9625C61.0514 23.8 61.4247 24.6356 62.0825 25.24C62.7403 25.8444 63.5492 26.1467 64.5092 26.1467C65.8958 26.1467 66.8825 25.5511 67.4692 24.36H71.4958C71.0692 25.7822 70.2514 26.9556 69.0425 27.88C67.8336 28.7867 66.3492 29.24 64.5892 29.24C63.1669 29.24 61.8869 28.9289 60.7492 28.3067C59.6292 27.6667 58.7492 26.7689 58.1092 25.6133C57.4869 24.4578 57.1758 23.1244 57.1758 21.6133C57.1758 20.0844 57.4869 18.7422 58.1092 17.5867C58.7314 16.4311 59.6025 15.5422 60.7225 14.92C61.8425 14.2978 63.1314 13.9867 64.5892 13.9867C65.9936 13.9867 67.2469 14.2889 68.3492 14.8933C69.4692 15.4978 70.3314 16.36 70.9358 17.48C71.5581 18.5822 71.8692 19.8533 71.8692 21.2933ZM68.0025 20.2267C67.9847 19.2667 67.6381 18.5022 66.9625 17.9333C66.2869 17.3467 65.4603 17.0533 64.4825 17.0533C63.5581 17.0533 62.7758 17.3378 62.1358 17.9067C61.5136 18.4578 61.1314 19.2311 60.9892 20.2267H68.0025ZM73.0475 21.56C73.0475 20.0667 73.3408 18.7422 73.9275 17.5867C74.5319 16.4311 75.3408 15.5422 76.3542 14.92C77.3853 14.2978 78.5319 13.9867 79.7942 13.9867C80.8964 13.9867 81.8564 14.2089 82.6742 14.6533C83.5097 15.0978 84.1764 15.6578 84.6742 16.3333V14.2267H88.4342V29H84.6742V26.84C84.1942 27.5333 83.5275 28.1111 82.6742 28.5733C81.8386 29.0178 80.8697 29.24 79.7675 29.24C78.5231 29.24 77.3853 28.92 76.3542 28.28C75.3408 27.64 74.5319 26.7422 73.9275 25.5867C73.3408 24.4133 73.0475 23.0711 73.0475 21.56ZM84.6742 21.6133C84.6742 20.7067 84.4964 19.9333 84.1408 19.2933C83.7853 18.6356 83.3053 18.1378 82.7008 17.8C82.0964 17.4444 81.4475 17.2667 80.7542 17.2667C80.0608 17.2667 79.4208 17.4356 78.8342 17.7733C78.2475 18.1111 77.7675 18.6089 77.3942 19.2667C77.0386 19.9067 76.8608 20.6711 76.8608 21.56C76.8608 22.4489 77.0386 23.2311 77.3942 23.9067C77.7675 24.5644 78.2475 25.0711 78.8342 25.4267C79.4386 25.7822 80.0786 25.96 80.7542 25.96C81.4475 25.96 82.0964 25.7911 82.7008 25.4533C83.3053 25.0978 83.7853 24.6 84.1408 23.96C84.4964 23.3022 84.6742 22.52 84.6742 21.6133ZM95.2271 16.52C95.7071 15.7378 96.3293 15.1244 97.0937 14.68C97.876 14.2356 98.7649 14.0133 99.7604 14.0133V17.9333H98.7737C97.6004 17.9333 96.7115 18.2089 96.1071 18.76C95.5204 19.3111 95.2271 20.2711 95.2271 21.64V29H91.4937V14.2267H95.2271V16.52ZM109.875 14.0133C111.635 14.0133 113.057 14.5733 114.142 15.6933C115.226 16.7956 115.768 18.3422 115.768 20.3333V29H112.035V20.84C112.035 19.6667 111.742 18.7689 111.155 18.1467C110.568 17.5067 109.768 17.1867 108.755 17.1867C107.724 17.1867 106.906 17.5067 106.302 18.1467C105.715 18.7689 105.422 19.6667 105.422 20.84V29H101.688V14.2267H105.422V16.0667C105.919 15.4267 106.551 14.9289 107.315 14.5733C108.097 14.2 108.951 14.0133 109.875 14.0133ZM125.159 29.1867C123.861 29.1867 122.687 28.9644 121.639 28.52C120.607 28.0756 119.79 27.4356 119.185 26.6C118.581 25.7644 118.27 24.7778 118.252 23.64H122.252C122.305 24.4044 122.572 25.0089 123.052 25.4533C123.55 25.8978 124.225 26.12 125.079 26.12C125.95 26.12 126.634 25.9156 127.132 25.5067C127.63 25.08 127.879 24.5289 127.879 23.8533C127.879 23.3022 127.71 22.8489 127.372 22.4933C127.034 22.1378 126.607 21.8622 126.092 21.6667C125.594 21.4533 124.901 21.2222 124.012 20.9733C122.803 20.6178 121.816 20.2711 121.052 19.9333C120.305 19.5778 119.656 19.0533 119.105 18.36C118.572 17.6489 118.305 16.7067 118.305 15.5333C118.305 14.4311 118.581 13.4711 119.132 12.6533C119.683 11.8356 120.456 11.2133 121.452 10.7867C122.447 10.3422 123.585 10.12 124.865 10.12C126.785 10.12 128.341 10.5911 129.532 11.5333C130.741 12.4578 131.407 13.7556 131.532 15.4267H127.425C127.39 14.7867 127.114 14.2622 126.599 13.8533C126.101 13.4267 125.434 13.2133 124.599 13.2133C123.87 13.2133 123.283 13.4 122.839 13.7733C122.412 14.1467 122.199 14.6889 122.199 15.4C122.199 15.8978 122.359 16.3156 122.679 16.6533C123.016 16.9733 123.425 17.24 123.905 17.4533C124.403 17.6489 125.096 17.88 125.985 18.1467C127.194 18.5022 128.181 18.8578 128.945 19.2133C129.71 19.5689 130.367 20.1022 130.919 20.8133C131.47 21.5244 131.745 22.4578 131.745 23.6133C131.745 24.6089 131.487 25.5333 130.972 26.3867C130.456 27.24 129.701 27.9244 128.705 28.44C127.71 28.9378 126.527 29.1867 125.159 29.1867ZM138.129 9.26667V29H134.395V9.26667H138.129ZM143.124 12.4667C142.466 12.4667 141.915 12.2622 141.47 11.8533C141.044 11.4267 140.83 10.9022 140.83 10.28C140.83 9.65778 141.044 9.14222 141.47 8.73333C141.915 8.30667 142.466 8.09333 143.124 8.09333C143.782 8.09333 144.324 8.30667 144.75 8.73333C145.195 9.14222 145.417 9.65778 145.417 10.28C145.417 10.9022 145.195 11.4267 144.75 11.8533C144.324 12.2622 143.782 12.4667 143.124 12.4667ZM144.964 14.2267V29H141.23V14.2267H144.964ZM147.106 21.6133C147.106 20.0844 147.417 18.7511 148.039 17.6133C148.661 16.4578 149.523 15.5689 150.626 14.9467C151.728 14.3067 152.99 13.9867 154.412 13.9867C156.243 13.9867 157.755 14.4489 158.946 15.3733C160.155 16.28 160.963 17.56 161.372 19.2133H157.346C157.132 18.5733 156.768 18.0756 156.252 17.72C155.755 17.3467 155.132 17.16 154.386 17.16C153.319 17.16 152.475 17.5511 151.852 18.3333C151.23 19.0978 150.919 20.1911 150.919 21.6133C150.919 23.0178 151.23 24.1111 151.852 24.8933C152.475 25.6578 153.319 26.04 154.386 26.04C155.897 26.04 156.883 25.3644 157.346 24.0133H161.372C160.963 25.6133 160.155 26.8844 158.946 27.8267C157.737 28.7689 156.226 29.24 154.412 29.24C152.99 29.24 151.728 28.9289 150.626 28.3067C149.523 27.6667 148.661 26.7778 148.039 25.64C147.417 24.4844 147.106 23.1422 147.106 21.6133ZM177.254 21.2933C177.254 21.8267 177.218 22.3067 177.147 22.7333H166.347C166.436 23.8 166.81 24.6356 167.467 25.24C168.125 25.8444 168.934 26.1467 169.894 26.1467C171.281 26.1467 172.267 25.5511 172.854 24.36H176.881C176.454 25.7822 175.636 26.9556 174.427 27.88C173.218 28.7867 171.734 29.24 169.974 29.24C168.552 29.24 167.272 28.9289 166.134 28.3067C165.014 27.6667 164.134 26.7689 163.494 25.6133C162.872 24.4578 162.561 23.1244 162.561 21.6133C162.561 20.0844 162.872 18.7422 163.494 17.5867C164.116 16.4311 164.987 15.5422 166.107 14.92C167.227 14.2978 168.516 13.9867 169.974 13.9867C171.378 13.9867 172.632 14.2889 173.734 14.8933C174.854 15.4978 175.716 16.36 176.321 17.48C176.943 18.5822 177.254 19.8533 177.254 21.2933ZM173.387 20.2267C173.37 19.2667 173.023 18.5022 172.347 17.9333C171.672 17.3467 170.845 17.0533 169.867 17.0533C168.943 17.0533 168.161 17.3378 167.521 17.9067C166.898 18.4578 166.516 19.2311 166.374 20.2267H173.387Z" fill="white"/>
<path d="M50.2162 26.04H56.3496V29H46.4829V10.3867H50.2162V26.04ZM71.8692 21.2933C71.8692 21.8267 71.8336 22.3067 71.7625 22.7333H60.9625C61.0514 23.8 61.4247 24.6356 62.0825 25.24C62.7403 25.8444 63.5492 26.1467 64.5092 26.1467C65.8958 26.1467 66.8825 25.5511 67.4692 24.36H71.4958C71.0692 25.7822 70.2514 26.9556 69.0425 27.88C67.8336 28.7867 66.3492 29.24 64.5892 29.24C63.1669 29.24 61.8869 28.9289 60.7492 28.3067C59.6292 27.6667 58.7492 26.7689 58.1092 25.6133C57.4869 24.4578 57.1758 23.1244 57.1758 21.6133C57.1758 20.0844 57.4869 18.7422 58.1092 17.5867C58.7314 16.4311 59.6025 15.5422 60.7225 14.92C61.8425 14.2978 63.1314 13.9867 64.5892 13.9867C65.9936 13.9867 67.2469 14.2889 68.3492 14.8933C69.4692 15.4978 70.3314 16.36 70.9358 17.48C71.5581 18.5822 71.8692 19.8533 71.8692 21.2933ZM68.0025 20.2267C67.9847 19.2667 67.6381 18.5022 66.9625 17.9333C66.2869 17.3467 65.4603 17.0533 64.4825 17.0533C63.5581 17.0533 62.7758 17.3378 62.1358 17.9067C61.5136 18.4578 61.1314 19.2311 60.9892 20.2267H68.0025ZM73.0475 21.56C73.0475 20.0667 73.3408 18.7422 73.9275 17.5867C74.5319 16.4311 75.3408 15.5422 76.3542 14.92C77.3853 14.2978 78.5319 13.9867 79.7942 13.9867C80.8964 13.9867 81.8564 14.2089 82.6742 14.6533C83.5097 15.0978 84.1764 15.6578 84.6742 16.3333V14.2267H88.4342V29H84.6742V26.84C84.1942 27.5333 83.5275 28.1111 82.6742 28.5733C81.8386 29.0178 80.8697 29.24 79.7675 29.24C78.5231 29.24 77.3853 28.92 76.3542 28.28C75.3408 27.64 74.5319 26.7422 73.9275 25.5867C73.3408 24.4133 73.0475 23.0711 73.0475 21.56ZM84.6742 21.6133C84.6742 20.7067 84.4964 19.9333 84.1408 19.2933C83.7853 18.6356 83.3053 18.1378 82.7008 17.8C82.0964 17.4444 81.4475 17.2667 80.7542 17.2667C80.0608 17.2667 79.4208 17.4356 78.8342 17.7733C78.2475 18.1111 77.7675 18.6089 77.3942 19.2667C77.0386 19.9067 76.8608 20.6711 76.8608 21.56C76.8608 22.4489 77.0386 23.2311 77.3942 23.9067C77.7675 24.5644 78.2475 25.0711 78.8342 25.4267C79.4386 25.7822 80.0786 25.96 80.7542 25.96C81.4475 25.96 82.0964 25.7911 82.7008 25.4533C83.3053 25.0978 83.7853 24.6 84.1408 23.96C84.4964 23.3022 84.6742 22.52 84.6742 21.6133ZM95.2271 16.52C95.7071 15.7378 96.3293 15.1244 97.0937 14.68C97.876 14.2356 98.7649 14.0133 99.7604 14.0133V17.9333H98.7737C97.6004 17.9333 96.7115 18.2089 96.1071 18.76C95.5204 19.3111 95.2271 20.2711 95.2271 21.64V29H91.4937V14.2267H95.2271V16.52ZM109.875 14.0133C111.635 14.0133 113.057 14.5733 114.142 15.6933C115.226 16.7956 115.768 18.3422 115.768 20.3333V29H112.035V20.84C112.035 19.6667 111.742 18.7689 111.155 18.1467C110.568 17.5067 109.768 17.1867 108.755 17.1867C107.724 17.1867 106.906 17.5067 106.302 18.1467C105.715 18.7689 105.422 19.6667 105.422 20.84V29H101.688V14.2267H105.422V16.0667C105.919 15.4267 106.551 14.9289 107.315 14.5733C108.097 14.2 108.951 14.0133 109.875 14.0133ZM125.159 29.1867C123.861 29.1867 122.687 28.9644 121.639 28.52C120.607 28.0756 119.79 27.4356 119.185 26.6C118.581 25.7644 118.27 24.7778 118.252 23.64H122.252C122.305 24.4044 122.572 25.0089 123.052 25.4533C123.55 25.8978 124.225 26.12 125.079 26.12C125.95 26.12 126.634 25.9156 127.132 25.5067C127.63 25.08 127.879 24.5289 127.879 23.8533C127.879 23.3022 127.71 22.8489 127.372 22.4933C127.034 22.1378 126.607 21.8622 126.092 21.6667C125.594 21.4533 124.901 21.2222 124.012 20.9733C122.803 20.6178 121.816 20.2711 121.052 19.9333C120.305 19.5778 119.656 19.0533 119.105 18.36C118.572 17.6489 118.305 16.7067 118.305 15.5333C118.305 14.4311 118.581 13.4711 119.132 12.6533C119.683 11.8356 120.456 11.2133 121.452 10.7867C122.447 10.3422 123.585 10.12 124.865 10.12C126.785 10.12 128.341 10.5911 129.532 11.5333C130.741 12.4578 131.407 13.7556 131.532 15.4267H127.425C127.39 14.7867 127.114 14.2622 126.599 13.8533C126.101 13.4267 125.434 13.2133 124.599 13.2133C123.87 13.2133 123.283 13.4 122.839 13.7733C122.412 14.1467 122.199 14.6889 122.199 15.4C122.199 15.8978 122.359 16.3156 122.679 16.6533C123.016 16.9733 123.425 17.24 123.905 17.4533C124.403 17.6489 125.096 17.88 125.985 18.1467C127.194 18.5022 128.181 18.8578 128.945 19.2133C129.71 19.5689 130.367 20.1022 130.919 20.8133C131.47 21.5244 131.745 22.4578 131.745 23.6133C131.745 24.6089 131.487 25.5333 130.972 26.3867C130.456 27.24 129.701 27.9244 128.705 28.44C127.71 28.9378 126.527 29.1867 125.159 29.1867ZM138.129 9.26667V29H134.395V9.26667H138.129ZM143.124 12.4667C142.466 12.4667 141.915 12.2622 141.47 11.8533C141.044 11.4267 140.83 10.9022 140.83 10.28C140.83 9.65778 141.044 9.14222 141.47 8.73333C141.915 8.30667 142.466 8.09333 143.124 8.09333C143.782 8.09333 144.324 8.30667 144.75 8.73333C145.195 9.14222 145.417 9.65778 145.417 10.28C145.417 10.9022 145.195 11.4267 144.75 11.8533C144.324 12.2622 143.782 12.4667 143.124 12.4667ZM144.964 14.2267V29H141.23V14.2267H144.964ZM147.106 21.6133C147.106 20.0844 147.417 18.7511 148.039 17.6133C148.661 16.4578 149.523 15.5689 150.626 14.9467C151.728 14.3067 152.99 13.9867 154.412 13.9867C156.243 13.9867 157.755 14.4489 158.946 15.3733C160.155 16.28 160.963 17.56 161.372 19.2133H157.346C157.132 18.5733 156.768 18.0756 156.252 17.72C155.755 17.3467 155.132 17.16 154.386 17.16C153.319 17.16 152.475 17.5511 151.852 18.3333C151.23 19.0978 150.919 20.1911 150.919 21.6133C150.919 23.0178 151.23 24.1111 151.852 24.8933C152.475 25.6578 153.319 26.04 154.386 26.04C155.897 26.04 156.883 25.3644 157.346 24.0133H161.372C160.963 25.6133 160.155 26.8844 158.946 27.8267C157.737 28.7689 156.226 29.24 154.412 29.24C152.99 29.24 151.728 28.9289 150.626 28.3067C149.523 27.6667 148.661 26.7778 148.039 25.64C147.417 24.4844 147.106 23.1422 147.106 21.6133ZM177.254 21.2933C177.254 21.8267 177.218 22.3067 177.147 22.7333H166.347C166.436 23.8 166.81 24.6356 167.467 25.24C168.125 25.8444 168.934 26.1467 169.894 26.1467C171.281 26.1467 172.267 25.5511 172.854 24.36H176.881C176.454 25.7822 175.636 26.9556 174.427 27.88C173.218 28.7867 171.734 29.24 169.974 29.24C168.552 29.24 167.272 28.9289 166.134 28.3067C165.014 27.6667 164.134 26.7689 163.494 25.6133C162.872 24.4578 162.561 23.1244 162.561 21.6133C162.561 20.0844 162.872 18.7422 163.494 17.5867C164.116 16.4311 164.987 15.5422 166.107 14.92C167.227 14.2978 168.516 13.9867 169.974 13.9867C171.378 13.9867 172.632 14.2889 173.734 14.8933C174.854 15.4978 175.716 16.36 176.321 17.48C176.943 18.5822 177.254 19.8533 177.254 21.2933ZM173.387 20.2267C173.37 19.2667 173.023 18.5022 172.347 17.9333C171.672 17.3467 170.845 17.0533 169.867 17.0533C168.943 17.0533 168.161 17.3378 167.521 17.9067C166.898 18.4578 166.516 19.2311 166.374 20.2267H173.387Z" fill="white"/>
<defs>
<linearGradient id="paint0_linear_1249_568" x1="37.9999" y1="31.0001" x2="16.9999" y2="7.50005" gradientUnits="userSpaceOnUse">
<stop stop-color="#6665F1"/>
<stop offset="0.5" stop-color="#D548EF"/>
<stop offset="1" stop-color="#FB7286"/>
</linearGradient>
<linearGradient id="paint1_linear_1249_568" x1="37.9999" y1="31.0001" x2="16.9999" y2="7.50005" gradientUnits="userSpaceOnUse">
<stop stop-color="#6665F1"/>
<stop offset="0.5" stop-color="#D548EF"/>
<stop offset="1" stop-color="#FB7286"/>
</linearGradient>
<linearGradient id="paint2_linear_1249_568" x1="37.9999" y1="31.0001" x2="16.9999" y2="7.50005" gradientUnits="userSpaceOnUse">
<stop stop-color="#6665F1"/>
<stop offset="0.5" stop-color="#D548EF"/>
<stop offset="1" stop-color="#FB7286"/>
</linearGradient>
<linearGradient id="paint3_linear_1249_568" x1="37.9999" y1="31.0001" x2="16.9999" y2="7.50005" gradientUnits="userSpaceOnUse">
<stop stop-color="#6665F1"/>
<stop offset="0.5" stop-color="#D548EF"/>
<stop offset="1" stop-color="#FB7286"/>
</linearGradient>
</defs>
</svg>
